<svg id="Capa_1" enable-background="new 0 0 511.999 511.999" height="512" viewBox="0 0 511.999 511.999" width="512" xmlns="http://www.w3.org/2000/svg"><path d="m107.08 293.963c-4.8 6.825-3.111 16.219 3.71 20.96l10.309 7.159c-16.826 16.235-39.391 25.421-62.959 25.421h-28.14v-32.5c0-8.284-6.716-15-15-15s-15 6.716-15 15v153c0 8.284 6.716 15 15 15s15-6.716 15-15v-30.5h20.332c53.832 0 106.476-22.636 143.872-64.651l15.006 10.421c6.813 4.758 16.265 3.012 20.95-3.88l10.28-15.09-121.69-86.91z"/><path d="m505.46 295.303-5.53-3.78-115.05 91.93 32.92 23.7c6.429 4.627 15.419 3.458 20.43-2.76l70.44-87.28c5.522-6.845 3.985-16.903-3.21-21.81z"/><path d="m482.167 242.977-288.428-208.294c-12.955-9.358-30.943-6.926-40.951 5.532l-94.791 117.985c-10.78 13.421-8.059 33.196 5.953 43.203l255.171 182.225c5.453 3.894 12.837 3.702 18.08-.488l145.547-116.283c7.734-6.178 7.467-18.069-.581-23.88zm-106.167 26.526c-8.284 0-15-6.716-15-15s6.716-15 15-15 15 6.716 15 15-6.716 15-15 15z"/></svg>