<svg id="Capa_1" enable-background="new 0 0 512 512" height="512" viewBox="0 0 512 512" width="512" xmlns="http://www.w3.org/2000/svg"><g><path d="m339.146 40.819c-6.269-23.477-27.72-40.819-53.146-40.819-12.964 0-25.267 4.626-34.959 12.709-13.035-10.938-30.668-15.333-48.295-11.133-19.857 4.731-35.658 20.631-40.255 40.505-5.967 25.799 6.6 51.167 29.291 62.191 4.42 25.928 27.051 45.728 54.218 45.728 5.447 0 10.801-.795 15.923-2.343 10.177 13.786 26.424 22.343 44.077 22.343 20.912 0 39.621-11.884 48.851-30h5.094c17.55 0 33.84 8.718 43.575 23.32 2.834 4.251 7.56 6.682 12.481 6.681 1.445 0 2.909-.21 4.346-.645 6.326-1.916 10.653-7.746 10.653-14.356v-10c0-53.444-40.14-97.691-91.854-104.181z"/><g><path d="m133.907 373.204-99.593 57.5c-11.957 6.904-16.054 22.193-9.151 34.151l20 34.641c6.904 11.957 22.193 16.054 34.151 9.151l99.593-57.5z"/><g><g><path d="m164.636 285.925h265v90h-265z" transform="matrix(.866 -.5 .5 .866 -125.654 192.904)"/></g><path d="m432.686 200.704-17.321 10 45 77.942 17.321-10c11.957-6.904 16.054-22.193 9.151-34.151l-20-34.641c-6.904-11.957-22.194-16.053-34.151-9.15z"/></g></g></g></svg>