<?xml version="1.0" encoding="iso-8859-1"?>
<!-- Generator: Adobe Illustrator 19.0.0, SVG Export Plug-In . SVG Version: 6.00 Build 0)  -->
<svg version="1.1" id="Capa_1" xmlns="http://www.w3.org/2000/svg" xmlns:xlink="http://www.w3.org/1999/xlink" x="0px" y="0px"
	 viewBox="0 0 60.038 60.038" style="enable-background:new 0 0 60.038 60.038;" xml:space="preserve">
<g>
	<path d="M58.565,31.997c-2.219-8.122-6.187-15.74-6.622-16.563c-0.048-0.111-0.154-0.526-0.231-0.829
		c-0.403-1.583-0.669-2.492-1.442-2.774L42.616,9.04c-0.959-0.353-2.066-0.212-2.89,0.339c-0.88,0.564-1.871,1.117-2.188,1.226
		h-3.906c0.004,0.71,0.008,1.193,0.012,1.359c0.038,0.222,0.057,0.446,0.057,0.671c0,1.068-0.415,2.072-1.168,2.828
		c-0.753,0.755-1.754,1.171-2.82,1.171c-0.227,0-0.46-0.019-0.694-0.06c-1.583-0.27-2.872-1.512-3.205-3.092
		c-0.113-0.536-0.12-1.073-0.018-1.598c0.003-0.17,0.007-0.623,0.011-1.28h-3.042c-0.363-0.106-1.557-0.719-2.433-1.215
		c-0.849-0.568-1.947-0.699-2.906-0.35l-7.655,2.791c-0.773,0.282-1.039,1.191-1.443,2.774c-0.077,0.304-0.183,0.718-0.221,0.809
		c-0.445,0.843-4.413,8.463-6.632,16.583c-2.636,9.647-1.732,15.961,2.686,18.765c1.014,0.644,2.436,0.527,3.361-0.27l9.102-7.827
		c1.106-0.951,2.518-1.475,3.976-1.475h18.84c1.457,0,2.87,0.523,3.976,1.475l9.102,7.827c0.523,0.45,1.189,0.698,1.877,0.698
		c0.529,0,1.043-0.148,1.484-0.429C60.297,47.958,61.2,41.645,58.565,31.997z M9.766,21.191c0-2.757,2.237-5,4.986-5
		s4.986,2.243,4.986,5s-2.237,5-4.986,5S9.766,23.948,9.766,21.191z M29.925,32.129c0,0.945-0.767,1.715-1.71,1.715h-2.279v2.285
		c0,0.945-0.767,1.715-1.71,1.715h-2.564c-0.943,0-1.71-0.77-1.71-1.715v-2.285h-2.279c-0.943,0-1.71-0.77-1.71-1.715v-2.57
		c0-0.945,0.767-1.715,1.71-1.715h2.279v-2.285c0-0.945,0.767-1.715,1.71-1.715h2.564c0.943,0,1.71,0.77,1.71,1.715v2.285h2.279
		c0.943,0,1.71,0.77,1.71,1.715V32.129z M44.67,15.191c1.101,0,1.994,0.896,1.994,2s-0.893,2-1.994,2c-1.102,0-1.995-0.896-1.995-2
		S43.568,15.191,44.67,15.191z M40.681,19.191c1.102,0,1.994,0.896,1.994,2s-0.893,2-1.994,2c-1.102,0-1.994-0.896-1.994-2
		S39.579,19.191,40.681,19.191z M37.689,36.191c-2.749,0-4.986-2.243-4.986-5s2.237-5,4.986-5s4.986,2.243,4.986,5
		S40.438,36.191,37.689,36.191z M44.67,27.191c-1.102,0-1.995-0.896-1.995-2s0.893-2,1.995-2c1.101,0,1.994,0.896,1.994,2
		S45.771,27.191,44.67,27.191z M48.659,23.191c-1.102,0-1.994-0.896-1.994-2s0.893-2,1.994-2c1.102,0,1.994,0.896,1.994,2
		S49.76,23.191,48.659,23.191z"/>
	<ellipse cx="14.753" cy="21.191" rx="2.992" ry="3"/>
	<polygon points="23.941,25.844 21.947,25.844 21.947,29.844 17.958,29.844 17.958,31.844 21.947,31.844 21.947,35.844 
		23.941,35.844 23.941,31.844 27.93,31.844 27.93,29.844 23.941,29.844 	"/>
	<path d="M29.352,14.603c0.675,0.118,1.31-0.094,1.77-0.554c0.376-0.378,0.584-0.88,0.584-1.414c0-0.127-0.012-0.251-0.036-0.371
		c-0.016-0.082-0.023-0.124-0.034-1.659h-3.837c-0.01,1.486-0.019,1.531-0.038,1.615c-0.06,0.273-0.059,0.56,0.001,0.849
		C27.927,13.84,28.58,14.472,29.352,14.603z"/>
	<ellipse cx="37.689" cy="31.191" rx="2.992" ry="3"/>
</g>
<g>
</g>
<g>
</g>
<g>
</g>
<g>
</g>
<g>
</g>
<g>
</g>
<g>
</g>
<g>
</g>
<g>
</g>
<g>
</g>
<g>
</g>
<g>
</g>
<g>
</g>
<g>
</g>
<g>
</g>
</svg>
