<svg id="Solid" height="512" viewBox="0 0 128 128" width="512" xmlns="http://www.w3.org/2000/svg"><path d="m97 82.591a.442.442 0 0 0 -.5.254c-.808 2.119-5.188 4.95-6.735 5.143a1.483 1.483 0 0 1 -.188.012 1.5 1.5 0 0 1 -.184-2.988c.9-.113 4.6-2 5.439-4.1a.525.525 0 0 0 .027-.291c-1.365-7.778-4.4-19.616-4.712-27.519a1.073 1.073 0 0 0 -.353-.778 2.8 2.8 0 0 0 -2.054-.424c-1.932.036-5.52.1-6.522-4.829a1.577 1.577 0 0 1 .832-1.771 1.5 1.5 0 0 1 2.091 1.086c.491 2.573 1.643 2.556 3.544 2.516 1.175-.018 2.882-.04 3.745 1.327a.569.569 0 0 0 .7.218c4.784-2.041 12.344-7.382 17.332-5.386 4.155 1.662 8.589 8.194 11.783 6.69 2.931-1.38-6.044-18.563-10.375-21.875-9.208-7.042-18.428-10.775-33.542-8.208-14.372 2.44-35.817 42.417-40.98 58.5h-.007c-12.352.374-36.808 3.849-34.048 14.332 1.9 7.225 20.152 6.464 33.46 9.7s45.662 10.847 67.57 3.8c31.366-10.088 28.802-18.91-6.323-25.409zm-20.428 11.409c-.28.014-2.33.107-5.321.107-7.745 0-21.816-.625-27.939-4.873a1.5 1.5 0 1 1 1.71-2.464c7.654 5.311 31.17 4.245 31.406 4.234a1.5 1.5 0 0 1 .144 3z"/></svg>