<svg id="Solid" height="512" viewBox="0 0 128 128" width="512" xmlns="http://www.w3.org/2000/svg"><path d="m72.849 82.62-2.389 5.012c.47 1.034 5.574 9.274 6.238 11.764.837 3.138-2.219 10.838-2.219 10.838s-2.885 1.8-1.288 3.095h4.259c.318 0 6.173-7.559 7.682-12.462a66.375 66.375 0 0 0 1.529-8.056c.186-1.2.548-3.4.909-5.554a7.792 7.792 0 0 0 -4.588-8.434 7.793 7.793 0 0 0 -10.133 3.797z"/><path d="m22.487 82.884s-.291 21.943-3.412 26.487c-3.183 1.969-1.948 3.958-1.948 3.958h5.592s7.106-8.906 8.477-18.561c.2-1.4.813-5.606.813-5.606a6.3 6.3 0 0 0 -9.522-6.278z"/><path d="m112.14 20.73c-3.01 4.77-1.24 11.5-1.42 18.78-.25 9.72-13.34 19.84-18.92 18.67-17.7-4.31-46.19 7.59-63.45-1.63-6.59-3.55-6.18-7.98-11.62-13.19a2.181 2.181 0 0 0 -3.25.44c-1.12 1.7-1.78 6.09-1.78 6.09s-5.95 2.6-6.24 8.52c-.09 1.76-2.7 2.77-3.07 4.62-.25 1.29-.22 5.33 6.65 6.9 5.91 1.34 11.7 8.09 12.94 11.6 4.77 13.57 12.74 10.27 15.99 28.7 0 0-2.71 1.51-2.16 3.1l6.25-.04c2.518-2.2 3.28-12 .917-21.715a.994.994 0 0 1 1.044-1.243c10.469.991 26.366-3.421 35.854-3.77a1.978 1.978 0 0 1 1.691.794c2.409 3.336 6.324 6.568 9.024 8.834a6.607 6.607 0 0 1 2.23 6.3l-1.49 7.74s-2.7 1.63-.99 3.1h4.26c1.2 0 6.88-10.93 6.37-16.4-.3-3.31-2.66-7.73-1.32-13.4a43.165 43.165 0 0 0 -.27-14.39 2.709 2.709 0 0 1 1.2-2.9c5.04-3.1 15.37-11.78 16.77-22.03.89-6.52-1.44-12.92.7-17.46 1.49-3.14 7.63-3.5 7.63-7.71 0-5.86-8.47-6.33-13.54 1.69zm-100.988 37.97a1.229 1.229 0 0 1 -.963.371l-1.411-.1a.558.558 0 0 1 -.517-.6.549.549 0 0 1 .155-.347l.984-1.015a1.218 1.218 0 1 1 1.755 1.69z"/></svg>