<svg height="512" viewBox="0 0 60 57" width="512" xmlns="http://www.w3.org/2000/svg"><g id="Page-1" fill="none" fill-rule="evenodd"><g id="009---Cat" fill="rgb(0,0,0)" fill-rule="nonzero"><ellipse id="Oval" cx="46" cy="40" rx="3" ry="5"/><ellipse id="Oval" cx="14" cy="40" rx="3" ry="5"/><path id="Shape" d="m59.448 50.106-5.662-2.837c2.8461002-3.4432813 4.343733-7.8036174 4.214-12.269 0-17.009-4.552-35-7-35-1.934 0-6.949 8.713-8.01 16.142-.0784244.5467619-.5852381.9264244-1.132.848s-.9264244-.5852381-.848-1.132c.179962-1.1933301.4354755-2.3740364.765-3.535-3.8579979-.9101363-7.8112246-1.3543077-11.775-1.323-3.9637754-.0313077-7.9170021.4128637-11.775 1.323.3295245 1.1609636.585038 2.3416699.765 3.535.0784244.5467619-.3012381 1.0535755-.848 1.132-.5467619.0784244-1.0535755-.3012381-1.132-.848-1.061-7.429-6.076-16.142-8.01-16.142-2.448 0-7 17.991-7 35-.12973299 4.4653826 1.36789978 8.8257187 4.214 12.269l-5.662 2.837c-.49374257.2485281-.69252814.8502574-.444 1.344s.85025743.6925281 1.344.444l6.2-3.108c.194.184.389.366.591.542l-4.075 6.118c-.21069176.2971443-.2431442.6853494-.0847122 1.013351.15843199.3280015.4826847.5439102.84641285.563597s.70939044-.1599627.90229935-.468948l3.988-5.988c5.417 3.849 12.93 5.434 20.18 5.434s14.763-1.585 20.18-5.434l3.988 5.988c.1929089.3089853.5385712.4886348.9022993.468948.3637282-.0196868.6879809-.2355955.8464129-.563597.158432-.3280016.1259796-.7162067-.0847122-1.013351l-4.074-6.118c.2-.176.4-.358.591-.542l6.2 3.108c.4937426.2485281 1.0954719.0497426 1.344-.444s.0497426-1.0954719-.444-1.344zm-45.448-3.106c-2.8 0-5-3.075-5-7s2.2-7 5-7 5 3.075 5 7-2.2 7-5 7zm21 .444v1.556c0 .5522847-.4477153 1-1 1s-1-.4477153-1-1v-1c-1.1487161.0006041-2.2419626-.4939077-3-1.357-.7580374.8630923-1.8512839 1.3576041-3 1.357v1c0 .5522847-.4477153 1-1 1s-1-.4477153-1-1v-1.556c-1.0444005-.5976009-1.7616926-1.6363311-1.9505877-2.8246988-.1888951-1.1883678.1709622-2.3983144.9785877-3.2903012.3705831-.4095191 1.0029808-.441083 1.4125-.0705.4095191.3705831.441083 1.0029809.0705 1.4125-.3293187.3642594-.5114504.8379445-.511 1.329 0 1.1045695.8954305 2 2 2s2-.8954305 2-2c0-.5522847.4477153-1 1-1s1 .4477153 1 1c0 1.1045695.8954305 1.9999999 2 1.9999999s2-.8954304 2-1.9999999c.0004504-.4910555-.1816813-.9647406-.511-1.329-.2397252-.2649124-.3199113-.6375935-.210353-.9776578.1095582-.3400644.3922165-.5958481.7415-.671s.7121278.0417454.951853.3066578c.8076255.8919868 1.1674828 2.1019334.9785877 3.2903012-.1888951 1.1883677-.9061872 2.2270979-1.9505877 2.8246988zm11-.444c-2.8 0-5-3.075-5-7s2.2-7 5-7 5 3.075 5 7-2.2 7-5 7z"/></g></g></svg>