<?xml version="1.0" encoding="iso-8859-1"?>
<!-- Generator: Adobe Illustrator 18.0.0, SVG Export Plug-In . SVG Version: 6.00 Build 0)  -->
<!DOCTYPE svg PUBLIC "-//W3C//DTD SVG 1.1//EN" "http://www.w3.org/Graphics/SVG/1.1/DTD/svg11.dtd">
<svg version="1.1" id="Capa_1" xmlns="http://www.w3.org/2000/svg" xmlns:xlink="http://www.w3.org/1999/xlink" x="0px" y="0px"
	 viewBox="0 0 57.001 57.001" style="enable-background:new 0 0 57.001 57.001;" xml:space="preserve">
<path d="M56.164,23.862c-1.292-6.135-4.247-7.424-6.59-7.424c0,0-0.001,0-0.002,0c-1.236,0.02-2.496,0.522-3.644,1.453
	c-0.822,0.664-1.566,0.717-2.411,0.186c-0.793-0.502-1.353-1.399-1.497-2.401c-1.307-9.077-5.764-12.989-9.273-14.672
	c-2.584-1.241-5.886-1.243-8.476-0.002c-3.517,1.685-7.983,5.598-9.291,14.674c-0.144,1-0.702,1.896-1.493,2.398
	c-0.847,0.535-1.592,0.484-2.415-0.184c-1.149-0.931-2.41-1.433-3.734-1.453c-2.253,0-5.211,1.288-6.516,7.506
	C0.764,24.416-0.63,35.58,0.345,40.692c0.143,0.747,0.775,1.27,1.54,1.27c0.623,0,1.169-0.354,1.425-0.922
	c0.74-1.641,2.052-4.046,4.098-6.191c0.151-0.159,0.292-0.151,0.415,0.018c0.633,0.86,1.262,1.563,1.868,2.09
	c1.17,1.018,3.037,0.979,4.171-0.081c0.2-0.188,0.396-0.389,0.586-0.604c-0.465,6.422,0.159,17.192,2.569,19.863
	c0.593,0.657,1.245,0.795,1.688,0.795c0.604,0,1.231-0.253,1.867-0.751c0.212-0.126,0.104-0.638,1.275-1.108
	c1.29-0.519,2.785-0.421,3.91,0.258c0.467,0.283,1.978,0.518,2.498,0.691c0.02,0.021,0.041,0.043,0.062,0.063
	c0.196,0.184,0.458,0.291,0.725,0.271c0.146-0.006,0.289-0.022,0.459-0.047c0.151,0.022,0.304,0.041,0.46,0.047
	c0.279,0.023,0.531-0.087,0.726-0.271c0.021-0.021,0.042-0.041,0.061-0.063c0.52-0.174,0.03-0.408,0.496-0.69
	c1.128-0.68,2.622-0.777,3.911-0.259c1.17,0.471,3.063,0.982,3.275,1.108c0.635,0.498,1.263,0.751,1.867,0.751
	c0.443,0,1.095-0.138,1.688-0.796c2.411-2.671,1.035-13.439,0.569-19.862c0.19,0.216,0.386,0.417,0.585,0.604
	c1.134,1.061,3,1.099,4.172,0.081c0.607-0.527,1.235-1.23,1.867-2.09c0.139-0.188,0.288-0.151,0.416-0.018
	c2.045,2.145,3.357,4.551,4.097,6.191c0.257,0.568,0.803,0.922,1.425,0.922c0.764,0,1.397-0.522,1.54-1.27
	C57.631,35.58,56.237,24.416,56.164,23.862z M19.001,16.011v-1.969c0-1.663,1.353-3.016,3.016-3.016h1.968
	c1.663,0,3.016,1.353,3.016,3.016v1.969c0,1.663-1.353,3.016-3.016,3.016h-1.968C20.354,19.026,19.001,17.674,19.001,16.011z
	 M34.082,28.515c-0.543,1.494-1.462,3.582-2.759,5.048c-0.66,0.744-1.606,1.171-2.599,1.171s-1.939-0.427-2.598-1.171
	c-1.292-1.46-2.211-3.542-2.754-5.031c-0.486-1.334-0.494-2.721-0.02-3.902c1.347-3.367,5.209-3.406,5.373-3.406
	c0.179,0.003,4.028,0.101,5.372,3.43C34.568,25.821,34.563,27.193,34.082,28.515z M38.001,16.011c0,1.663-1.353,3.016-3.016,3.016
	h-1.968c-1.663,0-3.016-1.353-3.016-3.016v-1.969c0-1.663,1.353-3.016,3.016-3.016h1.968c1.663,0,3.016,1.353,3.016,3.016V16.011z"
	/>
<g>
</g>
<g>
</g>
<g>
</g>
<g>
</g>
<g>
</g>
<g>
</g>
<g>
</g>
<g>
</g>
<g>
</g>
<g>
</g>
<g>
</g>
<g>
</g>
<g>
</g>
<g>
</g>
<g>
</g>
</svg>
