<svg id="Capa_1" enable-background="new 0 0 512 512" height="512" viewBox="0 0 512 512" width="512" xmlns="http://www.w3.org/2000/svg"><g><path d="m196 120h5v24.667h30v-24.667h5c52.467 0 95-42.533 95-95v-10c0-8.284-6.716-15-15-15h-10c-41.801 0-77.296 26.997-90 64.507-12.704-37.51-48.199-64.507-90-64.507h-10c-8.284 0-15 6.716-15 15v10c0 52.467 42.533 95 95 95z"/><path d="m401.632 404.591c-2.244-1.293-22.516-13.136-43.391-30.922-34.665-29.537-52.241-59.877-52.241-90.177 0-23.024 9.368-43.9 24.491-59.019-11.014-2.914-22.573-4.473-34.491-4.473h-29v-30.333c0-8.284-6.716-15-15-15h-72c-8.284 0-15 6.716-15 15v30.333h-29c-74.439 0-135 60.561-135 135l.001 64.737c-.001 50.955 41.307 92.263 92.262 92.263 21.691 0 42.689-7.643 59.305-21.585l40.096-33.645-45.131-37.87c-5.808-4.874-10.61-10.497-14.415-16.6l-22.55 18.921c-6.346 5.325-15.807 4.497-21.132-1.849-5.325-6.346-4.497-15.807 1.849-21.132l31.553-26.476c-1.672-17.967 3.552-36.568 16.068-51.483 24.85-29.615 69.003-33.478 98.618-8.628l103.191 86.587c6.346 5.325 7.174 14.786 1.849 21.132-5.325 6.346-14.786 7.174-21.132 1.849l-103.191-86.587c-16.923-14.2-42.153-11.993-56.354 4.93-14.2 16.923-11.993 42.153 4.93 56.354l112.615 94.496c16.617 13.943 37.614 21.586 59.306 21.586 50.955 0 92.262-41.308 92.262-92.263v-9.969c-2.471.43-4.978.67-7.5.67-7.664 0-15.227-2.021-21.868-5.847z"/><path d="m457.508 230c-12.705 0-24.6 4.416-34.008 12.286-9.407-7.87-21.303-12.286-34.008-12.286-29.495 0-53.492 23.996-53.492 53.492 0 21.109 14.029 43.767 41.698 67.342 19.167 16.331 38.11 27.302 38.907 27.761 4.268 2.458 9.522 2.458 13.791 0 .797-.459 19.741-11.43 38.907-27.761 27.668-23.576 41.697-46.233 41.697-67.342 0-29.496-23.997-53.492-53.492-53.492z"/></g></svg>