<svg id="b" height="512" viewBox="0 0 64 64" width="512" xmlns="http://www.w3.org/2000/svg" data-name="fill"><g id="u" data-name="chimney copy 3"><path d="m2 29.089v-6.089c0-.349.182-.673.48-.854.297-.182.668-.194.979-.034l20.541 10.624v-.056l27 14.002v.02l10.459 5.41c.332.172.541.515.541.889v7.352zm49-6.045v21.385l-27-14.002v-7.383zm-25 3.957h6c1.315-.022 1.314-1.978 0-2h-6zm13 3c0-.553-.448-1-1-1h-7c-1.314.022-1.315 1.978 0 2h7c.552 0 1-.447 1-1zm10 4h-6c-1.315.022-1.314 1.978 0 2h6zm0-9h-4c-1.315.022-1.314 1.978 0 2h4zm11.836 37h-57.836c-.552 0-1-.447-1-1v-29.658l58.836 30.657zm-38.836-41.001h31c.552 0 1-.447 1-1v-6c0-.553-.448-1-1-1h-31c-.552 0-1 .447-1 1v6c0 .553.448 1 1 1zm26.342-11.753c-.416.364-.458.996-.094 1.411.364.417.997.457 1.411.095 1.888-1.542 1.61-3.614.062-4.947-.895-.883-.982-1.207-.062-2.053.416-.364.458-.996.094-1.411-.363-.416-.996-.459-1.411-.095-1.888 1.543-1.61 3.615-.061 4.948.895.884.981 1.206.061 2.052zm-24 0c-.416.364-.458.996-.094 1.411.364.417.997.457 1.411.095 1.888-1.542 1.61-3.614.062-4.947-.895-.883-.982-1.207-.062-2.053.416-.364.458-.996.094-1.411-.364-.416-.996-.459-1.411-.095-1.888 1.543-1.61 3.615-.061 4.948.895.884.981 1.206.061 2.052zm16 0c-.416.364-.458.996-.094 1.411.364.417.997.457 1.411.095 1.888-1.542 1.61-3.614.062-4.947-.895-.883-.982-1.207-.062-2.053.416-.364.458-.996.094-1.411-.363-.416-.996-.459-1.411-.095-1.888 1.543-1.61 3.615-.061 4.948.895.884.981 1.206.061 2.052zm-8 0c-.416.364-.458.996-.094 1.411.364.417.997.457 1.411.095 1.888-1.542 1.61-3.614.062-4.947-.895-.883-.982-1.207-.062-2.053.416-.364.458-.996.094-1.411-.363-.416-.996-.459-1.411-.095-1.888 1.543-1.61 3.615-.061 4.948.895.884.981 1.206.061 2.052z"/></g></svg>