<?xml version="1.0" encoding="iso-8859-1"?>
<!-- Generator: Adobe Illustrator 19.0.0, SVG Export Plug-In . SVG Version: 6.00 Build 0)  -->
<svg version="1.1" id="Capa_1" xmlns="http://www.w3.org/2000/svg" xmlns:xlink="http://www.w3.org/1999/xlink" x="0px" y="0px"
	 viewBox="0 0 512 512" style="enable-background:new 0 0 512 512;" xml:space="preserve">
<g>
	<g>
		<path d="M451.994,59.998c-13.123,0-20.706,3.66-32.958,8.364c-13.802-21.825-28.406-38.056-58.416-38.056
			c-12.735,0-19.683,3.494-31.566,8.071C315.101,16.333,301.91,0,271.999,0c-33.09,0-59.998,26.908-59.998,59.998
			s26.908,59.998,59.998,59.998c13.123,0,20.706-3.662,32.958-8.364c13.887,21.959,28.446,38.041,58.445,38.041
			c12.658,0,19.736-3.506,31.552-8.042c13.973,22.094,27.191,38.363,57.039,38.363c33.09,0,59.998-26.908,59.998-59.998
			S485.084,59.998,451.994,59.998z"/>
	</g>
</g>
<g>
	<g>
		<path d="M451.994,209.994c-8.629,0-16.906-1.628-24.936-3.964L0.007,335.234v46.2l511.985-143.435v-51.413
			C496.033,200.978,475.128,209.994,451.994,209.994z"/>
	</g>
</g>
<g>
	<g>
		<path d="M0.007,412.602v84.383c0,10.287,10.042,17.327,19.467,14.312l481.986-151.996c6.27-1.948,10.532-7.749,10.532-14.312
			v-75.822L0.007,412.602z"/>
	</g>
</g>
<g>
	<g>
		<path d="M382.987,177.475c-6.357,1.465-12.905,2.197-19.584,2.197c-27.362,0-53.333-12.1-70.296-32.167
			c-6.885,1.655-13.945,2.49-21.107,2.49c-34.787,0-64.682-20.049-79.656-49.005L6.716,301.831l384.566-116.291
			C388.466,182.908,385.474,180.489,382.987,177.475z"/>
	</g>
</g>
<g>
</g>
<g>
</g>
<g>
</g>
<g>
</g>
<g>
</g>
<g>
</g>
<g>
</g>
<g>
</g>
<g>
</g>
<g>
</g>
<g>
</g>
<g>
</g>
<g>
</g>
<g>
</g>
<g>
</g>
</svg>
