<?xml version="1.0" encoding="iso-8859-1"?>
<!-- Generator: Adobe Illustrator 19.0.0, SVG Export Plug-In . SVG Version: 6.00 Build 0)  -->
<svg version="1.1" id="Capa_1" xmlns="http://www.w3.org/2000/svg" xmlns:xlink="http://www.w3.org/1999/xlink" x="0px" y="0px"
	 viewBox="0 0 426.667 426.667" style="enable-background:new 0 0 426.667 426.667;" xml:space="preserve">
<g>
	<g>
		<g>
			<path d="M299.307,206.827h-32.64v0.107c-21.76,0-39.467-20.907-39.467-42.667c0-21.76,17.707-37.333,39.467-37.333v-32
				c-39.36,0-71.467,32-71.467,71.467s32,71.467,71.467,71.467v-0.107h32.64c22.293,0,42.027,15.787,42.027,43.84v27.733h32V274.24
				C373.333,235.84,339.2,206.827,299.307,206.827z"/>
			<rect x="341.333" y="330.667" width="32" height="64"/>
			<rect x="0" y="330.667" width="320" height="64"/>
			<path d="M359.467,154.24c13.12-12.907,21.333-30.933,21.333-50.773C380.8,64,348.693,32,309.333,32v32
				c21.76,0,39.467,17.707,39.467,39.467c0,21.76-17.707,39.467-39.467,39.467v32c47.893,0,85.333,38.933,85.333,86.827v47.573h32
				v-47.68C426.667,214.187,399.36,173.227,359.467,154.24z"/>
			<rect x="394.667" y="330.667" width="32" height="64"/>
		</g>
	</g>
</g>
<g>
</g>
<g>
</g>
<g>
</g>
<g>
</g>
<g>
</g>
<g>
</g>
<g>
</g>
<g>
</g>
<g>
</g>
<g>
</g>
<g>
</g>
<g>
</g>
<g>
</g>
<g>
</g>
<g>
</g>
</svg>
