<svg id="Capa_1" enable-background="new 0 0 511.931 511.931" height="512" viewBox="0 0 511.931 511.931" width="512" xmlns="http://www.w3.org/2000/svg"><g><path d="m299.448 120.931h16.518c6.958 0 13.008-4.79 14.604-11.558s-1.67-13.755-7.896-16.86c-68.842-34.407-76.474-71.428-82.485-83.328-4.072-12.246-24.375-12.246-28.447 0-6.035 11.946-13.779 48.989-82.485 83.328-6.226 3.105-9.492 10.093-7.896 16.86s7.646 11.558 14.604 11.558h16.518c6.969 34.191 37.266 60 73.482 60s66.514-25.809 73.483-60z"/><path d="m405.966 30.931c-30.967 0-45 57.539-45 75 0 21.42 15.068 39.322 35.145 43.837l6.603 13.204-22.354 22.354c-5.859 5.859-5.859 15.352 0 21.211l23.994 23.994-9.617 38.485c-11.296-3.807-20.094-13.158-22.815-25.404l-2.633-11.867c-6.59-29.689-32.919-50.814-63.329-50.814h-6.744c-.165.161-.37.275-.535.434-6.345 34.64-27.092 64.724-57.717 83.093v247.473h59.852c8.873 0 15.807-7.663 14.925-16.494l-20.709-208.012c-.82-8.247 5.186-15.601 13.433-16.421 8.496-.659 15.601 5.2 16.421 13.433 2.554 2.944 11.098 48.528 66.079 47.086v165.409c0 8.291 6.709 15 15 15s15-6.709 15-15v-209.156l14.546-58.213c1.289-5.112-.22-10.518-3.94-14.238l-19.395-19.395 19.395-19.395c4.57-4.57 5.698-11.543 2.813-17.314l-6.985-13.971c13.965-7.646 23.568-22.306 23.568-39.32-.001-17.46-14.034-74.999-45.001-74.999z"/><path d="m82.822 243.611-21.651 129.859c-.732 4.351.498 8.789 3.354 12.158 2.842 3.369 7.031 5.303 11.44 5.303h26.852c7.705 0 14.149-5.746 14.916-13.412 3.157-31.566 9.622-96.196 9.311-93.082.835-8.232 8.086-14.121 16.421-13.433 8.247.82 14.253 8.174 13.433 16.421l-20.707 208.012c-.883 8.831 6.052 16.494 14.925 16.494h59.85v-247.473c-30.623-18.369-51.37-48.453-57.715-83.09-.049-.04-.088-.07-.139-.11-35.158 1.718-64.447 27.265-70.29 62.353z"/><path d="m258.772 205.148c-10.375 3.468-21.275 5.782-32.805 5.782-11.534 0-22.438-2.311-32.809-5.786 7.751 13.636 18.918 25.283 32.809 33.677 13.888-8.391 25.054-20.039 32.805-33.673z"/></g></svg>