<svg height="512" viewBox="0 0 460.582 475.034" width="512" xmlns="http://www.w3.org/2000/svg"><g fill="rgb(0,0,0)"><path d="m283.621 55.981c0 18.101-8.573 35.769-23.382 46.342-14.592 10.418-33.95 12.576-50.413 5.389-16.373-7.148-28.134-22.537-31.687-39.935-3.684-18.04 1.406-37.39 13.987-50.918 12.186-13.102 30.464-19.397 48.097-15.909 17.428 3.448 31.942 16.056 38.821 32.298 3.038 7.173 4.577 14.946 4.577 22.733z"/><path d="m439.794 126.589c-23.24-.132-46.489-.84-69.707-1.858-5.611-.246-11.222-.49-16.833-.739-5.649-.251-11.323-.216-16.977-.314-12.991-.226-25.98-.515-38.97-.812-12.489-.285-24.982-.628-37.466-1.092-3.017-.112-6.034-.224-9.051-.336-1.292-.048-2.585-.096-3.877-.144-1.461-.054-2.856-.247-4.307-.407-2.929-.323-5.907-.195-8.848-.313-2.566-.102-5.247-.115-7.808.05-2.543.035-5.127-.019-7.656.232-1.344.133-2.645.364-3.997.415-1.386.051-2.772.103-4.159.154-6.043.225-12.085.447-18.13.636-12.644.395-25.29.727-37.938 1.015-13.039.298-26.08.538-39.12.764-11.23.195-22.443.838-33.667 1.256-12.368.461-24.738.879-37.112 1.162-5.749.131-11.502.22-17.252.289-4.226.05-8.499-.252-12.573 1.096-8.622 2.854-14.531 11.224-14.344 20.301.186 9.042 6.412 17.151 15.105 19.657 4.142 1.194 8.572.808 12.832.871 5.763.085 11.528.159 17.29.3 12.405.302 24.806.718 37.206 1.18 5.512.205 11.022.453 16.532.694 3.282.144 6.583.408 9.869.434-.253-.002-.545.036-.793-.009 1.407.255 2.966.216 4.384.324 3.225.246 6.449.491 9.674.737 6.515.496 13.029 1.013 19.544 1.523 6.448.504 12.894 1.043 19.341 1.57 3.232.264 6.463.544 9.694.821.652.056.895-.937 1.189-1.484.329-.612.663-1.222 1.002-1.829.73-1.31 1.479-2.61 2.249-3.897 1.462-2.445 2.986-4.863 4.668-7.163.885-1.21 1.948-2.936 3.339-3.638-2.092 6.175-4.212 12.342-6.226 18.543.264.024-.115.933-.187 1.19-.133.475-.264.95-.394 1.426-.284 1.045-.559 2.092-.825 3.142-.525 2.073-1.016 4.155-1.474 6.244-.968 4.415-1.789 8.862-2.479 13.329-1.553 10.054-2.444 20.204-2.844 30.366-.472 11.984-.264 23.99.42 35.961.179 3.138.396 6.273.705 9.401.044.45.603 3.435.279 3.552-.579.209-1.158.418-1.737.627-7.821 2.823-15.643 5.645-23.464 8.468-12.136 4.38-24.272 8.759-36.408 13.139-10.458 3.774-20.916 7.548-31.374 11.322-2.727.984-5.454 1.968-8.181 2.952-3.297 1.19-6.636 2.255-9.627 4.133-7.627 4.788-12.496 13.188-12.854 22.185-.066 1.664-.132 3.328-.199 4.992-.392 9.846-.783 19.693-1.175 29.539-.518 13.033-1.037 26.067-1.555 39.1-.382 9.615-.765 19.231-1.147 28.846-.066 1.648-.164 3.299-.191 4.948-.151 9.212 5.448 17.87 13.911 21.51 8.537 3.672 18.683 1.758 25.3-4.761 3.781-3.725 5.755-8.41 6.718-13.536 1.674-8.909 3.347-17.817 5.021-26.726 2.361-12.568 4.722-25.135 7.083-37.703.842-4.48 1.683-8.96 2.525-13.439.232-1.233.463-2.466.695-3.699.021-.112.107-1.054.224-1.086 5.173-1.431 10.347-2.861 15.52-4.292 11.337-3.135 22.675-6.27 34.012-9.405 12.418-3.434 24.835-6.867 37.253-10.301 8.414-2.327 16.828-4.653 25.243-6.98.882-.244 1.765-.488 2.647-.732 1.263-.349 2.455-.045 3.784.04 6.006.383 12.088.363 18.086-.127 1.491-.122 2.98-.279 4.463-.48.734-.099 1.466-.209 2.196-.331.363-.061.726-.124 1.088-.19.365.316.731.631 1.097.946 2.385 2.055 4.777 4.101 7.171 6.145 14.757 12.601 29.649 25.037 44.569 37.444-.039-.04-.082-.079-.119-.122.06.069.273.2.287.286-.074-.428-1.24-1.259-1.519-1.542 14.419 14.131 28.849 28.25 43.419 42.225 14.966 14.355 29.996 28.648 45.297 42.647 1.251 1.145 2.482 2.333 3.852 3.338 3.931 2.884 8.757 4.454 13.63 4.461 9.746.014 18.679-6.364 21.828-15.584 2.56-7.495 1.004-15.671-3.814-21.89-3.798-4.902-7.64-9.769-11.496-14.625-15.441-19.448-31.206-38.634-47.019-57.779-6.218-7.527-12.509-14.995-18.77-22.486-4.685-5.605-9.898-10.82-14.851-16.188-8.649-9.373-17.377-18.673-26.149-27.931-4.251-4.487-8.517-8.959-12.796-13.419-.535-.557-1.069-1.114-1.605-1.67-.263-.274-.526-.547-.789-.82.044-.345.087-.69.129-1.035.187-1.538.353-3.079.5-4.621.302-3.17.51-6.347.686-9.526 1.22-22.03.87-44.273-2.556-66.104-1.171-7.462-2.711-14.869-4.692-22.16-2.204-7.1-4.675-14.119-7.06-21.159 1.195.603 2.117 2.012 2.898 3.044 1.467 1.939 2.793 3.984 4.072 6.051 1.509 2.439 2.941 4.927 4.3 7.453.291.541.539 1.54 1.182 1.485.761-.065 1.522-.13 2.283-.195 1.674-.143 3.349-.287 5.023-.43 12.924-1.106 25.859-2.09 38.79-3.101 3.64-.277 7.279-.554 10.919-.832 1.918-.146 3.983-.1 5.884-.439-.249.044-.54.007-.793.009 4.191-.033 8.399-.37 12.585-.553 6.379-.28 12.759-.536 19.139-.773 12.212-.455 24.437-.917 36.657-1.076 5.547-.072 11.094-.218 16.642-.244 4.257-.02 8.269-.25 12.166-2.181 8.18-4.053 12.865-13.206 11.364-22.212-1.647-9.907-10.469-17.392-20.506-17.45z"/></g></svg>