<svg enable-background="new 0 0 512 512" height="512" viewBox="0 0 512 512" width="512" xmlns="http://www.w3.org/2000/svg"><g id="_x33_5_Vodka"><g><path d="m307.194 446.478h-7.371c-10.688 0-19.313-8.698-19.313-19.313v-97.672c0-27.348 10.983-53.517 30.149-71.65 23.589-22.483 36.046-60.962 36.046-111.309 0-40.395-7.888-84.772-21.598-121.629-1.106-2.875-3.833-4.791-6.929-4.791h-124.43c-3.096 0-5.824 1.917-6.929 4.791-13.711 36.784-21.525 81.086-21.525 121.629 0 50.421 12.458 88.9 36.046 111.309 19.166 18.207 30.149 44.302 30.149 71.724v97.598c0 10.615-8.698 19.313-19.313 19.313h-7.445c-20.935 0-38.037 17.028-38.037 38.037 0 4.054 3.317 7.371 7.371 7.371h163.795c4.054 0 7.371-3.317 7.371-7.371 0-21.009-17.028-38.037-38.037-38.037zm-124.503 30.665c3.096-9.214 11.794-15.923 22.041-15.923h7.445c18.723 0 34.056-15.259 34.056-34.056v-97.598c0-31.402-12.679-61.404-34.72-82.413-20.64-19.534-31.476-54.327-31.476-100.62 0-37.078 6.856-77.473 18.871-111.677h114.11c12.089 34.277 18.945 74.673 18.945 111.677 0 46.219-10.91 81.012-31.476 100.62-22.114 20.935-34.72 50.936-34.72 82.339v97.672c0 18.797 15.259 34.056 34.056 34.056h7.371c10.32 0 19.018 6.708 22.114 15.923z"/><path d="m317.22 146.534c0 48.43-12.605 101.284-61.257 101.284-48.43 0-61.183-52.632-61.183-101.284 0-3.759.074-7.592.221-11.426.148-3.907 3.391-7.076 7.371-7.076h107.254c3.98 0 7.224 3.17 7.371 7.076.149 3.833.223 7.667.223 11.426z"/></g></g></svg>