<svg id="Layer_1" enable-background="new 0 0 512 512" height="512" viewBox="0 0 512 512" width="512" xmlns="http://www.w3.org/2000/svg"><g><path d="m177.613 421.5-10.125 30.375h-31.988c-8.284 0-15 6.716-15 15s6.716 15 15 15h241c8.284 0 15-6.716 15-15s-6.716-15-15-15h-31.988l-10.125-30.375z"/><path d="m0 358.563c0 18.162 14.776 32.937 32.937 32.937h446.125c18.162 0 32.938-14.775 32.938-32.938v-27.312h-512z"/><path d="m512 63.063c0-18.162-14.776-32.938-32.938-32.938h-446.125c-18.161 0-32.937 14.775-32.937 32.938v238.187h512zm-325.654 148.458c5.864 5.852 5.874 15.349.022 21.213-2.93 2.936-6.774 4.404-10.618 4.404-3.834 0-7.667-1.461-10.596-4.383l-40.25-40.167c-2.82-2.813-4.404-6.634-4.404-10.617s1.584-7.804 4.404-10.617l40.25-40.167c5.864-5.852 15.361-5.844 21.213.021 5.852 5.864 5.842 15.361-.022 21.213l-29.61 29.55zm103.154-63.009-40.167 80.334c-2.628 5.256-7.926 8.295-13.428 8.295-2.254 0-4.543-.51-6.696-1.587-7.41-3.704-10.413-12.715-6.708-20.124l40.167-80.334c3.705-7.409 12.715-10.415 20.125-6.708 7.408 3.704 10.412 12.715 6.707 20.124zm97.596 44.076-40.25 40.167c-2.928 2.922-6.762 4.383-10.596 4.383-3.844 0-7.688-1.468-10.618-4.404-5.852-5.864-5.842-15.361.022-21.213l29.61-29.55-29.61-29.55c-5.864-5.852-5.874-15.349-.022-21.213 5.853-5.864 15.349-5.873 21.213-.021l40.25 40.167c2.82 2.813 4.404 6.634 4.404 10.617s-1.583 7.803-4.403 10.617z"/></g></svg>