<?xml version="1.0" encoding="iso-8859-1"?>
<!-- Generator: Adobe Illustrator 16.0.0, SVG Export Plug-In . SVG Version: 6.00 Build 0)  -->
<!DOCTYPE svg PUBLIC "-//W3C//DTD SVG 1.1//EN" "http://www.w3.org/Graphics/SVG/1.1/DTD/svg11.dtd">
<svg version="1.1" id="Capa_1" xmlns="http://www.w3.org/2000/svg" xmlns:xlink="http://www.w3.org/1999/xlink" x="0px" y="0px"
	 width="481.75px" height="481.75px" viewBox="0 0 481.75 481.75" style="enable-background:new 0 0 481.75 481.75;"
	 xml:space="preserve">
<g>
	<g id="_x36_5_30_">
		<g>
			<circle cx="240.876" cy="130.292" r="50.279"/>
			<path d="M455.362,27.768c-4.006,0-7.57,1.853-9.906,4.744v-8.477c0-7.026-5.691-12.722-12.719-12.722
				c-5.142,0-9.563,3.05-11.568,7.437v-6.029c0-7.024-5.695-12.72-12.719-12.72c-7.029,0-12.726,5.696-12.726,12.72v39.706h-46.911
				c-3.031-6.854-10.152-11.32-18.017-10.52c-6.555,0.688-11.824,4.895-14.313,10.52H165.271c-2.488-5.625-7.76-9.832-14.314-10.52
				c-7.865-0.801-14.984,3.665-18.016,10.52H86.029V12.72C86.029,5.696,80.332,0,73.304,0c-7.023,0-12.717,5.696-12.717,12.72v6.029
				c-2.01-4.387-6.432-7.437-11.57-7.437c-7.025,0-12.721,5.695-12.721,12.722v8.478c-2.334-2.892-5.9-4.744-9.904-4.744
				c-7.025,0-12.725,5.695-12.725,12.722v49.312c0,7.024,5.699,12.72,12.725,12.72c4.004,0,7.57-1.852,9.904-4.745v8.48
				c0,7.024,5.695,12.72,12.721,12.72c5.139,0,9.561-3.05,11.57-7.437v6.028c0,7.024,5.693,12.72,12.717,12.72
				c7.027,0,12.725-5.695,12.725-12.72V77.866h43.855c-1.734,31.823-1.367,87.949,19.947,111.313
				c16.098,17.644,33.611,27.786,45.289,33.155v90.037c-25.604,7.097-45.365,21.189-62.311,43.779
				c-22.859,30.483-23.553,90.421-23.461,102.128C109.45,471.28,120.024,481.75,133,481.75c0.063,0,0.133,0,0.193,0
				c13.07-0.104,23.576-10.78,23.475-23.849c-0.176-21.824,4.152-60.232,13.996-73.356c14.041-18.712,30.723-30.336,70.211-30.452
				c39.496,0.115,56.172,11.74,70.213,30.452c9.842,13.124,14.17,51.532,13.994,73.356c-0.101,13.067,10.404,23.743,23.475,23.849
				c0.063,0,0.131,0,0.193,0c12.979,0,23.553-10.47,23.652-23.472c0.094-11.707-0.601-71.645-23.459-102.128
				c-16.945-22.59-36.709-36.683-62.312-43.779v-90.037c11.676-5.37,29.191-15.512,45.287-33.155
				c21.316-23.364,21.682-79.49,19.949-111.313h43.854v39.706c0,7.024,5.695,12.72,12.726,12.72c7.022,0,12.719-5.695,12.719-12.72
				v-6.028c2.006,4.386,6.428,7.437,11.568,7.437c7.026,0,12.719-5.696,12.719-12.72v-8.479c2.336,2.893,5.899,4.745,9.906,4.745
				c7.026,0,12.723-5.696,12.723-12.72V40.49C468.085,33.463,462.39,27.768,455.362,27.768z M305.704,165.261
				c-11.121,12.19-29.635,23.104-31.471,23.689s-12.715-2.748-33.357-2.748c-20.645,0-30.07,2.996-33.357,2.748
				s-20.348-11.499-31.471-23.689c-9.701-10.633-12.746-50.6-10.621-87.395h150.898
				C318.452,114.661,315.405,154.628,305.704,165.261z"/>
		</g>
	</g>
</g>
<g>
</g>
<g>
</g>
<g>
</g>
<g>
</g>
<g>
</g>
<g>
</g>
<g>
</g>
<g>
</g>
<g>
</g>
<g>
</g>
<g>
</g>
<g>
</g>
<g>
</g>
<g>
</g>
<g>
</g>
</svg>
