<svg id="Layer_3" enable-background="new 0 0 64 64" height="512" viewBox="0 0 64 64" width="512" xmlns="http://www.w3.org/2000/svg"><path d="m55 18.364c0 .934-.259 1.82-.704 2.612-.19-.58-.296-1.186-.296-1.805v-1.171c0-.321-.154-.623-.416-.811-.261-.189-.597-.239-.901-.138-1.49.496-3.104.115-4.212-.994l-2.001-2.001c.915-.675 2.007-1.056 3.166-1.056 2.958 0 5.364 2.406 5.364 5.364zm-18.616-5.516 1.428-3.212 7.274-5.657c.81-.632 1.823-.979 2.851-.979.586 0 1.063.477 1.063 1.063 0 .307-.132.599-.363.801l-7.295 6.383c-.112.099-.202.221-.26.358l-1.788 4.173-3.903-.488c.31-.821.636-1.638.993-2.442zm-27.384 48.152c0-1.103.897-2 2-2h4.666l-.461 2zm34 0h-5.153l-.333-2h3.486c1.103 0 2 .897 2 2zm-3-10.819v6.819h-2.82l-1.194-7.165c-.034-.206-.132-.395-.279-.542l-8-8c-.372-.373-.969-.392-1.366-.045l-8 7c-.158.138-.269.323-.316.527l-1.897 8.225h-3.975l1.802-12.611 5.272-7.19c1.149-1.567 2.393-3.044 3.708-4.449l9.101 7.001c-.63.55-1.036 1.349-1.036 2.249 0 1.654 1.346 3 3 3h4c.019 0 .036-.004.055-.004zm2.221-10.298c-.574 1.864-2.27 3.117-4.221 3.117h-4c-.551 0-1-.449-1-1s.449-1 1-1h3c1.651 0 3.033-1.237 3.214-2.877l.458-4.123h3.358zm2.76-8.972-.335 1.089h-3.751l.099-.89-1.987-.221-.297 2.667-4.816 5.1-9.551-7.347c2.479-2.433 5.21-4.6 8.188-6.461.243-.152.41-.401.457-.684.393-2.357.988-4.674 1.735-6.942l3.752.469-.392.914c-.182.424-.05.917.319 1.194l3.02 2.265c.541 1.542 1.577 2.851 2.922 3.732zm3.383-5.911c-2.958 0-5.364-2.406-5.364-5.364 0-1.433.558-2.78 1.571-3.793l.429-.429 2.057 2.057c1.325 1.325 3.136 1.95 4.943 1.763.01 1.221.316 2.406.867 3.485l-.71.71c-1.013 1.013-2.36 1.571-3.793 1.571z"/></svg>