<?xml version="1.0" encoding="iso-8859-1"?>
<!-- Generator: Adobe Illustrator 19.0.0, SVG Export Plug-In . SVG Version: 6.00 Build 0)  -->
<svg version="1.1" id="Capa_1" xmlns="http://www.w3.org/2000/svg" xmlns:xlink="http://www.w3.org/1999/xlink" x="0px" y="0px"
	 viewBox="0 0 512 512" style="enable-background:new 0 0 512 512;" xml:space="preserve">
<g>
	<g>
		<path d="M457.118,393.54L457.118,393.54l-43.393-42.057v-134.58c28.055-6.77,48.966-32.068,48.966-62.172v-16.623h-30v16.623
			c0,13.346-7.741,24.914-18.966,30.464v-72.011h-30v110.673c-11.224-5.55-18.965-17.117-18.965-30.463v-16.623h-30v16.623
			c0,30.104,20.91,55.402,48.965,62.171v66.846c-11.288-10.889-26.133-16.886-41.823-16.886c-15.739,0-30.631,6.032-41.933,16.986
			l-1.313,1.273l71.971,69.756h-43.106l-87.532-84.84c-13.149-12.744-30.475-19.763-48.787-19.763s-35.639,7.019-48.788,19.763
			l-87.533,84.84H0v30h512v-30H457.118z"/>
	</g>
</g>
<g>
	<g>
		<circle cx="82.89" cy="136.332" r="47.872"/>
	</g>
</g>
<g>
</g>
<g>
</g>
<g>
</g>
<g>
</g>
<g>
</g>
<g>
</g>
<g>
</g>
<g>
</g>
<g>
</g>
<g>
</g>
<g>
</g>
<g>
</g>
<g>
</g>
<g>
</g>
<g>
</g>
</svg>
