<?xml version="1.0" encoding="iso-8859-1"?>
<!-- Generator: Adobe Illustrator 19.0.0, SVG Export Plug-In . SVG Version: 6.00 Build 0)  -->
<svg version="1.1" id="Capa_1" xmlns="http://www.w3.org/2000/svg" xmlns:xlink="http://www.w3.org/1999/xlink" x="0px" y="0px"
	 viewBox="0 0 512.011 512.011" style="enable-background:new 0 0 512.011 512.011;" xml:space="preserve">
<g>
	<g>
		<path d="M192.006,16.006c0,35.296,28.704,64,64,64c35.264,0,64-28.704,64-64H192.006z"/>
	</g>
</g>
<g>
	<g>
		<path d="M503.942,82.118l-112-64c-2.4-1.376-5.152-2.112-7.936-2.112h-32c0,52.928-43.072,96-96,96c-52.928,0-96-43.072-96-96h-32
			c-2.784,0-5.504,0.736-7.936,2.112l-112,64c-6.4,3.648-9.472,11.2-7.456,18.272l32,112c2.368,8.32,11.008,13.216,19.264,11.136
			l44.128-11.008v267.488c0,8.832,7.168,16,16,16h288c8.832,0,16-7.168,16-16V212.518l44.128,11.008
			c8.256,2.112,16.864-2.816,19.264-11.136l32-112C513.414,93.318,510.342,85.766,503.942,82.118z"/>
	</g>
</g>
<g>
</g>
<g>
</g>
<g>
</g>
<g>
</g>
<g>
</g>
<g>
</g>
<g>
</g>
<g>
</g>
<g>
</g>
<g>
</g>
<g>
</g>
<g>
</g>
<g>
</g>
<g>
</g>
<g>
</g>
</svg>
