<svg id="Layer_1" enable-background="new 0 0 52 52" height="512" viewBox="0 0 52 52" width="512" xmlns="http://www.w3.org/2000/svg"><g id="_x32_0"><path d="m42.0899506 24.0648727c.2399902.25.3499756.6099854.25.9700317-.8099976 2.8999634-2.0100098 6.1300049-3.460022 9.3399658-3.4500122 7.6600342-9.6199951 15.3099976-12.1799927 15.3099976-.1500244 0-.2900391-.0199585-.4199829-.0799561-.3900146-.1800537-1.6000366-.7200317-.6800537-6.9100342.3600464-2.3800049 1.3200073-7.1900024 3.7600098-12.6099854 1.460022-3.2200317 3.0900269-6.25 4.7200317-8.7800293.2000122-.2999878.539978-.4599609.8800049-.4499512.5100098-1.0400391 1.0700073-2.1700439 1.6199951-3.2700195.8099976 1.0200195 1.8499756 1.8399658 3.0700073 2.3800049 1.0599976.4799805 2.2399902.7399902 3.4099731.7399902.1400146 0 .2800293 0 .4199829-.0100098-.4599609 1.1300051-.9499511 2.299988-1.3899535 3.3699953z"/><g><path d="m49.9999237 8.384881c.0100098 2.3500366-.4699707 5.0700073-1.1599731 6.6000366-1.0599976 2.3399649-3.3600464 3.7199697-5.7800293 3.7199697-.8599854 0-1.75-.1799927-2.5899658-.5599976-1.5400391-.6900024-2.710022-1.9400024-3.3100586-3.5200186-.5999756-1.5799561-.5499878-3.2999878.1500244-4.8399658 1.3699951-2.4800415 2.9500122-2.9200439 4.3400269-3.3099976 1.5-.4100342 2.9199829-.8099976 4.6599731-3.6799927.2600098-.4300537.7999878-.6000366 1.2600098-.3900146 1.9999999.8999635 2.4299926 3.7500002 2.4299926 5.9799806z"/></g><g><path d="m35.2899017 15.3348932c-.6499634-1.710022-.7199707-3.539978-.2199707-5.2600098-.8900146-.7999878-1.8400269-1.4899902-2.8400269-2.0999756-2.9499512-1.7900391-6.3399658-2.8200073-9.8599854-2.8900146-5.3999634-.0999756-10.5200205 1.9199829-14.3800049 5.7000122-3.8599854 3.789978-5.9899902 8.8499746-5.9899902 14.2600088 0 7.4599609 4.1099854 14.2399902 10.7200317 17.6900024.789978.4199829 1.6399536.6299438 2.5.6299438 1.0099497 0 2.0299692-.289978 2.9399424-.8599854 1.6500244-1.039978 2.5900269-2.789978 2.5300293-4.7000122-.1099854-3.2999878.9699707-6.0299683 3.039978-7.6799927 1.1500244-.9099731 2.5700073-1.4500122 4.1500244-1.5999756 1.4000244-3.039978 2.9699707-5.8900146 4.5200195-8.2999878.2999878-.460022.6999512-.8099976 1.1599731-1.0400391.5800171-1.1699829 1.210022-2.4599609 1.8200073-3.6499624-.0399787-.0599973-.0599983-.1300046-.0900276-.200012zm-22.0599985 17.210021c-1.8200073 0-3.2799683-1.4700317-3.2799683-3.2800293s1.4599609-3.2799683 3.2799683-3.2799683c1.8099976 0 3.2700205 1.4699707 3.2700205 3.2799683s-1.4600229 3.2800293-3.2700205 3.2800293zm1.7600098-11.1900024c-1.8200073 0-3.2799683-1.4700317-3.2799683-3.2800293s1.4599609-3.2899771 3.2799683-3.2899771c1.8099985 0 3.2700205 1.4799795 3.2700205 3.2899771s-1.460022 3.2800293-3.2700205 3.2800293zm11.4800424-1.7600098c-1.8200073 0-3.2800293-1.4800415-3.2800293-3.2800293 0-1.8099966 1.460022-3.2899771 3.2800293-3.2899771 1.8099976 0 3.2699585 1.4799805 3.2699585 3.2899771 0 1.7999878-1.4599609 3.2800293-3.2699585 3.2800293z"/></g></g></svg>