<svg clip-rule="evenodd" fill-rule="evenodd" height="512" image-rendering="optimizeQuality" shape-rendering="geometricPrecision" text-rendering="geometricPrecision" viewBox="0 0 512 512" width="512" xmlns="http://www.w3.org/2000/svg"><g id="Layer_x0020_1"><path d="m13 498c-4 0-7-1-9-3-11-11 2-36 60-126l24 24c1 1 3 2 5 2 1 0 3-1 5-2 3-3 3-7 0-10l-26-26c9-13 18-28 29-44l3-5 26 26c1 1 3 2 5 2s4-1 5-2c3-3 3-8 0-11l-28-28c10-15 21-31 33-49l34 34c1 2 3 2 5 2s3 0 5-2c3-3 3-7 0-10l-36-36c10-16 21-32 32-49l42 42c2 1 4 2 5 2 2 0 4-1 6-2 3-3 3-8 0-11l-45-44c2-3 4-7 7-10 0-1 0-1 0-1 19-19 43-29 69-29h1c26 0 50 10 69 29 18 18 28 42 28 68s-10 51-28 69c-1 0-1 1-2 1-12 7-24 15-35 22l-38-38c-3-3-8-3-11 0s-3 7 0 10l36 37c-17 11-33 21-49 32l-30-30c-3-3-7-3-10 0s-3 7 0 10l27 28c-15 10-29 19-42 28l-7 4-28-29c-3-3-8-3-11 0s-3 8 0 11l27 26c-98 64-136 88-153 88z"/><path d="m333 173c-2 0-4-1-5-2-3-3-3-8 0-11l129-129c3-3 8-3 10 0 3 3 3 8 0 11l-128 129c-2 1-4 2-6 2z"/><path d="m504 89c-2 0-3 0-4-2-2-1-30-22-73-6-4 1-8-1-9-5-2-4 0-8 4-9 52-19 86 8 87 9 3 3 4 7 1 10-1 2-4 3-6 3z"/><path d="m397 108c-1 0-1 0-2 0-4-2-6-6-5-9 16-45-6-73-6-74-2-3-2-8 2-10 2-2 7-2 10 2 1 1 27 35 8 87-1 2-3 4-7 4z"/><path d="m444 149c-1 0-3 0-4-1-2-1-30-23-73-7-4 1-8 0-9-5-2-4 0-8 4-9 52-18 86 8 87 9 4 2 4 7 1 10-2 2-4 3-6 3z"/><path d="m346 160c-1 0-2 0-3-1-3-1-5-5-4-9 16-44-5-72-6-73-3-3-2-8 1-11 3-2 8-2 10 2 1 1 27 35 9 87-1 3-4 5-7 5z"/></g></svg>