<svg id="Capa_1" enable-background="new 0 0 512 512" height="512" viewBox="0 0 512 512" width="512" xmlns="http://www.w3.org/2000/svg"><g><path d="m16 151h330v61h-330z"/><path d="m51.728 121h258.544l-30-61h-102.566l-14.987-60h-86.719v30h63.281l7.509 30h-65.062z"/><path d="m496 467v-15h-270v15c0 24.853 20.147 45 45 45h180c24.853 0 45-20.147 45-45z"/><path d="m256 392h210v30h-210z"/><path d="m496 332c0-33.138-26.863-60-60-60h-150c-33.137 0-60 26.862-60 60v30h270z"/><path d="m286 242h-235.576l26.997 270h133.962c-9.518-12.574-15.383-28.052-15.383-45v-45h30v-30h-30v-60c0-49.629 40.371-90 90-90z"/></g></svg>