<?xml version="1.0" encoding="iso-8859-1"?>
<!-- Generator: Adobe Illustrator 19.0.0, SVG Export Plug-In . SVG Version: 6.00 Build 0)  -->
<svg version="1.1" id="Capa_1" xmlns="http://www.w3.org/2000/svg" xmlns:xlink="http://www.w3.org/1999/xlink" x="0px" y="0px"
	 viewBox="0 0 512 512" style="enable-background:new 0 0 512 512;" xml:space="preserve">
<g>
	<g>
		<path d="M511.119,77.251c-0.806-5.625-4.717-10.313-10.107-12.114c-5.361-1.816-11.323-0.396-15.352,3.618l-21.211,21.226
			c-11.338,11.338-31.099,11.338-42.437,0c-11.732-11.732-11.726-30.698,0-42.422l21.211-21.211
			c4.014-4.014,5.42-9.961,3.618-15.352c-1.802-5.391-6.489-9.302-12.114-10.107c-27.993-3.955-56.323,5.449-76.348,25.444
			c-22.646,22.661-31.582,55.972-23.306,86.953l-221.78,221.772l-0.015-0.015c-30.864-8.188-64.365,0.747-86.938,23.32
			C6.447,378.256-3.074,406.806,0.881,434.725c0.806,5.625,4.717,10.313,10.107,12.114c5.347,1.802,11.323,0.396,15.352-3.618
			l21.211-21.226c11.338-11.338,31.099-11.338,42.437,0c11.732,11.73,11.726,30.696,0,42.422l-21.211,21.211
			c-4.014,4.014-5.42,9.961-3.618,15.352s6.489,9.302,12.114,10.107c27.92,3.973,56.014-5.129,76.348-25.444
			c22.646-22.661,31.582-55.972,23.306-86.953l221.78-221.772l0.015,0.015c31.025,8.218,64.365-0.747,86.938-23.32
			C505.553,133.72,515.074,105.171,511.119,77.251z"/>
	</g>
</g>
<g>
	<g>
		<path d="M422,332c-7.104,0-14.414,1.069-22.998,3.34l-58.138-58.131l-63.653,63.646l58.129,58.133
			C333.069,407.586,332,414.896,332,422c0,49.629,40.371,90,90,90c49.629,0,90-40.371,90-90C512,372.371,471.629,332,422,332z
			 M471.219,418.997l-8.921,33.281c-1.392,5.171-5.435,9.214-10.605,10.605l-33.281,8.921c-4.889,1.348-10.538,0.068-14.487-3.882
			l-24.36-24.36c-3.794-3.794-5.273-9.316-3.882-14.487l8.921-33.281c1.392-5.171,5.435-9.214,10.605-10.605l33.281-8.921
			c5.142-1.436,10.679,0.088,14.487,3.882l24.36,24.36C471.131,408.304,472.61,413.826,471.219,418.997z"/>
	</g>
</g>
<g>
	<g>
		<path d="M176.899,112.441c8.276-30.981-0.66-64.306-23.306-86.953c-33.999-33.984-93.311-33.984-127.28,0
			c-35.083,35.098-35.083,92.197,0,127.28c22.544,22.544,55.928,31.611,86.953,23.306l57.88,58.708l63.642-63.635L176.899,112.441z
			 M137.67,84.624l-8.921,33.281c-1.392,5.171-5.435,9.214-10.605,10.605l-33.281,8.921c-4.889,1.348-10.538,0.068-14.487-3.882
			l-24.36-24.36c-3.794-3.794-5.273-9.316-3.882-14.487l8.921-33.281c1.392-5.171,5.435-9.214,10.605-10.605l33.281-8.921
			c5.171-1.406,10.693,0.088,14.487,3.882l24.36,24.36C137.582,73.931,139.061,79.453,137.67,84.624z"/>
	</g>
</g>
<g>
</g>
<g>
</g>
<g>
</g>
<g>
</g>
<g>
</g>
<g>
</g>
<g>
</g>
<g>
</g>
<g>
</g>
<g>
</g>
<g>
</g>
<g>
</g>
<g>
</g>
<g>
</g>
<g>
</g>
</svg>
