<svg id="Gylph" height="512" viewBox="0 0 64 64" width="512" xmlns="http://www.w3.org/2000/svg"><path d="m47.24685 36.54308c-.1961-1.85042-2.088-4.28523-4.76962-2.78545-.71877.34634-1.04084 1.39533-1.95466 1.34868-.90672.04358-1.24069-.98873-1.94494-1.34875a3.20188 3.20188 0 0 0 -2.40427-.35184 16.92066 16.92066 0 0 1 4.37857 11.42539c4.39814-2.32611 7.13474-5.69805 6.69492-8.28803z"/><path d="m38.5972 44.85067a15.05784 15.05784 0 0 0 -6.06947-12.1291c-.27264 1.51887-1.76233 2.19331-3.08846 2.60953a17.33521 17.33521 0 0 1 -13.98607-.95767 2.84455 2.84455 0 0 1 -1.0262-1.66166 15.15733 15.15733 0 0 0 9.0504 27.288 15.17439 15.17439 0 0 0 15.1198-15.1491zm-20.20208-6.35286a5.11983 5.11983 0 0 1 5.46342 1.10444 5.11539 5.11539 0 0 1 5.45371-1.10443c2.50205 1.04578 3.09823 3.929 3.196 4.49584.606 3.60647-2.551 7.7407-8.034 10.51644a1.36567 1.36567 0 0 1 -1.23149 0c-5.49278-2.77574-8.63986-6.91-8.0339-10.51644.13689-.80145.76235-3.47941 3.18626-4.49585z"/><path d="m16.88994 33.1277a17.74916 17.74916 0 0 0 12.72529.17585c.47868-.14782 1.0459-.42069 1.02619-.976-.00144-.33526.00109-1.99465 0-2.3652.03087-.075.1292-.07706 0-.1231a2.7903 2.7903 0 0 0 -3.20571-3.21811l-7.90688-.00005a2.81311 2.81311 0 0 0 -3.21543 3.21818l-.00007 1.96952c-.02626.50468-.01463 1.11307.57661 1.31891z"/><path d="m23.85855 51.63358c4.892-2.74119 7.925-6.12481 6.28459-9.66606a2.969 2.969 0 0 0 -4.32992-1.42695c-.715.357-1.03641 1.38711-1.95468 1.34865-.9125.04023-1.23566-.98514-1.95472-1.34876a3.14413 3.14413 0 0 0 -2.75618-.23455c-1.54419.64509-1.94494 2.61933-2.01336 3.01029-.43977 2.60955 2.31635 6.00103 6.72427 8.31738z"/><path d="m20.15436 24.6957h7.65277a4.4547 4.4547 0 0 1 1.08486.12706 4.92158 4.92158 0 0 0 -3.25464-3.6162 12.3312 12.3312 0 0 0 1.72017-5.09208c0-2.81482-1.7006-5.02367-3.8801-5.02367s-3.88017 2.20885-3.88017 5.02367c0 1.19235.645 2.88323 1.93517 5.02366a4.92885 4.92885 0 0 0 -3.45985 3.68462 8.8351 8.8351 0 0 1 2.08179-.12706z"/><path d="m49.573 26.03642a2.96291 2.96291 0 0 1 -1.66147 2.04266 18.102 18.102 0 0 1 -14.77779 0 2.9282 2.9282 0 0 1 -.62547-.39088 4.78867 4.78867 0 0 1 .08792.89916v1.8081a14.98637 14.98637 0 0 1 2.06222 1.52468c.12706-.06836.26391-.13678.40075-.19542a5.09428 5.09428 0 0 1 5.46343 1.09465 5.07123 5.07123 0 0 1 5.45371-1.09464c2.4239.99686 3.05915 3.68461 3.20578 4.486.606 3.61626-2.551 7.7407-8.04375 10.51644a1.19138 1.19138 0 0 1 -.71345.14664 16.68426 16.68426 0 0 1 -1.13372 4.41763c-.96875 2.14153-1.30078 1.94808 1.23164 2.01332a15.1442 15.1442 0 0 0 9.0502-27.26834z"/><path d="m33.93516 26.43043a17.72045 17.72045 0 0 0 13.1749-.00005.89683.89683 0 0 0 .57661-.816c-.00478-.30073.00345-2.81781 0-3.18422a2.71365 2.71365 0 0 0 -2.83431-2.56338h-8.65949a2.71478 2.71478 0 0 0 -2.83432 2.5722v2.65211c-.02761.51337-.01299 1.12361.57661 1.33934z"/><path d="m37.12138 17.81993c.53313.00125 7.46069-.0009 7.731 0a4.698 4.698 0 0 1 1.11415.13684 4.88568 4.88568 0 0 0 -3.29371-3.84109 12.23347 12.23347 0 0 0 1.73-5.092c-.00007-2.81483-1.70068-5.02368-3.88024-5.02368s-3.8801 2.20885-3.8801 5.02366c0 1.19236.645 2.87345 1.94494 5.02367a4.87687 4.87687 0 0 0 -3.5087 3.90945 8.28262 8.28262 0 0 1 2.04266-.13685z"/></svg>