<?xml version="1.0" encoding="iso-8859-1"?>
<!-- Generator: Adobe Illustrator 19.0.0, SVG Export Plug-In . SVG Version: 6.00 Build 0)  -->
<svg version="1.1" id="Capa_1" xmlns="http://www.w3.org/2000/svg" xmlns:xlink="http://www.w3.org/1999/xlink" x="0px" y="0px"
	 viewBox="0 0 480.011 480.011" style="enable-background:new 0 0 480.011 480.011;" xml:space="preserve">
<g>
	<g>
		<path d="M479.699,269.776c0.31-1.394,0.236-2.846-0.216-4.2c-5.486-79.265-71.075-140.943-150.528-141.552
			C302.437,35.134,208.88-15.43,119.99,11.088C31.099,37.606-19.464,131.163,7.053,220.053
			c13.962,46.801,47.603,85.207,92.158,105.211c-15.758,8.43-30.397,18.802-43.576,30.872l-22.824,20.92
			c-9.772,8.956-10.434,24.137-1.478,33.909c1.001,1.092,2.101,2.09,3.286,2.979l25.728,19.296
			c37.034,27.658,81.995,42.644,128.216,42.736h22.896c46.216-0.096,91.171-15.082,128.2-42.736l9.056-6.792
			c75.275-10.194,131.394-74.51,131.296-150.472C480.011,273.88,479.779,271.848,479.699,269.776z M437.747,195.976
			c14.481,19.724,23.329,43.013,25.6,67.376l-6.784,3.392l-39.28-26.184l12.76-44.584H437.747z M383.619,152.016
			c15.127,6.775,28.893,16.25,40.624,27.96h-0.232c-3.572,0.003-6.709,2.373-7.688,5.808l-14.992,52.464l-25.704,11.856
			l-39.616-26.408v-31.552l44.592-31.2C383.44,158.939,384.659,155.332,383.619,152.016z M202.915,189.84
			c-0.858,0.701-1.561,1.573-2.064,2.56c-0.093,0.286-0.171,0.577-0.232,0.872l-21.296-21.296l25.416-25.416
			c6.76,6.146,14.008,11.732,21.672,16.704h-0.016C217.563,171.182,209.684,180.1,202.915,189.84z M192.387,207.656
			c-9.072,17.951-14.461,37.535-15.848,57.6c-7.401-20.947-18.918-40.202-33.872-56.632l25.328-25.36L192.387,207.656z
			 M211.275,206.552l6.4,3.2l12.912,32.272l-32.176,32.216l-6.176-3.088C193.02,248.356,199.571,226.13,211.275,206.552z
			 M196.427,291.096c3.08,1.537,6.799,0.932,9.232-1.504l36.272-36.264l31.464,12.584l14.92,52.216
			c0.145,0.405,0.328,0.796,0.544,1.168c-27.883-12.75-58.188-19.34-88.848-19.32c-1.888,0-3.768,0.08-5.656,0.128l-0.016-0.04
			c-0.64-3.584-1.248-7.2-1.6-10.816L196.427,291.096z M279.075,250.984l-32.912-13.168l-14.72-36.8
			c-0.728-1.823-2.1-3.315-3.856-4.192l-7.2-3.616c13.685-17.811,31.551-31.973,52.016-41.232c-1.04,3.315,0.179,6.923,3.016,8.928
			l44.592,31.24v31.552L279.075,250.984z M328.011,237.576l37.872,25.304c0.064,0.168,0.048,0.344,0.128,0.512
			c0.147,0.277,0.313,0.545,0.496,0.8l-12.528,43.784h-51.936l-12.736-44.584L328.011,237.576z M364.435,145.08v0.04l2.08,6.168
			l-38.504,26.92l-38.504-26.96l2.08-6.168C315.393,138.275,340.629,138.275,364.435,145.08z M312.507,124.776
			c-26.319,2.722-51.461,12.314-72.904,27.816c-8.384-5.016-16.265-10.827-23.536-17.352l64.888-64.864
			C295.154,86.109,305.902,104.639,312.507,124.776z M269.547,59.12l-64.8,64.8c-22.652-25.115-36.251-57.086-38.632-90.824
			l-0.928-12.912C203.657,19.431,240.972,33.353,269.547,59.12z M149.235,21.352l0.92,12.88
			c2.641,37.585,17.881,73.18,43.256,101.032l-25.4,25.4L66.475,59.12C89.524,38.325,118.422,25.137,149.235,21.352z M55.163,70.432
			l101.536,101.544l-25.336,25.336c-27.878-25.365-63.496-40.586-101.096-43.2l-12.888-0.92
			C21.169,122.378,34.362,93.48,55.163,70.432z M16.219,169.152l12.912,0.92c33.747,2.358,65.737,15.934,90.88,38.568l-64.872,64.88
			C29.379,244.938,15.463,207.623,16.219,169.152z M66.363,284.944l65-64.968c20.615,22.97,33.712,51.694,37.536,82.32
			c-17.069,2.501-33.77,7.067-49.736,13.6C99.651,309.255,81.689,298.726,66.363,284.944z M356.915,400.152
			c-0.334,0.364-0.701,0.696-1.096,0.993l-25.768,19.304c-34.255,25.579-75.841,39.44-118.592,39.528h-22.896
			c-42.751-0.088-84.337-13.949-118.592-39.528l-25.736-19.304c-3.535-2.651-4.252-7.665-1.601-11.2
			c0.296-0.395,0.629-0.762,0.993-1.096l22.784-20.92c16.287-14.844,34.945-26.855,55.2-35.536c1.215-0.227,2.36-0.733,3.344-1.48
			c70.836-29.257,152.207-14.822,208.656,37.016l22.816,20.92C359.683,391.835,359.902,396.895,356.915,400.152z M344.387,356.136
			c-13.864-12.696-29.342-23.509-46.032-32.16h58.344l17.6,17.6l-14.416,28.8L344.387,356.136z M372.867,404.304L372.867,404.304
			c3.234-6.956,2.756-15.072-1.272-21.6l17.36-34.728h46.112l3.56,7.12C422.328,377.909,399.351,395.103,372.867,404.304z
			 M448.467,339.04l-1.256-2.64c-1.362-2.725-4.153-4.441-7.2-4.424h-52.688l-18.328-18.328l14.104-49.368l24.2-11.16l44.272,29.512
			c2.384,1.588,5.435,1.78,8,0.504l4.184-2.096C463.054,301.273,457.83,321.091,448.467,339.04z"/>
	</g>
</g>
<g>
	<g>
		<path d="M272.011,379.976h-8v-8c0-4.418-3.582-8-8-8s-8,3.582-8,8v8h-16v-8c0-4.418-3.582-8-8-8s-8,3.582-8,8v8h-16v-8
			c0-4.418-3.582-8-8-8s-8,3.582-8,8v8h-16v-8c0-4.418-3.582-8-8-8s-8,3.582-8,8v8h-16v-8c0-4.418-3.582-8-8-8c-4.418,0-8,3.582-8,8
			v8h-8c-4.418,0-8,3.582-8,8s3.582,8,8,8h8v8c0,4.418,3.582,8,8,8c4.418,0,8-3.582,8-8v-8h16v8c0,4.418,3.582,8,8,8s8-3.582,8-8v-8
			h16v8c0,4.418,3.582,8,8,8s8-3.582,8-8v-8h16v8c0,4.418,3.582,8,8,8s8-3.582,8-8v-8h16v8c0,4.418,3.582,8,8,8s8-3.582,8-8v-8h8
			c4.418,0,8-3.582,8-8S276.429,379.976,272.011,379.976z"/>
	</g>
</g>
<g>
</g>
<g>
</g>
<g>
</g>
<g>
</g>
<g>
</g>
<g>
</g>
<g>
</g>
<g>
</g>
<g>
</g>
<g>
</g>
<g>
</g>
<g>
</g>
<g>
</g>
<g>
</g>
<g>
</g>
</svg>
