<svg id="Layer_1" enable-background="new 0 0 512 512" height="512" viewBox="0 0 512 512" width="512" xmlns="http://www.w3.org/2000/svg"><path d="m464 226.03c0-25.534 2.286-72.844-30.39-126.33-36.809-60.278-102.69-99.7-177.61-99.7-115.005 0-208 93.272-208 208v18.03c-27.58 7.12-48 32.2-48 61.97v80c0 35.29 28.71 64 64 64h32c0 8.84 7.16 16 16 16s16-7.16 16-16c0-1.89 0-181.613 0-208 0-8.84-7.16-16-16-16s-16 7.16-16 16h-16c0-23.669-1.217-54.059 17.62-92.84 21.746 10.1 48.685 6.066 66.6-12.37 51.77-53.261 135.555-50.192 183.61.05 18.228 18.76 45.285 22.204 66.56 12.32 18.85 38.842 17.61 69.963 17.61 92.84h-16c0-8.84-7.16-16-16-16s-16 7.16-16 16v208c0 8.84 7.16 16 16 16s16-7.16 16-16h13.97c-7.12 27.58-32.2 48-61.97 48h-64c0-17.645-14.355-32-32-32s-32 14.355-32 32 14.355 32 32 32h96c48.1 0 88.05-35.56 94.94-81.77 28.11-6.74 49.06-32.09 49.06-62.23v-80c0-29.77-20.42-54.85-48-61.97z"/></svg>