<svg width="382" height="243" viewBox="0 0 382 243" fill="none" xmlns="http://www.w3.org/2000/svg">
<g clip-path="url(#clip0_4_726)">
<path opacity="0.1" d="M331.954 190.545C331.869 190.434 331.785 190.323 331.701 190.212C331.617 190.101 331.534 189.989 331.451 189.877C331.368 189.766 331.285 189.654 331.203 189.541C331.121 189.429 331.039 189.316 330.958 189.203C330.821 185.946 330.819 182.719 330.952 179.52C331.081 176.344 331.343 173.206 331.737 170.106C332.127 167.03 332.643 164.001 333.285 161.019C333.922 158.06 334.681 155.157 335.563 152.31C335.664 151.982 335.766 151.655 335.87 151.33C335.974 151.004 336.08 150.68 336.188 150.359C336.296 150.036 336.405 149.715 336.516 149.395C336.628 149.075 336.74 148.756 336.855 148.438C337.704 146.061 338.639 143.742 339.659 141.481C340.672 139.236 341.767 137.053 342.942 134.932C344.108 132.826 345.352 130.784 346.672 128.808C347.984 126.846 349.368 124.953 350.825 123.129L351.055 122.843L351.285 122.558L351.516 122.275L351.748 121.993L351.915 121.791L352.084 121.59C352.141 121.523 352.197 121.456 352.254 121.39C352.311 121.324 352.369 121.258 352.428 121.193L352.566 121.115L352.704 121.038L352.841 120.961L352.977 120.885L352.986 120.882L352.995 120.878L353.003 120.874L353.012 120.87L353.067 120.839L353.121 120.808L353.175 120.777L353.227 120.746L353.465 120.615L353.702 120.485L353.939 120.357L354.174 120.227L353.995 120.135L353.544 119.904L353.547 119.902C353.586 119.919 353.624 119.937 353.662 119.956C353.7 119.975 353.738 119.993 353.777 120.011C353.816 120.029 353.854 120.048 353.891 120.066C353.929 120.085 353.967 120.104 354.006 120.123L354.049 120.142L354.093 120.161L354.138 120.181C354.153 120.187 354.167 120.194 354.181 120.203C354.193 120.21 354.206 120.215 354.22 120.22L354.259 120.237L354.297 120.254L354.336 120.271C355.979 121.043 357.625 121.828 359.25 122.65C360.876 123.473 362.476 124.33 364.033 125.253C365.586 126.168 367.09 127.167 368.541 128.244C369.988 129.317 371.357 130.495 372.638 131.77C373.989 133.126 375.198 134.623 376.245 136.239C377.28 137.826 378.131 139.531 378.78 141.321C379.406 143.024 379.778 144.814 379.886 146.631C379.989 148.379 379.75 150.13 379.181 151.781C379.105 151.996 379.022 152.208 378.933 152.418C378.844 152.627 378.749 152.833 378.648 153.036C378.548 153.239 378.441 153.438 378.328 153.634C378.216 153.829 378.098 154.022 377.974 154.21C377.922 154.289 377.869 154.367 377.815 154.444C377.762 154.521 377.707 154.598 377.652 154.674C377.597 154.749 377.541 154.825 377.484 154.9C377.427 154.975 377.37 155.05 377.312 155.124C376.236 156.512 374.869 157.633 373.313 158.403C371.748 159.17 370.048 159.603 368.315 159.675C366.494 159.753 364.674 159.482 362.95 158.876C361.101 158.228 359.382 157.238 357.879 155.956C357.36 155.515 356.867 155.042 356.405 154.539C355.947 154.04 355.52 153.513 355.126 152.96C354.735 152.411 354.378 151.838 354.057 151.244C353.739 150.654 353.458 150.043 353.217 149.416C353.104 151.364 353.398 153.315 354.081 155.137C354.802 157.052 355.781 158.854 356.99 160.489C358.268 162.23 359.685 163.858 361.227 165.356C362.78 166.885 364.429 168.317 366.058 169.637C367.687 170.956 369.374 172.306 371.007 173.713C372.638 175.097 374.191 176.575 375.658 178.14C377.081 179.653 378.339 181.319 379.411 183.111C380.464 184.879 381.226 186.814 381.665 188.837C382.134 191.041 382.11 193.326 381.595 195.519C381.344 196.586 380.987 197.623 380.53 198.615C380.069 199.615 379.516 200.568 378.879 201.461L378.819 201.542L378.76 201.623L378.699 201.705L378.637 201.785C377.083 203.87 375.133 205.609 372.904 206.895C371.782 207.543 370.599 208.073 369.374 208.477C368.12 208.892 366.828 209.177 365.519 209.329C363.028 209.565 360.517 209.417 358.068 208.891C355.547 208.349 353.096 207.507 350.765 206.383C348.355 205.225 346.051 203.847 343.881 202.265C341.692 200.675 339.619 198.922 337.68 197.02C337.165 196.516 336.659 196.003 336.162 195.481C335.665 194.958 335.178 194.427 334.701 193.887C334.222 193.346 333.755 192.798 333.298 192.241C332.84 191.684 332.393 191.119 331.954 190.545Z" fill="#F2F2F2"/>
<path opacity="0.1" d="M372.001 152.816C370.462 151.996 368.982 151.063 367.572 150.026C364.757 147.954 362.241 145.483 360.101 142.687C359.04 141.299 358.079 139.834 357.225 138.303C356.513 137.01 355.881 135.671 355.332 134.296C354.797 132.955 354.347 131.579 353.985 130.178C353.631 128.809 353.367 127.418 353.196 126.013C353.027 124.637 352.954 123.25 352.975 121.863C352.977 121.785 352.978 121.707 352.98 121.63C352.982 121.553 352.983 121.475 352.985 121.397C352.987 121.319 352.99 121.242 352.994 121.166L353.005 120.935C352.941 120.987 352.876 121.04 352.812 121.094L352.619 121.254L352.427 121.417L352.236 121.579L352.114 121.683L351.99 121.788L351.868 121.894L351.747 122L351.914 121.799L352.085 121.59C352.142 121.524 352.199 121.457 352.256 121.391C352.313 121.324 352.37 121.259 352.429 121.194L352.568 121.116L352.705 121.039L352.839 120.962L352.976 120.885L352.984 120.883L352.993 120.878L353.002 120.874L353.01 120.871L353.065 120.84L353.12 120.809L353.173 120.778L353.225 120.746L353.463 120.615L353.701 120.486L353.938 120.358L354.175 120.229L353.989 120.134L353.539 119.904L353.542 119.902C353.581 119.919 353.619 119.937 353.657 119.955C353.695 119.974 353.733 119.993 353.772 120.01C353.811 120.029 353.849 120.047 353.886 120.065C353.924 120.084 353.962 120.103 354 120.122L354.044 120.141L354.088 120.161L354.133 120.18C354.147 120.186 354.162 120.193 354.175 120.202L354.171 120.275L354.166 120.344L354.162 120.413L354.159 120.482C353.992 122.818 354.111 125.166 354.512 127.472C354.924 129.845 355.6 132.162 356.527 134.377C357.485 136.67 358.683 138.849 360.1 140.877C361.563 142.974 363.24 144.905 365.101 146.638C366.975 148.358 369.019 149.872 371.2 151.156C372.277 151.789 373.386 152.364 374.522 152.877C375.649 153.385 376.802 153.829 377.976 154.209C377.924 154.287 377.871 154.365 377.817 154.443C377.764 154.52 377.709 154.596 377.654 154.672C377.599 154.748 377.542 154.823 377.486 154.899C377.429 154.974 377.372 155.049 377.314 155.123C376.861 154.969 376.411 154.805 375.963 154.631C375.515 154.458 375.069 154.275 374.626 154.082C374.183 153.89 373.742 153.688 373.305 153.476C372.868 153.265 372.433 153.044 372.001 152.816Z" fill="white"/>
<path opacity="0.1" d="M341.529 170.274C341.025 169.502 340.549 168.715 340.102 167.914C339.654 167.113 339.236 166.3 338.847 165.476C338.458 164.653 338.099 163.819 337.77 162.974C337.44 162.13 337.142 161.278 336.875 160.419C336.738 159.963 336.612 159.506 336.497 159.047C336.381 158.588 336.277 158.128 336.183 157.668C336.09 157.208 336.007 156.746 335.934 156.284C335.861 155.821 335.8 155.359 335.75 154.897C335.725 154.682 335.702 154.467 335.682 154.251C335.661 154.035 335.644 153.819 335.628 153.603C335.612 153.387 335.599 153.172 335.588 152.956C335.577 152.741 335.568 152.526 335.562 152.311C335.662 151.983 335.764 151.656 335.869 151.33C335.973 151.005 336.078 150.68 336.186 150.357C336.293 150.035 336.403 149.713 336.514 149.393C336.625 149.073 336.738 148.754 336.853 148.437C336.828 148.703 336.807 148.969 336.789 149.237C336.771 149.504 336.757 149.773 336.747 150.042C336.736 150.311 336.729 150.581 336.726 150.851C336.723 151.121 336.724 151.392 336.728 151.664C336.727 151.812 336.729 151.96 336.731 152.108C336.734 152.255 336.738 152.403 336.743 152.551C336.748 152.699 336.754 152.847 336.762 152.995C336.769 153.143 336.778 153.291 336.788 153.439C336.898 155.099 337.152 156.746 337.546 158.36C337.945 159.994 338.465 161.594 339.101 163.146C339.75 164.728 340.499 166.265 341.342 167.747C342.199 169.256 343.137 170.714 344.15 172.117C345.241 173.631 346.394 175.105 347.61 176.54C348.825 177.974 350.086 179.369 351.394 180.725C352.702 182.08 354.049 183.393 355.435 184.663C356.82 185.934 358.229 187.161 359.661 188.344C361.127 189.559 362.622 190.727 364.148 191.849C365.673 192.972 367.224 194.045 368.799 195.069C370.373 196.092 371.972 197.066 373.594 197.99C375.215 198.914 376.856 199.785 378.514 200.603C378.59 200.641 378.659 200.693 378.717 200.757C378.774 200.819 378.82 200.891 378.853 200.969C378.885 201.046 378.905 201.128 378.91 201.212C378.915 201.297 378.904 201.382 378.878 201.462C378.87 201.497 378.858 201.53 378.842 201.563C378.828 201.594 378.81 201.624 378.789 201.652C378.769 201.679 378.746 201.704 378.721 201.727C378.695 201.749 378.667 201.768 378.638 201.785C378.607 201.799 378.574 201.81 378.54 201.816C378.507 201.822 378.472 201.824 378.438 201.821C378.403 201.819 378.369 201.812 378.335 201.802C378.301 201.791 378.267 201.776 378.236 201.758C378.031 201.657 377.826 201.556 377.621 201.454C377.417 201.352 377.212 201.25 377.008 201.147C376.804 201.044 376.6 200.94 376.397 200.835C376.194 200.73 375.99 200.624 375.787 200.516C374.097 199.625 372.429 198.68 370.784 197.682C369.138 196.683 367.518 195.633 365.922 194.531C364.326 193.429 362.76 192.277 361.222 191.076C359.684 189.875 358.179 188.626 356.706 187.329C355.284 186.081 353.879 184.791 352.508 183.456C351.137 182.122 349.801 180.745 348.514 179.324C347.228 177.902 345.992 176.438 344.822 174.93C343.651 173.421 342.549 171.87 341.529 170.274Z" fill="white"/>
<path d="M373.375 46.2741L372.164 46.4356L380.283 15.1563C380.881 13.0676 380.978 10.8615 380.567 8.72584C380.209 6.98085 379.326 5.39564 378.042 4.19515C376.696 2.99482 375.048 2.20943 373.286 1.92959C371.141 1.58853 368.95 1.68919 366.843 2.22572V2.22572L311.665 15.1247C309.739 15.6043 307.895 16.3827 306.198 17.4331C304.352 18.5598 302.636 19.8959 301.081 21.4161C299.481 22.9664 298.044 24.6855 296.796 26.5451C295.576 28.3451 294.582 30.2953 293.837 32.35V32.35L236.104 195.351C235.144 198.031 234.52 200.825 234.248 203.667C233.995 206.19 234.114 208.738 234.602 211.224C235.008 213.385 235.858 215.432 237.093 217.229C238.227 218.864 239.824 220.101 241.666 220.77V220.77L299.966 241.372C302.556 242.277 305.336 242.447 308.012 241.864C310.873 241.224 313.563 239.952 315.897 238.136C318.517 236.116 320.77 233.637 322.553 230.814C324.528 227.713 326.003 224.305 326.923 220.722V220.722L366.009 70.1432L367.235 70.0424L373.375 46.2741Z" fill="#2F2E41"/>
<path d="M369.157 44.5423L367.946 44.7038L376.065 13.4245C376.663 11.3359 376.761 9.12971 376.349 6.99409C375.992 5.2491 375.108 3.66389 373.824 2.4634C372.479 1.26307 370.83 0.477676 369.068 0.197839C366.923 -0.143217 364.733 -0.0425561 362.626 0.493965L307.447 13.3929C305.521 13.8726 303.678 14.651 301.981 15.7013C300.135 16.828 298.418 18.1641 296.863 19.6844C295.263 21.2346 293.827 22.9538 292.578 24.8134C291.359 26.6133 290.364 28.5636 289.619 30.6182V30.6182L231.886 193.619C230.926 196.299 230.302 199.094 230.03 201.936C229.777 204.458 229.897 207.006 230.384 209.492C230.791 211.653 231.64 213.7 232.876 215.498C234.009 217.132 235.606 218.369 237.449 219.038V219.038L295.748 239.64C298.338 240.545 301.118 240.715 303.794 240.132C306.655 239.492 309.346 238.22 311.679 236.405C314.299 234.384 316.552 231.905 318.335 229.082C320.31 225.981 321.785 222.573 322.705 218.991V218.991L361.791 68.4115L363.017 68.3106L369.157 44.5423Z" fill="#3F3D56"/>
<path d="M362.138 4.57528L354.027 6.39924C354.115 7.11959 354.045 7.85117 353.822 8.54012C353.569 9.34597 353.203 10.1094 352.734 10.8061C351.68 12.3878 350.272 13.6879 348.629 14.5982C348.432 14.7056 348.236 14.8047 348.041 14.8956C347.845 14.9866 347.65 15.0691 347.454 15.1433C347.26 15.2175 347.066 15.283 346.874 15.3398C346.682 15.3967 346.493 15.4446 346.305 15.4836L314.593 22.0751C314.004 22.2154 313.392 22.2083 312.806 22.0543C312.335 21.9245 311.92 21.6372 311.625 21.2377C311.329 20.8089 311.161 20.3001 311.144 19.7744C311.119 19.1039 311.223 18.4349 311.448 17.805C311.504 17.635 311.568 17.4638 311.64 17.2915C311.712 17.1192 311.791 16.9469 311.876 16.7746C311.96 16.6014 312.052 16.4291 312.152 16.2577C312.252 16.0862 312.357 15.9149 312.468 15.7438L306.463 17.0941C305.017 17.4422 303.632 18.0176 302.357 18.7999C300.964 19.6423 299.668 20.6445 298.495 21.7871C297.286 22.9545 296.202 24.2508 295.26 25.6541C294.342 27.0102 293.596 28.4805 293.04 30.0298L235.415 194.447C234.698 196.467 234.238 198.574 234.046 200.715C233.868 202.605 233.973 204.512 234.357 206.369C234.676 207.975 235.329 209.491 236.27 210.814C237.133 212.014 238.336 212.912 239.715 213.383V213.383L298.443 232.969C300.381 233.606 302.449 233.701 304.435 233.244C306.549 232.747 308.535 231.791 310.259 230.439C312.188 228.94 313.848 227.109 315.165 225.028C316.624 222.741 317.718 220.23 318.407 217.591V217.591L372.067 14.3341C372.517 12.7826 372.601 11.1432 372.31 9.55189C372.058 8.24786 371.416 7.05716 370.473 6.14598C369.484 5.23498 368.264 4.63122 366.954 4.40513C365.354 4.1293 363.716 4.18717 362.138 4.57528V4.57528Z" fill="black"/>
<path d="M330.643 82.4452H213.816V41.8073H330.643V82.4452Z" fill="black"/>
<path d="M296.487 96.7881H181.989V153.761H296.487V96.7881Z" fill="black"/>
<path d="M200.59 124.146C205.164 124.146 208.872 120.34 208.872 115.645C208.872 110.95 205.164 107.143 200.59 107.143C196.016 107.143 192.308 110.95 192.308 115.645C192.308 120.34 196.016 124.146 200.59 124.146Z" fill="#E0677D"/>
<path d="M219.717 109.977C219.351 109.977 219 110.127 218.741 110.392C218.483 110.658 218.337 111.018 218.337 111.394C218.337 111.77 218.483 112.13 218.741 112.396C219 112.662 219.351 112.811 219.717 112.811H284.791C285.156 112.81 285.507 112.661 285.765 112.395C286.023 112.129 286.168 111.769 286.168 111.394C286.168 111.019 286.023 110.659 285.765 110.394C285.507 110.128 285.156 109.978 284.791 109.977H219.717Z" fill="#E6E6E6"/>
<path d="M219.718 118.479C219.536 118.478 219.356 118.514 219.189 118.585C219.021 118.656 218.868 118.76 218.739 118.891C218.611 119.022 218.509 119.178 218.439 119.35C218.369 119.522 218.333 119.706 218.333 119.893C218.332 120.079 218.367 120.263 218.437 120.436C218.506 120.608 218.607 120.764 218.735 120.896C218.863 121.028 219.016 121.133 219.183 121.204C219.351 121.276 219.53 121.312 219.712 121.313H247.719C247.9 121.313 248.08 121.276 248.247 121.205C248.415 121.134 248.567 121.029 248.695 120.898C248.823 120.766 248.925 120.61 248.994 120.438C249.064 120.266 249.099 120.082 249.099 119.896C249.099 119.71 249.064 119.525 248.994 119.353C248.925 119.182 248.823 119.025 248.695 118.894C248.567 118.762 248.415 118.658 248.247 118.587C248.08 118.515 247.9 118.479 247.719 118.479H219.718Z" fill="#E6E6E6"/>
<path d="M194.237 132.07C193.187 132.07 192.333 132.706 192.333 133.487C192.333 134.268 193.187 134.904 194.237 134.904H284.019C285.069 134.904 285.923 134.268 285.923 133.487C285.923 132.706 285.069 132.07 284.019 132.07H194.237Z" fill="#E6E6E6"/>
<path d="M194.237 140.572C193.187 140.572 192.333 141.207 192.333 141.989C192.333 142.77 193.187 143.406 194.237 143.406H263.352C264.402 143.406 265.257 142.77 265.257 141.989C265.257 141.207 264.402 140.572 263.352 140.572H194.237Z" fill="#E6E6E6"/>
<path d="M297.652 154.956H180.825V95.5928H297.652V154.956ZM183.153 152.566H295.323V97.9833H183.153V152.566Z" fill="#E6E6E6"/>
<path d="M233.581 70.3609C238.155 70.3609 241.863 66.5546 241.863 61.8594C241.863 57.1642 238.155 53.3579 233.581 53.3579C229.007 53.3579 225.299 57.1642 225.299 61.8594C225.299 66.5546 229.007 70.3609 233.581 70.3609Z" fill="#E0677D"/>
<path d="M252.709 56.1917C252.342 56.1917 251.991 56.341 251.732 56.6067C251.474 56.8724 251.328 57.2328 251.328 57.6086C251.328 57.9844 251.474 58.3448 251.732 58.6105C251.991 58.8763 252.342 59.0255 252.709 59.0255H317.782C318.148 59.0246 318.498 58.8749 318.756 58.6093C319.014 58.3437 319.159 57.9838 319.159 57.6086C319.159 57.2334 319.014 56.8736 318.756 56.608C318.498 56.3423 318.148 56.1926 317.782 56.1917H252.709Z" fill="#E6E6E6"/>
<path d="M252.709 64.6932C252.527 64.6926 252.347 64.7286 252.18 64.7994C252.012 64.8701 251.859 64.9741 251.73 65.1054C251.602 65.2368 251.5 65.3928 251.43 65.5647C251.36 65.7366 251.324 65.9209 251.323 66.1071C251.323 66.2933 251.358 66.4778 251.428 66.65C251.497 66.8222 251.598 66.9787 251.726 67.1105C251.854 67.2424 252.007 67.3471 252.174 67.4185C252.342 67.49 252.521 67.5269 252.703 67.527H303.907C304.273 67.527 304.624 67.3777 304.883 67.112C305.142 66.8463 305.287 66.4859 305.287 66.1101C305.287 65.7343 305.142 65.3739 304.883 65.1082C304.624 64.8425 304.273 64.6932 303.907 64.6932H252.709Z" fill="#E6E6E6"/>
<path d="M330.643 82.4452H213.816V41.8073H330.643V82.4452ZM216.144 80.0548H328.314V44.1977H216.144V80.0548Z" fill="#E6E6E6"/>
<path d="M101.091 237.245H106.98L109.781 213.927L101.089 213.927L101.091 237.245Z" fill="#FFB6B6"/>
<path d="M118.338 242.857L99.8288 242.858L99.8284 235.518L112.059 235.517C113.724 235.517 115.321 236.196 116.498 237.405C117.676 238.613 118.338 240.253 118.338 241.962L118.338 242.857V242.857Z" fill="#2F2E41"/>
<path d="M42.2017 229.41L47.3624 232.323L60.7619 213.275L53.1452 208.977L42.2017 229.41Z" fill="#FFB6B6"/>
<path d="M54.6806 242.858L38.4613 233.705L41.9065 227.272L52.6238 233.321C54.083 234.144 55.1638 235.529 55.6283 237.17C56.0929 238.812 55.9032 240.576 55.1009 242.073L54.6806 242.858V242.858Z" fill="#2F2E41"/>
<path d="M100.815 224.302C100.291 224.302 99.7839 224.106 99.3899 223.75C98.9958 223.394 98.7413 222.903 98.6738 222.369L91.3087 164.111C91.2761 163.853 91.1651 163.613 90.9914 163.424C90.8177 163.235 90.5903 163.107 90.3416 163.058C90.0929 163.01 89.8356 163.043 89.6066 163.154C89.3775 163.265 89.1884 163.447 89.0661 163.674L58.3713 220.839C58.118 221.306 57.71 221.663 57.2214 221.848C56.7328 222.032 56.196 222.03 55.7088 221.842L49.0182 219.225C48.7491 219.12 48.5032 218.961 48.2949 218.756C48.0867 218.552 47.9202 218.308 47.8054 218.036C47.6906 217.765 47.6297 217.473 47.6263 217.178C47.6229 216.882 47.6771 216.589 47.7856 216.315L69.0487 162.698C69.1025 162.561 69.139 162.419 69.1573 162.273C72.0372 139.392 79.3648 127.756 81.5419 124.735C81.701 124.513 81.8056 124.255 81.8471 123.982C81.8885 123.71 81.8656 123.432 81.7801 123.17L81.4809 122.249C81.3613 121.883 81.3368 121.491 81.4097 121.113C81.4827 120.734 81.6506 120.382 81.8968 120.09C89.7419 110.918 103.415 115.923 103.553 115.975L103.621 116.001L103.664 116.061C118.996 137.645 113.327 207.749 112.035 221.583C111.987 222.103 111.761 222.588 111.398 222.954C111.034 223.319 110.557 223.541 110.049 223.58L100.983 224.296C100.927 224.301 100.871 224.302 100.815 224.302Z" fill="#2F2E41"/>
<path d="M96.6584 62.4244C103.897 62.4244 109.765 56.4011 109.765 48.9709C109.765 41.5407 103.897 35.5174 96.6584 35.5174C89.42 35.5174 83.5521 41.5407 83.5521 48.9709C83.5521 56.4011 89.42 62.4244 96.6584 62.4244Z" fill="#FFB8B8"/>
<path d="M76.3959 134.578L114.962 138.181C111.6 126.18 108.519 114.221 111.03 102.305C114.219 91.6675 114.515 85.7743 106.103 80.7643L100.424 67.7592L90.1454 67.3756L85.1334 65.9655C81.0842 72.6484 79.4278 80.57 80.4486 88.37C82.6274 105.332 82.039 121.071 76.3959 134.578Z" fill="#E0677D"/>
<path d="M82.2497 74.5438L78.3705 56.2674C77.5611 51.9411 77.7642 47.4794 78.9631 43.2495C79.0936 42.816 79.251 42.3915 79.4342 41.9785C80.508 39.5764 82.1963 37.518 84.3193 36.0227C86.4424 34.5273 88.9207 33.6509 91.4905 33.4868C100.307 32.8617 101.601 33.8157 101.92 34.2863C106.901 34.0798 110.764 36.0555 112.527 39.7115C112.7 40.0744 112.793 40.4718 112.799 40.8755C112.806 41.2793 112.727 41.6798 112.567 42.0486C112.406 42.4174 112.169 42.7457 111.872 43.0104C111.575 43.275 111.225 43.4695 110.847 43.5803C108.384 44.309 104.924 45.1184 102.328 44.8804C97.1261 51.2856 99.2529 63.0212 104.531 70.0136L104.738 70.2884L99.509 71.3885L93.4321 62.7016C93.3118 62.5297 93.1377 62.4054 92.9389 62.3495C92.7401 62.2935 92.5285 62.3093 92.3397 62.3943C92.1509 62.4792 91.9962 62.6281 91.9014 62.816C91.8067 63.004 91.7777 63.2196 91.8193 63.4269L93.6643 72.6273L82.2497 74.5438Z" fill="#2F2E41"/>
<path d="M157.163 123.757L61.7762 192.997L38.9183 159.817L134.305 90.5767L157.163 123.757Z" fill="black"/>
<path d="M71.1169 171.416C74.8515 168.705 75.7381 163.4 73.0971 159.566C70.4562 155.733 65.2877 154.823 61.5531 157.533C57.8185 160.244 56.9319 165.55 59.5729 169.383C62.2138 173.217 67.3823 174.127 71.1169 171.416Z" fill="#E0677D"/>
<path d="M78.7643 148.511C78.4654 148.728 78.2627 149.058 78.2008 149.428C78.139 149.798 78.2229 150.179 78.4343 150.486C78.6457 150.793 78.9671 151.001 79.328 151.064C79.6888 151.128 80.0594 151.041 80.3583 150.824L133.489 112.257C133.787 112.04 133.989 111.71 134.05 111.34C134.112 110.97 134.028 110.591 133.817 110.284C133.605 109.978 133.285 109.77 132.925 109.706C132.564 109.642 132.194 109.728 131.895 109.943L78.7643 148.511Z" fill="#E6E6E6"/>
<path d="M83.5462 155.452C83.2473 155.668 83.0443 155.998 82.9819 156.368C82.9195 156.738 83.0027 157.118 83.2133 157.425C83.4239 157.732 83.7447 157.941 84.1051 158.006C84.4655 158.07 84.8361 157.985 85.1354 157.769L85.1402 157.766L126.942 127.422C127.241 127.205 127.444 126.875 127.506 126.505C127.568 126.134 127.484 125.754 127.272 125.447C127.168 125.295 127.035 125.166 126.882 125.066C126.728 124.967 126.558 124.9 126.379 124.868C126.018 124.805 125.647 124.891 125.348 125.108L83.5462 155.452Z" fill="#E6E6E6"/>
<path d="M157.163 123.757L61.7762 192.997L38.9183 159.817L134.305 90.5767L157.163 123.757ZM62.333 189.665L153.917 123.185L133.748 93.9086L42.1643 160.388L62.333 189.665Z" fill="#E6E6E6"/>
<path d="M374.968 111.463C375.306 111.45 375.643 111.509 375.958 111.637C376.257 111.76 376.528 111.945 376.754 112.18C376.981 112.417 377.158 112.699 377.275 113.009C377.397 113.338 377.453 113.689 377.439 114.04C377.425 114.401 377.344 114.756 377.198 115.085C377.056 115.407 376.859 115.7 376.615 115.95C376.372 116.199 376.088 116.4 375.775 116.544C375.458 116.691 375.115 116.771 374.768 116.781C374.429 116.791 374.092 116.729 373.778 116.599C373.481 116.474 373.211 116.287 372.987 116.051C372.763 115.813 372.587 115.531 372.473 115.221C372.352 114.894 372.298 114.545 372.312 114.195C372.327 113.836 372.408 113.483 372.552 113.156C372.694 112.837 372.89 112.546 373.131 112.298C373.372 112.049 373.654 111.848 373.965 111.703C374.28 111.557 374.621 111.475 374.968 111.463V111.463Z" fill="#F2F2F2"/>
<path d="M106.793 145.216L100.59 110.408L101.027 88.8829L87.0471 88.4344L89.6684 112.651L98.7076 146.231C97.9574 147.167 97.4976 148.312 97.3877 149.519C97.2778 150.726 97.5228 151.939 98.0911 153.002C98.6594 154.065 99.5248 154.928 100.576 155.481C101.627 156.034 102.815 156.25 103.987 156.103C105.159 155.956 106.262 155.452 107.152 154.655C108.042 153.859 108.679 152.807 108.981 151.635C109.283 150.463 109.236 149.225 108.846 148.081C108.456 146.937 107.741 145.939 106.793 145.216H106.793Z" fill="#FFB8B8"/>
<path d="M86.1734 90.6767C91.2384 88.6964 96.8359 88.6964 101.901 90.6767L101.027 72.7387C101.027 71.7965 100.846 70.8634 100.495 69.9929C100.144 69.1224 99.6289 68.3314 98.9798 67.6651C98.3307 66.9988 97.5602 66.4703 96.7121 66.1097C95.864 65.7491 94.9551 65.5635 94.0371 65.5635V65.5635C93.1192 65.5635 92.2103 65.7491 91.3622 66.1097C90.5141 66.4703 89.7435 66.9988 89.0945 67.6651C88.4454 68.3314 87.9305 69.1224 87.5792 69.9929C87.2279 70.8634 87.0471 71.7965 87.0471 72.7387L86.1734 90.6767Z" fill="#E0677D"/>
</g>
<defs>
<clipPath id="clip0_4_726">
<rect width="382" height="243" fill="white"/>
</clipPath>
</defs>
</svg>
