<svg clip-rule="evenodd" fill-rule="evenodd" height="512" image-rendering="optimizeQuality" shape-rendering="geometricPrecision" text-rendering="geometricPrecision" viewBox="0 0 43.3492 43.3492" width="512" xmlns="http://www.w3.org/2000/svg"><g id="Layer_x0020_1"><path d="m4.6978 31.9092 15.6982-15.6982c.0738.2792.2201.5433.4391.7624l5.5437 5.5472c.2118.2119.4738.3611.758.4371l-15.6967 15.6967c-.0755-.2827-.2244-.5452-.4387-.7594l-5.5473-5.5473c-.2134-.2134-.4748-.3625-.7563-.4385z"/><path d="m.8694 43.3289c-.222 0-.437-.0881-.5991-.2467-.2361-.2361-.3101-.5886-.1938-.8987l3.3904-8.9377c.1022-.2678.3313-.4652.6132-.5286.2819-.0599.5709.0247.7754.2291l5.5473 5.5473c.2044.2044.289.4934.2291.7754-.0599.2819-.2573.511-.5286.6132l-8.9377 3.3904c-.0953.0387-.194.0563-.2962.0563z"/><path d="m27.5767 22.1689c-.215 0-.4335-.0811-.5991-.2467l-5.5437-5.5472c-.3313-.3313-.3313-.867 0-1.1947l11.7077-11.7149c.3313-.3313.867-.3313 1.1947 0l5.5473 5.5473c.1586.1586.2467.3736.2467.5991s-.0881.4405-.2467.5991l-11.7078 11.7112c-.1656.1622-.3806.2468-.5991.2468z"/><path d="m35.4547 3.3866 3.1179-3.1178c.3313-.3313.867-.3313 1.1947 0l3.3129 3.3129c.1586.1586.2467.3736.2467.5991s-.0881.4405-.2467.5991l-3.1161 3.1161z"/><path d="m15.4672 16.8402c-.215 0-.4335-.0811-.5991-.2467-.3313-.3313-.3313-.867 0-1.1947l12.9447-12.9449c.1586-.1586.3736-.2467.5991-.2467.2256 0 .4405.0881.5991.2467l3.1719 3.1719c.3313.3313.3313.867 0 1.1947-.3313.3313-.867.3313-1.1947 0l-2.5728-2.5728-12.3491 12.3422c-.1656.1657-.3806.2503-.5991.2503z"/></g></svg>