<svg id="Layer_1" enable-background="new 0 0 53 53" height="512" viewBox="0 0 53 53" width="512" xmlns="http://www.w3.org/2000/svg"><g id="_x38_1"><path d="m39.3182755 7.6711526c.462635-.3118205 1.063858-.485054 1.787365-.5146055 2.7289352-.147758 6.0478897 1.6579471 7.4908218 3.9446301.3902855.6185455.5920525 1.2156925.601223 1.777173.0050926.2853251.2374306.513586.5217361.513586h.0081558c.2883797-.0050955.5186806-.242527.5135841-.529891-.0122261-.7561131-.2690201-1.5356646-.7622261-2.3172531-1.6202431-2.5709901-5.4283257-4.5438147-8.4160957-4.4317226-.9201736.038723-1.7027817.2710595-2.3274422.6919155-.2394714.161005-.3026505.486073-.1416435.7245235.1620217.2404891.4870911.3006116.7245217.1416441z"/><path d="m41.8576775 9.5308657c-.4718094.020381-.8753395.142663-1.2004089.362772-.2384491.1620245-.3006096.4860725-.1396065.7245235.1610069.2394705.4860764.299592.7245255.1396055.1610069-.1090345.3882484-.1722145.658287-.183423 1.0832214-.075408 2.5383835.7092381 3.1304321 1.6477566.1477585.2353935.2252045.456521.22826.6572685.0050964.285326.2374344.5125675.52174.5125675h.0091705c.2883835-.0050955.517662-.2435455.5125694-.5309095-.0071335-.393342-.1375694-.794837-.3882484-1.194293-.7938156-1.2584906-2.5985031-2.1633816-4.0567207-2.1358681z"/><path d="m3.2979233 13.3919363h.0091712c.2843068 0 .5166435-.2272415.5217385-.5125675.0101902-.562499.2129755-1.1606646.6022415-1.7781916 1.4408956-2.2866831 4.7649417-4.0811791 7.4908233-3.9446301.7224855.0295515 1.3247271.202785 1.7873621.5146055.2394705.1599865.5635195.098845.7245245-.141644.161005-.2394695.0968065-.5635185-.1416445-.7245235-.6256781-.420856-1.4082861-.6531925-2.3274431-.6919155-2.9999981-.115149-6.7968702 1.8617516-8.4160948 4.4317226-.493206.78057-.7499993 1.5601206-.7632465 2.3162346-.0050949.2883825.2241848.525814.5125678.5309095z"/><path d="m7.1131377 11.6667337c-.250679.397418-.382133.7999315-.389266 1.194293-.005095.287364.2241845.5258141.5125675.5309095h.0091715c.2843065 0 .5166435-.2272415.5217385-.5125675.003057-.2007475.0805025-.421875.2282605-.656249.592051-.9385185 2.0084901-1.7150126 3.1304326-1.6487761.2741165.0112085.4962635.073369.6593065.183423.238451.163044.5635185.099865.7245235-.1396055.1620245-.2394695.0988455-.5635185-.1396055-.7245235-.3271055-.2211275-.7306376-.342391-1.2014256-.362772-1.4928654-.034646-3.261886.8773776-4.0557035 2.1358681z"/><path d="m21.6576233 22.0964127c2.657608-1.5427971 6.9986362-1.5427971 9.6745853-.002037 1.0788898.6245327 2.0443478 1.6224728 2.1633816 2.8522396h13.6080055c-.3260841-2.141983-2.2061806-4.3338966-5.2520332-6.0896702-4.0638542-2.3437481-9.5370178-3.6348467-15.412693-3.6348467-5.7961903 0-11.3936729 1.3247271-15.3576641 3.6328096-3.0346441 1.7608681-4.8831482 3.9538002-5.1623602 6.0917072h13.6039305c.110691-1.2342262 1.07341-2.2308922 2.1348476-2.8502025z"/><path d="m9.4915323 35.0043526c9.4493818 5.4527817 24.7703629 5.4599152 34.1524887.0050926 3.6033211-2.0938301 6.8613853-5.4296608 6.8559723-9.5451679-.0050926-3.6134472-2.4853897-7.0343018-6.9843674-9.6328049-4.7160301-2.7218046-10.8994484-4.0832167-17.0757351-4.0832167-6.1803627 0-12.3525724 1.3624306-17.0441456 4.0883121-4.4282188 2.5732832-6.8657808 5.9615278-6.8678827 9.541667-.0005095.9581337.2209365 2.1232567.7282178 3.2898445 1.2134622 2.7876588 3.6154221 4.8236619 6.235452 6.3362733zm7.1319361-.6924248c-.9873028.5705872-2.5271072.5705872-3.5053673 0-1.1504116-.6612816-1.1504116-1.8840446-.0181513-2.5453243.9873037-.5705872 2.5181284-.5705872 3.5054312 0 1.1503487.6522388 1.1503487 1.8840427.0180874 2.5453243zm7.7641125.0001259c-.9693432.570652-2.5092754.570652-3.5057507 0-1.1504745-.6613426-1.1504745-1.8842316-.0091076-2.545578.9783878-.5706501 2.518383-.5706501 3.5057507 0 1.1414318.6523018 1.1504745 1.8842354.0091076 2.545578zm7.7332878-.0293579c-.95578.5574646-2.4602356.5574646-3.4248676 0-1.1239166-.6460609-1.1239166-1.8407364-.008852-2.4868584.9558411-.5574684 2.4602985-.5574684 3.4248657 0v-.0087891c1.1151275.6549111 1.1239814 1.8495865.0088539 2.4956475zm7.7738533 0c-.9646301.5574646-2.4691505.5574646-3.4248657 0-1.1239166-.6460609-1.1239166-1.8407364-.0088501-2.4868584.9557762-.5574684 2.4601707-.5574684 3.4160118 0 1.1239166.637207 1.1327705 1.8407974.017704 2.4868584zm-29.3383122-16.3296223c4.1188822-2.3987751 9.9079399-3.7744532 15.8824596-3.7744532 6.0560417 0 11.7146645 1.3400126 15.934433 3.7734346 3.6215973 2.0879745 5.7432022 4.8220081 5.8226852 7.5010128.0084686.2917595-.2258415.5370255-.52174.5370255h-14.280876c-.2550125.8832359-.9519577 1.693676-2.0153065 2.3182716-2.72015 1.572731-6.9774914 1.5624142-9.6959839.002039-1.0732212-.6240864-1.7818222-1.435482-2.046896-2.3203106h-14.2747635c-.139606 0-.2720785-.0560474-.3709235-.154892-.097826-.0988445-.151834-.232336-.150815-.370924.0234374-2.6790065 2.107335-5.4160957 5.7177266-7.5112037z"/><path d="m30.8104706 22.9982471c-2.3992214-1.3818569-6.2727108-1.368227-8.6280518 0-2.1438274 1.2516766-2.1947155 3.1211967.0214005 4.4082851 2.392662 1.3736401 6.2730923 1.3726215 8.6494503 0 2.1758632-1.2789363 2.1319179-3.1490306-.042799-4.4082851z"/><path d="m36.1123734 39.031395c-.0515251.012291-.1005669.0288506-.1522179.0409508-.3131561.0734978-.6361885.1271248-.9532928.1929779-2.712635.5630112-5.5555744.8606262-8.4080067.8606262-6.3749943 0-12.7581415-1.4062462-17.6290627-4.2187462-2.5616918-1.4785347-5.0602036-3.5719223-6.4221888-6.2387009-.0108273-.0212078-.0247114-.0417156-.0353475-.0629234l-.0122283 3.5095062c-.0319706 11.761795 25.5978717 18.6659164 41.1174983 9.6480904 4.4113388-2.5628357 6.8457832-5.9408913 6.8559723-9.5115395l.0122261-3.5023766c-.0021629.0042686-.0050926.0084724-.0072594.0127392-2.5637931 5.0086155-8.8791122 7.9563237-14.3660926 9.2693959z"/></g></svg>