<svg id="Glyph" enable-background="new 0 0 100 100" height="512" viewBox="0 0 100 100" width="512" xmlns="http://www.w3.org/2000/svg"><path d="m79.4 72.1c-1.8-5.7-10.4-12.1-14-14.7 6.2-5.8 8.3-12.4 6.3-20.1-.7-2.6-2.8-5.5-5.3-8.8-4.1-5.5-8.9-11.8-6.5-16.8.7-1.4-.6-2.4-1.8-2-10.1 3.3-27.7 18.6-28.9 29.8-.5 4.6-.3 12.6 4.9 18-4.7 3.5-11.3 9.4-13.2 16.3-1.8 6.3-3.2 15.3-3.2 15.6-.3 1.7 1.5 2.1 2.4 1.4 3.9-2.9 11-7.4 13.7-7.4h.1c1.6.1 4.6 1.8 7.3 3.3 3.4 1.9 6.6 3.7 9 3.7 2.6 0 6.1-1.9 9.6-3.9 2.6-1.5 5.3-3 7-3.2 3.8-.5 10.8 5 13.3 7 .9.8 2.7.3 2.5-1.3-.2-.3-1-10-3.2-16.9zm-28.7-16.7c-7.9 0-14.2-4.7-14.2-12.5 0-7.9 13.6-18.1 13.6-18.1s14.9 10.2 14.9 18.1c-.1 7.9-6.5 12.5-14.3 12.5z"/></svg>