<svg id="Solid" height="512" viewBox="0 0 64 64" width="512" xmlns="http://www.w3.org/2000/svg"><circle cx="51" cy="10" r="2"/><path d="m25.024 45a20.36 20.36 0 0 1 1.154-5.809 21.644 21.644 0 0 1 -2.659-.92 15.992 15.992 0 0 0 -1.519 6.729z"/><path d="m44.306 10.832a1.591 1.591 0 0 1 1.411-.832h1.283a3.974 3.974 0 0 1 1.478-3.079l-4.229-2.538a16.713 16.713 0 0 0 -23.428 6.617h23.418a1.728 1.728 0 0 1 .067-.168z"/><path d="m57.643 23.181a1 1 0 0 0 -1.409.123l-2.45 2.919-.289-3.31a1 1 0 1 0 -1.992.174l.463 5.3-4.689 5.588q.471 1.018.867 2.079l1.5-1.785 5.3-.464a1 1 0 0 0 .909-1.083 1 1 0 0 0 -1.083-.909l-3.31.29 6.306-7.515a1 1 0 0 0 -.123-1.407z"/><path d="m12.034 28.39.463-5.3a1 1 0 1 0 -1.992-.174l-.289 3.31-2.45-2.926a1 1 0 0 0 -1.409-.123 1 1 0 0 0 -.123 1.409l6.306 7.514-3.31-.29a1 1 0 0 0 -1.083.909 1 1 0 0 0 .909 1.083l5.3.464 1.5 1.785q.4-1.059.867-2.079z"/><path d="m43.645 34.205a3.956 3.956 0 0 0 1.595-2.715 4 4 0 0 0 -.9-3.056c-.1-.115-.2-.214-.3-.326a13.963 13.963 0 0 1 -24.08 0c-.1.112-.2.211-.3.326a3.985 3.985 0 0 0 .7 5.772 19.766 19.766 0 0 0 23.29 0z"/><path d="m32 33a11.934 11.934 0 0 0 11.82-14h-23.64a11.934 11.934 0 0 0 11.82 14zm5-13a1 1 0 1 1 -1 1 1 1 0 0 1 1-1zm-8.6 6.2a1 1 0 0 1 1.4.2 2.749 2.749 0 0 0 4.4 0 1 1 0 0 1 1.6 1.2 4.751 4.751 0 0 1 -7.6 0 1 1 0 0 1 .2-1.4zm-1.4-6.2a1 1 0 1 1 -1 1 1 1 0 0 1 1-1z"/><circle cx="32" cy="44" r="1"/><path d="m44.815 35.826a21.605 21.605 0 0 1 -16.671 3.818 18.355 18.355 0 0 0 -1.144 6.356 1 1 0 0 1 -1 1h-5a1 1 0 0 1 -1-1v-.929a17.984 17.984 0 0 1 1.722-7.67 22.266 22.266 0 0 1 -2.538-1.575 5.893 5.893 0 0 1 -.765-.67 27.011 27.011 0 0 0 -2.419 10.844c0 9.72 6.28 16 16 16s16-6.28 16-16a27.02 27.02 0 0 0 -2.419-10.845 5.77 5.77 0 0 1 -.766.671zm-12.815 19.174a3 3 0 1 1 3-3 3 3 0 0 1 -3 3zm0-8a3 3 0 1 1 3-3 3 3 0 0 1 -3 3z"/><circle cx="32" cy="52" r="1"/><path d="m20 17h24a2 2 0 0 0 0-4h-24a2 2 0 0 0 0 4z"/></svg>