<svg id="Capa_1" enable-background="new 0 0 511.943 511.943" height="512" viewBox="0 0 511.943 511.943" width="512" xmlns="http://www.w3.org/2000/svg"><g><path d="m68.088 154.424c10.303 6.302 18.606 15.347 24.011 26.158l26.157 52.313c7.913-4.405 17.258-6.809 26.32-6.809 13.729 0 27.878 5.582 38.026 15.73l48.424 49.21c10.132 10.58 18.489 22.496 24.946 35.525 6.457-13.029 14.813-24.945 24.945-35.525l48.384-49.171c10.186-10.187 26.004-15.769 38.066-15.769 6.892 0 18.407 2.403 26.32 6.809l26.156-52.313c5.405-10.811 13.708-19.855 24.011-26.158 10.14-6.202 21.773-9.48 33.641-9.481h.002c3.736 0 7.471.334 11.157.982 1.851-8.434 2.806-17.128 2.806-25.97 0-32.057-12.484-62.194-35.151-84.861-46.793-46.79-122.93-46.789-169.723.002l-30.615 30.614-30.614-30.615c-46.793-46.791-122.931-46.791-169.724 0-22.667 22.665-35.151 52.803-35.151 84.859 0 8.842.955 17.537 2.806 25.97 3.686-.648 7.423-.982 11.159-.982 11.868.001 23.501 3.279 33.641 9.482z"/><path d="m209.359 311.776-48.009-48.786c-4.44-4.441-10.41-6.905-16.778-6.905-.028 0-.058 0-.087 0-6.44.022-12.51 2.558-17.09 7.138-9.426 9.426-9.513 24.676-.194 33.995l33.568 33.568-21.213 21.213-33.568-33.568c-16.881-16.881-20.133-42.318-9.816-62.623l-29.635-60.309c-7.124-14.499-23.262-22.22-39.022-18.671-18.313 4.124-30.091 21.986-26.668 40.443l21.669 116.843 101.122 98.563v79.265h117.333v-121.452c0-.003 0-.007 0-.01-.002-29.328-11.327-57.523-31.612-78.704z"/><path d="m302.583 311.776 48.009-48.786c4.44-4.441 10.41-6.905 16.778-6.905h.087c6.44.022 12.51 2.558 17.09 7.138 9.426 9.426 9.513 24.676.194 33.995l-33.568 33.568 21.213 21.213 33.568-33.568c16.881-16.881 20.133-42.318 9.816-62.623l29.635-60.309c7.124-14.499 23.262-22.22 39.022-18.671 18.313 4.124 30.091 21.986 26.668 40.443l-21.669 116.843-101.122 98.563v79.265h-117.333v-121.452c0-.003 0-.007 0-.01.003-29.328 11.328-57.523 31.612-78.704z"/></g></svg>