<svg id="Layer_1" height="512" viewBox="0 0 256 256" width="512" xmlns="http://www.w3.org/2000/svg"><g><g><path d="m128.27 247.56c38.843 0 73.751-24.809 85.389-61.867 2.462-7.839 3.961-16.16 3.961-24.8 0-48.333-39.571-87.333-39.571-87.333s2.726 15.788 1.03 29.227-7.946 21.689-7.946 21.689 4.564-21.102-1.5-35.25c-6.98-16.284-19.999-23.838-25-38.5-5.756-16.875 2.869-36.5 2.869-36.5s-28.369 10.962-48.869 39.25c-23.25 32.083-7.583 73.417-7.583 73.417s-2.167-11.417-13.917-20.667-6.99-23.596-6.99-23.596-31.762 35.597-31.762 78.264c0 11.583 3.317 23.265 8.149 34.138 14.288 32.147 46.56 52.528 81.74 52.528z" fill="#d10028"/></g><g><g><path d="m178.048 73.56s1.48 8.581 1.579 18.474c9.26 15.51 17.993 36.155 17.993 58.859 0 8.64-1.499 16.961-3.961 24.8-11.638 37.058-46.546 61.867-85.389 61.867-10.441 0-20.62-1.808-30.155-5.174 14.553 9.711 31.961 15.174 50.155 15.174 38.843 0 73.751-24.809 85.389-61.867 2.462-7.839 3.961-16.16 3.961-24.8-.001-48.333-39.572-87.333-39.572-87.333z" fill="#b7022d"/></g></g><g><path d="m173.098 182.033c0-24.406-16.011-40.148-25.981-50.247-17.753-17.987-14.601-38.453-14.601-38.453s-34.795 29.914-40.262 54.726c-5.227 23.731 7.922 36.923 7.922 36.923s-6.127-2.365-9.937-6.603c-4.853-5.397-6.597-11.936-6.597-11.936s-2.028 4.907.631 21.695c1.89 11.932 8.09 20.862 15.365 27.434 17.682 15.972 45.257 14.426 61.283-3.207 6.867-7.554 12.177-17.534 12.177-30.332z" fill="#ffa91a"/></g><g><path d="m104.443 182.763c-.53 0-1.059-.209-1.452-.624-.815-.86-7.967-8.814-7.967-23.119 0-3.274.383-6.672 1.137-10.099 1.105-5.016 3.612-10.675 7.45-16.82.585-.937 1.818-1.223 2.756-.637.937.585 1.222 1.819.637 2.756-3.596 5.757-5.929 10.992-6.936 15.561-.692 3.145-1.043 6.253-1.043 9.239 0 12.974 6.589 20.071 6.87 20.367.76.801.727 2.067-.075 2.827-.388.367-.883.549-1.377.549zm5.367-54.213c-.411 0-.826-.126-1.183-.388-.89-.654-1.082-1.906-.428-2.796l.587-.793c.661-.885 1.913-1.066 2.799-.407.885.661 1.067 1.914.407 2.799l-.57.769c-.391.534-.998.816-1.612.816z" fill="#ffc91d"/></g><g><path d="m147.117 131.786c-17.753-17.987-14.601-38.453-14.601-38.453s-11.054 9.505-21.681 22.242c9.784 10.12 22.262 24.91 22.262 46.458 0 12.798-5.31 22.778-12.177 30.333-7.834 8.62-18.429 13.384-29.278 14.148 2.358 3.421 5.087 6.432 7.995 9.059 17.682 15.972 45.257 14.426 61.283-3.207 6.867-7.555 12.177-17.535 12.177-30.333.001-24.406-16.011-40.147-25.98-50.247z" fill="#f79219"/></g><g><path d="m147.117 131.786c-17.753-17.987-14.601-38.453-14.601-38.453s-6.977 6.005-15.171 14.854c2.201 4.449 5.333 9.101 9.772 13.599 9.969 10.1 25.981 25.841 25.981 50.247 0 12.798-5.31 22.778-12.177 30.333-10.679 11.75-26.484 16.345-41.074 13.386 17.69 15.775 45.11 14.179 61.074-3.386 6.867-7.555 12.177-17.535 12.177-30.333 0-24.406-16.012-40.147-25.981-50.247z" fill="#ef7816"/></g><g><path d="m164.737 8.44s-12.008 7.572-11.78 21.626c.12 7.423 3.912 13.391 6.683 20.003 2.475 5.906 2.967 14.89 2.967 14.89s8.227-7.061 9.106-22.723c.345-6.146-2.909-13.583-4.606-18.908-2.627-8.245-2.37-14.888-2.37-14.888z" fill="#d10028"/></g><g><path d="m77.564 76.47s-10.164-9.955-6.971-23.675c1.686-7.247 9.211-11.987 14.146-17.208 5.03-5.321 7.346-14.936 7.346-14.936s5.378 6.569 1.992 19.291c-2.176 8.177-8.968 14.101-11.756 18.96-4.317 7.52-4.757 17.568-4.757 17.568z" fill="#d10028"/></g></g></svg>