<svg id="Halloween_icon" height="512" viewBox="0 0 512 512" width="512" xmlns="http://www.w3.org/2000/svg" data-name="Halloween icon"><g id="witch_сauldron" data-name="witch сauldron"><circle cx="279.662" cy="88.237" r="24.757" transform="matrix(.707 -.707 .707 .707 19.518 223.595)"/><path d="m475.909 10.885c-13.609-20.862-44.994-2.032-58.051 17.233-6.846 10.1-90.7 157.826-90.7 157.826s-146.944 30.839-222.229-19.044l29.932 7.256s18.141-25.4 29.026-5.442c9.07-33.561 40.817-31.747 51.7-5.443 9.071-12.7 17.234-7.256 23.583-1.814 9.978-16.326 17.234-12.7 24.49-5.442 9.071-22.676 31.747-21.769 37.189.907 11.792-18.141 25.432-.432 25.432 5.917 16.327-27.211 27.486-49.974 27.486-49.974l-37.5-9.712c-19.048 28.118-58.051 30.259-73.471-5.116-74.56-3.287-151.476 19.882-169.616 42.559s-9.071 44.735 58.05 81.017c-21.769 3.628-59.864-19.339-59.864-19.339 6.349 27.212-14.513 35.375-27.212 68.936s-39 117.915 62.586 195.013c-11.791 20.862-5.442 79.82 36.282 19.048 23.583 7.257 125.172 39.91 201.363-6.349 9.978 29.932 54.423 61.679 43.538-15.42 24.49-20.862 103.4-80.727 48.073-201.363-13.605-28.118-27.211-43.937-26.3-54.822-18.135 15.179-57.8 15.6-57.8 15.6 22.8-9.533 70.584-35.093 76.954-55.983 6.562-21.522-20.971-32.69-39.112-40.853 14.513-36.282 49.887-84.355 57.144-88.89 24.492 8.161 42.633-5.445 29.027-26.306zm-255.786 103.4a10.885 10.885 0 1 1 -10.884 10.885 10.885 10.885 0 0 1 10.884-10.883zm-143.312 249.439c-9.978-28.119-10.394-70.019 9.07-97.054 8.821-12.251 22.676-10.884 8.164 14.513-27.212 49.887 2.721 107.031 24.49 141.5 0-.002-31.747-30.841-41.724-58.959zm91.611 91.611c-4.535 6.349-23.583-8.163-33.561-20.862 0 0 38.096 14.513 33.561 20.862zm235.154-159.058c13.635 34.34-5.114 54.546-34.091 75 4.841-12.661 12.544-29.943 2.8-41.832-8.419-10.273-27.048-23.431-21.551-39.135 5.966-17.044 40.787-24.392 52.842 5.967z"/><circle cx="197.447" cy="58.958" r="21.769" transform="matrix(.23 -.973 .973 .23 94.702 237.577)"/><path d="m270.011 14.513a14.513 14.513 0 1 1 -14.511-14.513 14.513 14.513 0 0 1 14.511 14.513z"/></g></svg>