<svg id="Glyph" enable-background="new 0 0 64 64" height="512" viewBox="0 0 64 64" width="512" xmlns="http://www.w3.org/2000/svg"><path d="m2 57h6v5h-6z"/><path d="m2 10h6v45h-6z"/><path d="m5 2-3 6h6z"/><path d="m10 44.62v10.776c.453.416.927.802 1.443 1.122z"/><path d="m10 23.505c.234-.782.487-1.559.784-2.323-.236-.431-.516-.994-.784-1.643z"/><path d="m33 6c-4.647 0-9.037.933-12.933 2.617 1.456 1.899 2.933 4.33 2.933 6.383 0 2.524-1.086 4.909-1.784 6.182 1.802 4.64 2.453 9.668 1.853 14.618l-2.538 20.933c5.853-4.8 4.744-21.733 12.469-21.733 9 0 6 23 16 23s13-11 13-26-13-26-29-26zm0 17c-3.314 0-6-2.686-6-6s2.686-6 6-6 6 2.686 6 6-2.686 6-6 6zm10 4c0-3.314 2.686-6 6-6s6 2.686 6 6-2.686 6-6 6-6-2.686-6-6zm9 22c-2.761 0-5-2.239-5-5s2.239-5 5-5 5 2.239 5 5-2.239 5-5 5z"/><path d="m19 21s2-3 2-6-5-8-5-8-5 5-5 8 2 6 2 6z"/><path d="m19.761 23h-7.522c-1.376 4.026-1.837 8.318-1.323 12.56l2.843 23.454c.138 1.134 1.1 1.986 2.241 1.986s2.103-.852 2.241-1.985l2.843-23.454c.514-4.243.053-8.535-1.323-12.561z"/></svg>