<svg height="512" viewBox="0 0 56 56" width="512" xmlns="http://www.w3.org/2000/svg"><g id="Page-1" fill="none" fill-rule="evenodd"><g id="049---Makeup-Compact" fill="rgb(0,0,0)" fill-rule="nonzero"><path id="Shape" d="m25.594 11.806c7.44-.627 11.406-2.583 11.406-3.806 0-1.4-5.495-4-16-4s-16 2.6-16 4c0 1.223 3.966 3.179 11.406 3.806.3743512-.5051786.9652393-.8039589 1.594-.806h6c.6287607.0020411 1.2196488.3008214 1.594.806z"/><path id="Shape" d="m24.162 24.551 4.131-1.489c-2.1909206-1.3544927-4.7172015-2.0687655-7.293-2.062-7.0082052-.0014712-12.93777232 5.1792838-13.87671891 12.1243052s3.40204671 13.5143261 10.15904591 15.3738703 13.8479569-1.5636571 16.594673-8.0111755c-.5455851-.1832624-1.0798516-.3986386-1.6-.645-3.5246558-1.7353387-6.3766613-4.5873442-8.112-8.112-.8066326-1.6495502-1.2535031-3.4516891-1.311-5.287-.0107428-.8446604.5139963-1.6036866 1.308-1.892zm-13.45 13.408c-.5296158.1555082-1.08507085-.147508-1.241-.677-.21675684-.7128471-.37264913-1.4427977-.466-2.182-.03572656-.3563724.12138317-.704734.41214746-.9138603.29076429-.2091264.67100914-.2472461.99750004-.1.3264908.1472461.5496259.4574879.5853525.8138603.0816147.6160448.2133857 1.2243987.394 1.819.0741844.2548758.0439863.5287892-.0839402.7613829-.1279266.2325937-.3430832.4047799-.5980598.4786171zm10.288 9.041c-.033 0-.066 0-.1-.005-3.8066488-.2788738-7.2782198-2.2788285-9.429-5.432-.2130905-.2948842-.2492144-.6822333-.0943257-1.011435.1548887-.3292016.4763488-.5483082.8393874-.5721248s.7103687.151415.9069383.4575598c1.8101375 2.6736536 4.754928 4.3599772 7.977 4.568.5302099.0532207.9255482.5128564.8988712 1.0450625-.026677.532206-.465997.9500042-.9988712.9499375z"/><path id="Shape" d="m34.17 38.477c1.0920627.4149717 2.2461864.6431596 3.414.675l4.416-12.284-4.867-4.868-12.293 4.433c.0374812 1.1631872.267603 2.3121065.681 3.4l3.66-2.028c.3129818-.1776099.697258-.1733545 1.00623.0111426.3089719.1844972.4949841.5207795.4870741.8805576-.00791.3597782-.208522.6875602-.5253041.8582998l-3.787 2.1c.5377346.9546087 1.1782049 1.8475785 1.91 2.663l4.222-4.222c.3923789-.3789722 1.0160848-.3735524 1.4018186.0121814s.3911536 1.0094397.0121814 1.4018186l-4.222 4.222c.8151695.7318218 1.7081803 1.3719861 2.663 1.909l2.1-3.786c.1707396-.3167821.4985216-.5173941.8582998-.5253041.3597781-.00791.6960604.1781022.8805576.4870741.1844971.308972.1887525.6932482.0111426 1.00623zm1.859-9.506c-.4043959-.0000863-.7689341-.2437275-.923678-.6173454-.1547439-.373618-.0692299-.8036603.216678-1.0896546l.707-.707c.2510745-.2599566.6228779-.3642126.9725073-.2726972.3496295.0915155.6226744.3645604.7141899.7141899.0915154.3496294-.0127406.7214328-.2726972.9725073l-.707.707c-.1874927.1875494-.4418052.2929434-.707.293z"/><path id="Shape" d="m3.23 9.028c-.14579342-.32345476-.22405632-.6732559-.23-1.028 0-3.939 9.055-6 18-6s18 2.061 18 6c-.0059437.3547441-.0842066.70454524-.23 1.028 2.083-.969 3.23-2.047 3.23-3.028 0-2.832-8.98-6-21-6s-21 3.168-21 6c0 .981 1.147 2.059 3.23 3.028z"/><path id="Rectangle-path" d="m40.393 17.607h4v8h-4z" transform="matrix(.707 -.707 .707 .707 -2.862 36.305)"/><path id="Shape" d="m55.121 8.879c-1.1870572-1.13295562-3.0549428-1.13295562-4.242 0l-7.779 7.778 4.243 4.243 7.778-7.778c1.1711458-1.1714996 1.1711458-3.0705004 0-4.242z"/><path id="Shape" d="m39.448 39.838c-.2827384.7871832-1.0285811 1.3126724-1.865 1.314h-.023c-.5811727-.0105667-1.1606193-.0667392-1.733-.168-3.0106452 7.4656588-11.0991268 11.5321156-18.8870567 9.495404-7.7879298-2.0367117-12.85006215-9.5423377-11.82036191-17.5260563 1.02970025-7.9837186 7.83057331-13.9593134 15.88041861-13.9533477 3.4706304-.0106457 6.8478298 1.123992 9.608 3.228l5.363-1.928c-2.7341738-2.7793405-6.185854-4.745597-9.971-5.68v.38c0 1.1045695-.8954305 2-2 2h-6c-1.1045695 0-2-.8954305-2-2v-.376c-10.13127527 2.4733423-16.9061378 12.0149412-15.90139 22.3952419s9.48382927 18.4454138 19.90139 18.9297581v-.949c0-.5522847.4477153-1 1-1s1 .4477153 1 1v.949c11.184185-.5372398 19.9814494-9.7519345 20-20.949 0-.658-.041-1.311-.1-1.96z"/><path id="Rectangle-path" d="m18 13h6.001v2h-6.001z"/></g></g></svg>