<svg height="512" viewBox="0 0 64 64" width="512" xmlns="http://www.w3.org/2000/svg"><g id="solid"><path d="m54.471 38.371c3.236-5.319 4.169-11.818 2.56-17.832-2.677-10.004-11.778-16.991-22.134-16.991h-1.476c-12.428 0-22.539 10.111-22.539 22.539v2.99l-4.191 6.441c-.489.751-.628 1.677-.381 2.539s.855 1.573 1.668 1.951l3.01 1.399 1.192 6.788c.606 3.449 3.588 5.953 7.091 5.953h5.517c.723 0 1.354.514 1.501 1.221l.891 4.286c.096.464.505.796.979.796h21.25c.301 0 .586-.136.776-.369s.265-.54.203-.834l-1.36-6.546c-.538-2.59-.077-5.26 1.298-7.519zm-31.869-8.227c-.953.742-2.183 1.15-3.464 1.15-1.282 0-2.512-.409-3.465-1.15-.436-.339-.514-.968-.175-1.403.34-.436.968-.514 1.403-.175 1.207.939 3.265.94 4.472 0 .435-.339 1.063-.262 1.403.175.34.435.262 1.064-.174 1.403zm19.896-9.289-6.513 6.513c-.936.936-2.453.936-3.39 0l-6.513-6.513c-2.044-2.044-1.925-5.434.36-7.321 1.991-1.645 4.958-1.349 6.784.477l1.064 1.064 1.064-1.064c1.826-1.826 4.792-2.122 6.784-.477 2.284 1.887 2.404 5.277.36 7.321z"/></g></svg>