<svg id="Layer_1" enable-background="new 0 0 512.156 512.156" height="512" viewBox="0 0 512.156 512.156" width="512" xmlns="http://www.w3.org/2000/svg"><path d="m479.993 327.169h-17.172c-5.486 0-10.641-2.624-13.868-7.06l-96.208-132.234c-7.689-10.06-19.628-15.962-32.29-15.962h-21.153c-4.569 0-8.274-3.704-8.274-8.274v-19.601c0-3.87 1.979-7.449 5.213-9.574 20.114-13.213 33.318-36.084 33.015-62.018-.467-39.938-33.501-72.412-73.442-72.229-40.216.185-72.761 32.843-72.761 73.103 0 25.562 13.12 48.06 32.994 61.127 3.243 2.132 5.239 5.712 5.239 9.594v19.598c0 4.569-3.704 8.274-8.274 8.274h-26.764c-12.662 0-24.601 5.902-32.29 15.962l-96.055 133.294c-3.223 4.473-8.4 7.124-13.914 7.124h-11.827c-17.762-.001-32.162 14.399-32.162 32.162 0 17.763 14.399 32.162 32.162 32.162h31.595c-19.493 10.89-32.682 31.715-32.682 55.63 0 35.176 28.516 63.692 63.692 63.692h269.827l-211.97-117.449c-16.85-6.535-34.8-9.935-52.967-9.935h-1.249c2.49-1.989 4.746-4.301 6.678-6.924l61.073-90.942v80.16c.296.14.594.272.885.433l89.753 49.745 83.748-50.241v-80.097l61.229 89.818c2.02 2.743 4.392 5.147 7.017 7.194-23.155.346-47.608 6.708-68.246 18.171v-.102l-53.436 32.057 137.145 76.011c29.28-5.739 51.375-31.53 51.375-62.49v-.306c0-24.024-13.306-44.791-32.945-55.548h37.31c17.763 0 32.162-14.399 32.162-32.162 0-17.764-14.4-32.163-32.163-32.163z"/></svg>