<svg id="Layer_1" enable-background="new 0 0 512 512" height="512" viewBox="0 0 512 512" width="512" xmlns="http://www.w3.org/2000/svg"><g id="_x30_6_Makeup_brush"><g><path d="m346.2 0c-2.4-.2-4.6 1.2-5.5 3.5l-51.4 139.9c4.1.1 8.1 1.7 11 4.7l16.6 16.6 25.2-31.2c1.8-2.3 5.2-2.6 7.5-.8s2.6 5.2.8 7.5l-25.9 32.1 15.2 15.2 32.1-25.9c2.3-1.8 5.6-1.5 7.5.8 1.8 2.3 1.5 5.6-.8 7.5l-31.1 25.1 16.6 16.6c3 3.2 4.6 7 4.7 11l139.9-51.4c2.3-.9 3.7-3.1 3.5-5.5-9-98-67.8-156.8-165.9-165.7z"/><g><path d="m154.8 285.3-129.3 104.6c-31.7 25.6-34.2 73.1-5.4 102 29 29 76.5 26.1 102-5.4l104.6-129.4z"/><path d="m356.5 219.1-63.6-63.6c-2.1-2.1-5.4-2.1-7.5 0l-122.6 122.7 71 71 122.7-122.7c1-1 1.5-2.3 1.5-3.7s-.6-2.7-1.5-3.7z"/></g></g></g></svg>