<svg height="511pt" viewBox="1 -56 511.99924 511" width="511pt" xmlns="http://www.w3.org/2000/svg"><path d="m218.835938 205.96875c-3.296876 0-6.207032-2.15625-7.167969-5.3125l-22.765625-74.78125h-68.1875c-4.140625 0-7.496094-3.355469-7.496094-7.496094 0-4.136718 3.355469-7.492187 7.496094-7.492187h73.738281c3.300781 0 6.210937 2.15625 7.171875 5.3125l17.210938 56.542969 25.140624-82.578126c.957032-3.15625 3.871094-5.3125 7.167969-5.3125s6.207031 2.15625 7.167969 5.3125l10.878906 35.738282h65.90625c4.136719 0 7.492188 3.355468 7.492188 7.496094 0 4.136718-3.355469 7.492187-7.492188 7.492187h-71.457031c-3.296875 0-6.210937-2.15625-7.167969-5.308594l-5.328125-17.503906-25.140625 82.578125c-.957031 3.15625-3.867187 5.3125-7.167968 5.3125zm0 0"/><path d="m496.191406 63.578125c-2.035156-3.609375-6.605468-4.882813-10.210937-2.847656-3.601563 2.03125-4.878907 6.601562-2.84375 10.207031 9.042969 16.039062 13.84375 34.253906 13.875 52.675781.09375 49.113281-28.128907 103.75-83.875 162.390625-45.386719 47.742188-96.316407 84.203125-116.105469 97.660156-3.308594 2.253907-7.585938 2.253907-10.898438 0-17.542968-11.929687-60.1875-42.375-101.488281-82.832031h69.917969v30.367188c0 9.640625 7.84375 17.484375 17.484375 17.484375h16.324219c9.644531 0 17.488281-7.84375 17.488281-17.484375v-.632813c.816406.117188 1.648437.199219 2.496094.199219h16.324219c9.640624 0 17.484374-7.84375 17.484374-17.484375v-85.523438c0-9.640624-7.84375-17.484374-17.484374-17.484374h-16.324219c-.847657 0-1.679688.082031-2.496094.203124v-.636718c0-9.640625-7.84375-17.484375-17.488281-17.484375h-16.324219c-9.640625 0-17.484375 7.84375-17.484375 17.484375v29.628906h-23.625c-4.140625 0-7.496094 3.355469-7.496094 7.492188 0 4.140624 3.355469 7.496093 7.496094 7.496093h23.625v31.390625h-166.957031v-31.390625h109.4375c4.140625 0 7.496093-3.355469 7.496093-7.496093 0-4.136719-3.355468-7.492188-7.496093-7.492188h-66.019531c-29.839844-41.277344-44.9375-80.242188-44.871094-115.851562.109375-59.65625 48.707031-108.128907 108.363281-108.128907h.152344c32.960937.042969 63.71875 14.847657 84.386719 40.613281 3.0625 3.820313 7.628906 6.007813 12.527343 6.007813 4.898438 0 9.464844-2.191406 12.527344-6.007813 20.667969-25.765624 51.425781-40.566406 84.386719-40.613281h.152344c27.699218 0 54.097656 10.546875 74.359374 29.710938 3.003907 2.84375 7.75 2.710937 10.59375-.292969 2.84375-3.007812 2.710938-7.75-.296874-10.59375-23.054688-21.8125-53.109376-33.8125-84.65625-33.8125-.054688 0-.117188 0-.175782 0-37.519531.050781-72.53125 16.898438-96.054687 46.226562-.425781.527344-1.25.527344-1.671875 0-23.523438-29.324218-58.535156-46.171874-96.054688-46.226562-.0625 0-.113281 0-.175781 0-67.902344 0-123.226563 55.183594-123.351563 123.089844-.066406 36.238281 13.90625 75.167968 41.554688 115.878906h-25.113281v-29.632812c0-9.640626-7.84375-17.484376-17.484375-17.484376h-16.328125c-9.640625 0-17.484375 7.84375-17.484375 17.484376v.636718c-.816406-.117187-1.648438-.199218-2.496094-.199218h-16.328125c-9.640625 0-17.484375 7.84375-17.484375 17.484374v85.519532c0 9.640625 7.84375 17.484375 17.484375 17.484375h16.328125c.847656 0 1.679688-.082031 2.496094-.199219v.636719c0 9.640625 7.84375 17.484375 17.484375 17.484375h16.328125c9.640625 0 17.484375-7.84375 17.484375-17.484375v-30.367188h75.894531c45.289062 46.617188 94.796875 82.027344 114.203125 95.226563 4.214844 2.867187 9.046875 4.300781 13.875 4.300781 4.832031 0 9.664063-1.433594 13.878906-4.300781 20.191407-13.730469 72.15625-50.9375 118.539063-99.730469 58.492187-61.527344 88.101562-119.648437 88.003906-172.742187-.039062-20.988282-5.507812-41.738282-15.808594-60.007813zm-187.835937 161.683594h16.328125c1.375 0 2.496094 1.121093 2.496094 2.496093v85.519532c0 1.378906-1.121094 2.5-2.496094 2.5h-16.328125c-1.375 0-2.496094-1.121094-2.496094-2.5v-85.519532c0-1.375 1.121094-2.496093 2.496094-2.496093zm-38.804688-15.425781c0-1.375 1.117188-2.496094 2.496094-2.496094h16.324219c1.378906 0 2.5 1.121094 2.5 2.496094v121.363281c0 1.375-1.121094 2.496093-2.5 2.496093h-16.324219c-1.378906 0-2.496094-1.121093-2.496094-2.496093zm-196.933593 121.363281c0 1.378906-1.121094 2.5-2.496094 2.5h-16.328125c-1.375 0-2.496094-1.121094-2.496094-2.5v-59.253907c0-4.136718-3.355469-7.492187-7.496094-7.492187-4.136719 0-7.492187 3.355469-7.492187 7.492187v41.332032c0 1.378906-1.121094 2.5-2.5 2.5h-16.324219c-1.375 0-2.496094-1.121094-2.496094-2.5v-85.519532c0-1.375 1.121094-2.496093 2.496094-2.496093h16.328125c1.375 0 2.496094 1.121093 2.496094 2.496093v9.207032c0 4.140625 3.355468 7.492187 7.496094 7.492187 4.136718 0 7.492187-3.351562 7.492187-7.492187v-27.128906c0-1.375 1.121094-2.496094 2.5-2.496094h16.324219c1.375 0 2.496094 1.121094 2.496094 2.496094zm0 0"/></svg>