<svg id="Capa_1" enable-background="new 0 0 512.006 512.006" height="512" viewBox="0 0 512.006 512.006" width="512" xmlns="http://www.w3.org/2000/svg"><g><g><path d="m429.947 92.059c-4.423 0-8.43-3.026-9.627-7.285-1.097-3.904.327-8.18 3.542-10.65 3.175-2.44 7.644-2.73 11.107-.718 3.561 2.069 5.517 6.229 4.847 10.29-.787 4.764-5.037 8.363-9.869 8.363z"/><path d="m474.736 122.896c-.012-.02-.028-.038-.04-.058-.007-.012-.013-.024-.02-.036-2.377-3.898-4.894-7.786-7.481-11.555-3.125-4.553-9.351-5.71-13.904-2.584s-5.71 9.352-2.584 13.904c1.606 2.34 3.183 4.729 4.71 7.136l-18.033 67.364-83.611 22.397-61.231-61.231 22.391-83.619 67.347-18.04c2.374 1.505 4.729 3.058 7.037 4.641 4.556 3.122 10.779 1.962 13.903-2.592 3.123-4.555 1.962-10.779-2.592-13.903-3.766-2.582-7.648-5.092-11.541-7.461-.002-.001-.003-.002-.005-.003-41.733-25.442-89.77-38.301-138.927-37.19h-.001c-40.897.931-81.385 11.759-117.084 31.314-.001 0-.001.001-.002.001-21.238 11.629-40.78 26.298-58.085 43.602-17.304 17.305-31.973 36.847-43.601 58.084 0 .001-.001.001-.001.002-19.555 35.7-30.384 76.187-31.315 117.085v.001c-1.112 49.162 11.752 97.212 37.204 138.955.012.02.027.037.04.057.008.012.013.025.021.037 10.538 17.283 23.207 33.372 37.653 47.818 14.438 14.437 30.5 27.088 47.746 37.606.029.019.062.031.092.05.036.022.067.05.103.072 40.066 24.428 85.944 37.256 133.049 37.256 1.947 0 3.901-.022 5.851-.066h.028c40.897-.931 81.385-11.759 117.084-31.314.001 0 .001-.001.002-.001 21.237-11.628 40.779-26.297 58.084-43.601 17.304-17.305 31.974-36.847 43.601-58.084 0-.001.001-.001.001-.002 19.555-35.7 30.384-76.187 31.314-117.084v-.001c1.113-49.164-11.752-97.214-37.203-138.957zm-5.381 32.083c12.17 25.677 19.57 53.347 21.871 81.787l-34.524-34.523zm-129.724 78.629-22.378 83.611-83.647 22.411-61.232-61.232 22.378-83.611 83.647-22.411zm-137.387 223.096 34.52 34.52c-28.437-2.301-56.097-9.695-81.764-21.859zm63.39 35.106-49.229-49.229 22.379-83.633 83.617-22.404 61.231 61.23-18.039 67.311c-30.732 16.107-65.116 25.3-99.959 26.725zm-222.983-134.783c-12.17-25.677-19.57-53.347-21.871-81.787l34.524 34.523zm267.104-301.731-34.519-34.519c28.434 2.297 56.098 9.696 81.768 21.863zm-63.383-35.1 49.242 49.242-22.391 83.619-83.618 22.404-61.231-61.23 18.039-67.311c30.732-16.106 65.116-25.299 99.959-26.724zm-157.246 68.93c10.077-10.077 20.975-19.181 32.565-27.222l-12.636 47.151-47.151 12.636c8.041-11.59 17.145-22.488 27.222-32.565zm-42.206 57.286 67.31-18.039 61.21 61.21-22.385 83.64-83.61 22.397-49.249-49.248c1.425-34.844 10.618-69.228 26.724-99.96zm9.669 235.89 18.033-67.364 83.611-22.397 61.231 61.231-22.397 83.613-67.338 18.045c-14.602-9.257-28.246-20.193-40.604-32.551-12.341-12.34-23.273-25.976-32.536-40.577zm366.291 40.578c-10.077 10.077-20.975 19.181-32.565 27.222l12.636-47.151 47.151-12.636c-8.041 11.59-17.145 22.488-27.222 32.565zm42.206-57.286-67.31 18.039-61.21-61.21 22.385-83.64 83.611-22.397 49.249 49.248c-1.426 34.843-10.619 69.227-26.725 99.96z"/></g></g></svg>