<svg height="592pt" viewBox="-18 -106 592 592" width="592pt" xmlns="http://www.w3.org/2000/svg"><path d="m546.25 144.167969c-4.835938 0-8.75 3.914062-8.75 8.75v53.75h-520v-203.75c0-4.835938-3.914062-8.75-8.75-8.75s-8.75 3.914062-8.75 8.75v362.5c0 4.832031 3.914062 8.75 8.75 8.75s8.75-3.917969 8.75-8.75v-78.75h520v78.75c0 4.832031 3.914062 8.75 8.75 8.75s8.75-3.917969 8.75-8.75v-212.5c0-4.835938-3.914062-8.75-8.75-8.75zm0 0"/><path d="m114.625 186.667969c32.445312 0 58.75-26.304688 58.75-58.75 0-32.449219-26.304688-58.75-58.75-58.75s-58.75 26.300781-58.75 58.75c.039062 32.429687 26.316406 58.714843 58.75 58.75zm0 0"/><path d="m207.054688 186.667969h287.5c4.835937 0 8.75-3.917969 8.75-8.75-.070313-66.933594-54.316407-121.171875-121.25-121.25h-175c-4.828126 0-8.75 3.914062-8.75 8.75v112.5c0 4.832031 3.921874 8.75 8.75 8.75zm0 0"/></svg>