<svg id="Layer_1" height="512" viewBox="0 0 78 78" width="512" xmlns="http://www.w3.org/2000/svg" data-name="Layer 1"><path d="m7.31 71.4a5.1 5.1 0 0 0 5.1 5.1h53.18a5.1 5.1 0 0 0 5.1-5.1v-40.69h-63.38zm43.89-29.86h8.27v8.27h-8.27zm0 14.06h8.27v8.27h-8.27zm-16.33-14.06h8.26v8.27h-8.26zm0 14.06h8.26v8.27h-8.26zm-16.35-14.06h8.27v8.27h-8.27zm0 14.06h8.27v8.27h-8.27z"/><path d="m55 18.22a.9.9 0 0 0 .9-.9v-14.92a.9.9 0 1 0 -1.8 0v14.92a.9.9 0 0 0 .9.9z"/><path d="m65.59 9.4h-7.92v7.92a2.71 2.71 0 0 1 -5.42 0v-7.92h-26.51v7.92a2.71 2.71 0 1 1 -5.41 0v-7.92h-7.92a5.11 5.11 0 0 0 -5.1 5.1v14.41h63.38v-14.41a5.11 5.11 0 0 0 -5.1-5.1z"/><path d="m23 18.22a.9.9 0 0 0 .91-.9v-14.92a.91.91 0 0 0 -1.81 0v14.92a.9.9 0 0 0 .9.9z"/></svg>