<svg height="512" viewBox="0 0 48 48" width="512" xmlns="http://www.w3.org/2000/svg"><g id="_23-sad" data-name="23-sad"><circle cx="24" cy="24" fill="#ffce52" r="23"/><path d="m37 35.667a3.179 3.179 0 0 1 -3 3.333 3.179 3.179 0 0 1 -3-3.333c0-1.841 2.25-6.667 3-6.667s3 4.826 3 6.667z" fill="#3bc5f6"/><path d="m10 17v-2c3.722 0 6-1.295 6-2h2c0 2.626-4.024 4-8 4z" fill="#273941"/><path d="m38 17c-3.976 0-8-1.374-8-4h2c0 .705 2.278 2 6 2z" fill="#273941"/><path d="m24 35a10.343 10.343 0 0 0 -4 1 4 4 0 0 1 8 0 10.343 10.343 0 0 0 -4-1z" fill="#273941"/><circle cx="34" cy="22" fill="#273941" r="5"/><circle cx="14" cy="22" fill="#273941" r="5"/><circle cx="34" cy="22" fill="#141e21" r="4"/><circle cx="14" cy="22" fill="#141e21" r="4"/><g fill="#f6fafd"><circle cx="35.5" cy="20.5" r="1.5"/><circle cx="32.5" cy="23.5" r="1.5"/><circle cx="35.5" cy="23.5" r=".5"/><circle cx="12.5" cy="20.5" r="1.5"/><circle cx="15.5" cy="23.5" r="1.5"/><circle cx="12.5" cy="23.5" r=".5"/></g><path d="m24 4c12.15 0 22 8.507 22 19h.975a23 23 0 0 0 -45.95 0h.975c0-10.493 9.85-19 22-19z" fill="#ffe369"/><path d="m46 23c0 10.493-9.85 19-22 19s-22-8.507-22-19h-.975c-.014.332-.025.665-.025 1a23 23 0 0 0 46 0c0-.335-.011-.668-.025-1z" fill="#ffb32b"/><ellipse cx="37" cy="9" fill="#f6fafd" rx=".825" ry="1.148" transform="matrix(.707 -.707 .707 .707 4.48 28.81)"/><ellipse cx="30.746" cy="4.5" fill="#f6fafd" rx=".413" ry=".574" transform="matrix(.707 -.707 .707 .707 5.829 23.067)"/><ellipse cx="34" cy="7" fill="#f6fafd" rx="1.65" ry="2.297" transform="matrix(.707 -.707 .707 .707 5.015 26.102)"/><path d="m34.135 29.047c.723.439 2.365 3.908 2.365 5.286a2.505 2.505 0 1 1 -5 0c0-1.378 1.642-4.847 2.365-5.286-.852.469-2.865 4.877-2.865 6.62a3.179 3.179 0 0 0 3 3.333 3.179 3.179 0 0 0 3-3.333c0-1.743-2.013-6.151-2.865-6.62z" fill="#00a3e1"/><ellipse cx="35" cy="35" fill="#f6fafd" rx=".825" ry="1.148" transform="matrix(.707 -.707 .707 .707 -14.497 35.017)"/><ellipse cx="35.746" cy="33.5" fill="#f6fafd" rx=".413" ry=".574" transform="matrix(.707 -.707 .707 .707 -13.218 35.105)"/><path d="m34 39a3.048 3.048 0 0 1 -2.853-2.354 4.808 4.808 0 0 0 -.147 1.021 3.179 3.179 0 0 0 3 3.333 3.179 3.179 0 0 0 3-3.333 4.808 4.808 0 0 0 -.147-1.021 3.048 3.048 0 0 1 -2.853 2.354z" fill="#ffb32b"/></g></svg>