<?xml version="1.0" encoding="iso-8859-1"?>
<!-- Generator: Adobe Illustrator 19.0.0, SVG Export Plug-In . SVG Version: 6.00 Build 0)  -->
<svg version="1.1" id="Capa_1" xmlns="http://www.w3.org/2000/svg" xmlns:xlink="http://www.w3.org/1999/xlink" x="0px" y="0px"
	 viewBox="0 0 423.253 423.253" style="enable-background:new 0 0 423.253 423.253;" xml:space="preserve">
<g>
	<g>
		<g>
			<path d="M21.333,306.347V100.693c-7.253,1.92-14.507,4.267-21.333,6.4V366.72c57.263-15.827,118.112-12.684,173.44,8.96
				c-37.599-38.017-88.824-59.444-142.293-59.52C25.774,316.047,21.447,311.719,21.333,306.347z"/>
			<path d="M41.387,44.587L40.747,297.6c62.798,3.252,121.366,32.652,161.493,81.067v-241.28
				C165.605,83.515,106.361,49.336,41.387,44.587z"/>
			<path d="M401.92,101.12v205.44c-0.113,5.372-4.441,9.7-9.813,9.813c-53.35,0.047-104.453,21.488-141.867,59.52l0,0.213
				c55.146-21.721,115.841-25.014,173.013-9.387v-259.2C416.427,105.173,409.387,102.827,401.92,101.12z"/>
			<path d="M382.72,44.587c-65.234,4.277-124.8,38.551-161.28,92.8v241.28c40.078-48.362,98.557-77.756,161.28-81.067V44.587z"/>
		</g>
	</g>
</g>
<g>
</g>
<g>
</g>
<g>
</g>
<g>
</g>
<g>
</g>
<g>
</g>
<g>
</g>
<g>
</g>
<g>
</g>
<g>
</g>
<g>
</g>
<g>
</g>
<g>
</g>
<g>
</g>
<g>
</g>
</svg>
