<svg xmlns="http://www.w3.org/2000/svg" height="512pt" version="1.1" viewBox="-49 0 512 512.00051" width="512pt">
<g id="surface1">
<path d="M 372.351562 214.332031 C 369.519531 215.363281 366.839844 216.777344 364.410156 218.5625 C 351.855469 227.800781 328.449219 253.035156 328.449219 253.035156 C 329.167969 252.359375 311.59375 269.363281 295.480469 285.070312 C 290.960938 289.480469 283.363281 286.3125 283.308594 279.996094 L 283.308594 76.472656 C 283.308594 56.523438 267.175781 42.761719 247.652344 46.863281 C 232.074219 50.136719 223.761719 64.628906 223.761719 81.957031 L 223.898438 235.589844 L 200.152344 235.644531 L 200.152344 27.734375 C 200.152344 8.699219 184.871094 -3.796875 166.460938 1.046875 C 153.828125 4.367188 147.914062 16.257812 147.914062 31.25 L 147.914062 235.929688 L 124.238281 235.980469 L 124.101562 69.675781 C 124.101562 53.058594 116.265625 38.402344 99.65625 37.910156 C 82.394531 37.398438 74.082031 51.878906 74.082031 69.027344 L 73.835938 236.253906 L 50.691406 236.300781 L 50.691406 126.691406 C 50.691406 109.425781 42.660156 96.382812 25.300781 96.382812 C 8.03125 96.382812 0 109.425781 0 126.691406 L 0.0195312 370.023438 C 8.679688 495.125 79.402344 512 153.332031 512 C 214.582031 512 263.582031 481.617188 290.707031 433.050781 C 294.199219 427.417969 303.636719 412.574219 314.828125 394.992188 C 330.746094 369.988281 345.191406 347.617188 355.328125 331.765625 C 368.691406 310.863281 380.925781 294.535156 396.058594 274.875 C 400.269531 269.40625 403.757812 265.003906 405.421875 263.183594 C 409.980469 258.207031 412.984375 252.015625 413.882812 245.332031 L 413.882812 244.070312 C 413.882812 219.941406 395.011719 206.050781 372.351562 214.332031 Z M 372.351562 214.332031 " style=" stroke:none;fill-rule:nonzero;fill:rgb(0%,0%,0%);fill-opacity:1;" />
</g>
</svg>