<?xml version="1.0" encoding="iso-8859-1"?>
<!-- Generator: Adobe Illustrator 21.0.0, SVG Export Plug-In . SVG Version: 6.00 Build 0)  -->
<svg xmlns="http://www.w3.org/2000/svg" xmlns:xlink="http://www.w3.org/1999/xlink" version="1.1" id="Capa_1" x="0px" y="0px" viewBox="0 0 512 512" style="enable-background:new 0 0 512 512;" xml:space="preserve" width="512" height="512">
<g>
	<path d="M136,60h15v15c0,8.291,6.709,15,15,15s15-6.709,15-15V60h15c8.291,0,15-6.709,15-15s-6.709-15-15-15h-15V15   c0-8.291-6.709-15-15-15s-15,6.709-15,15v15h-15c-8.291,0-15,6.709-15,15S127.709,60,136,60z"/>
	<path d="M15,151h16v15c0,8.291,6.709,15,15,15s15-6.709,15-15v-15h15c8.291,0,15-6.709,15-15s-6.709-15-15-15H61v-15   c0-8.291-6.709-15-15-15s-15,6.709-15,15v15H15c-8.291,0-15,6.709-15,15S6.709,151,15,151z"/>
	<path d="M316,91c-92.01,0-169.153,64.136-189.551,150h62.842c18.64-52.266,68.123-90,126.709-90c74.443,0,135,60.557,135,135   c0,47.109-23.994,90.059-64.189,114.902c-21.709,13.418-45.85,20.142-70.605,20.142c-5.05,0-10.126-0.366-15.205-0.927V466   c0,4.673-0.557,9.208-1.377,13.647c5.449,0.441,10.931,1.309,16.348,1.309c41.074,0,80.859-12.612,114.58-37.134   C480.912,407.201,512,348.212,512,286C512,178.48,423.52,91,316,91z"/>
	<path d="M301,389.737c24.573,3.404,48.86-1.28,70.02-14.352C402.309,356.049,421,322.636,421,286c0-57.891-47.109-105-105-105   c-41.726,0-77.549,24.655-94.468,60H286c8.291,0,15,6.709,15,15V389.737z"/>
	<path d="M256,271H76c-8.291,0-15,6.709-15,15v15H45c-24.814,0-45,20.186-45,45v91c0,24.814,20.186,45,45,45h18.761   c6.215,17.422,22.709,30,42.239,30h120c24.814,0,45-20.186,45-45V286C271,277.709,264.291,271,256,271z M30,437v-91   c0-8.276,6.738-15,15-15h16v121H45C36.738,452,30,445.276,30,437z"/>
</g>















</svg>
