<svg id="Glyph_Icon" height="512" viewBox="0 0 64 64" width="512" xmlns="http://www.w3.org/2000/svg" data-name="Glyph Icon"><path d="m48.626 27.56h-22.029c-2.162 0-3.914 1.752-3.914 3.914v.435h29.857v-.435c0-2.162-1.752-3.914-3.914-3.914z"/><path d="m20.749 47.773h10.131c.533 0 .964.432.964.964s-.431.964-.964.964h-10.16l-3.477 6.407c-.294.542-.281 1.182.034 1.712.316.53.873.846 1.489.846h21.415c.552 0 1.059-.254 1.389-.697s.429-1.001.271-1.532l-1.007-3.368c-.355-1.19-.237-2.453.331-3.556.896-1.738 2.358-3.206 4.228-4.244 5.107-2.835 6.596-7.444 7.002-10.468h-38.425z"/><path d="m20.329 32.873v-1.419c0-2.354 1.352-4.394 3.317-5.397v-14.3c.917-.147 1.623-.938 1.623-1.897v-2.598c0-1.063-.865-1.928-1.928-1.928h-9.954c-1.063 0-1.928.865-1.928 1.928v2.598c0 .959.705 1.749 1.623 1.897v21.117h7.247z"/></svg>