<svg id="_01-Confounded_Face" height="512" viewBox="0 0 64 64" width="512" xmlns="http://www.w3.org/2000/svg" xmlns:xlink="http://www.w3.org/1999/xlink" data-name="01-Confounded Face"><linearGradient id="linear-gradient" gradientUnits="userSpaceOnUse" x1="32" x2="32" y1="1.304" y2="63.304"><stop offset="0" stop-color="#ffe100"/><stop offset="1" stop-color="#f98900"/></linearGradient><radialGradient id="radial-gradient" cx="43.776" cy="10.411" gradientUnits="userSpaceOnUse" r="5.699"><stop offset=".005" stop-color="#414d4d"/><stop offset=".206" stop-color="#3a4545"/><stop offset=".522" stop-color="#272e2e"/><stop offset=".914" stop-color="#080909"/><stop offset="1"/></radialGradient><radialGradient id="radial-gradient-2" cx="20.224" cy="10.411" r="5.699" xlink:href="#radial-gradient"/><linearGradient id="linear-gradient-2" gradientUnits="userSpaceOnUse" x1="18.33" x2="45.67" y1="36.47" y2="36.47"><stop offset="0" stop-color="#b8b4b2"/><stop offset=".143" stop-color="#d0ccc9"/><stop offset=".374" stop-color="#f2edea"/><stop offset=".5" stop-color="#fffaf6"/><stop offset=".638" stop-color="#f9f5f1"/><stop offset=".825" stop-color="#e8e5e3"/><stop offset="1" stop-color="#d1d1d1"/></linearGradient><linearGradient id="linear-gradient-3" gradientUnits="userSpaceOnUse" x1="32" x2="32" y1="47.038" y2="35.193"><stop offset="0" stop-color="#69101b"/><stop offset=".427" stop-color="#400a10"/></linearGradient><linearGradient id="linear-gradient-4" gradientUnits="userSpaceOnUse" x1="32.078" x2="32.022" y1="34.189" y2="37.621"><stop offset="0" stop-color="#ababab" stop-opacity=".5"/><stop offset=".541" stop-color="#c1c1c1" stop-opacity=".216"/><stop offset="1" stop-color="#d1d1d1" stop-opacity="0"/></linearGradient><path d="m32 63c-27.7 0-31.038-24-31-30v-2c-.038-6 3.3-30 31-30 27.7 0 31.038 24 31 30v2c.038 6-3.3 30-31 30z" fill="url(#linear-gradient)"/><path d="m50 19s-1.159.193-2.756.579c1.495-.916 2.756-1.579 2.756-1.579s-12 2-12 6a2 2 0 0 0 .071.5 2 2 0 0 0 -.071.5c0 4 12 6 12 6s-1.261-.663-2.756-1.579c1.597.386 2.756.579 2.756.579s-6.488-3.4-7.493-5.5c1.005-2.1 7.493-5.5 7.493-5.5z" fill="#f99c06"/><path d="m14 18s1.261.663 2.756 1.579c-1.597-.386-2.756-.579-2.756-.579s6.488 3.4 7.493 5.5c-1.005 2.1-7.493 5.5-7.493 5.5s1.159-.193 2.756-.579c-1.495.916-2.756 1.579-2.756 1.579s12-2 12-6a2 2 0 0 0 -.071-.5 2 2 0 0 0 .071-.5c0-4-12-6-12-6z" fill="#f99c06"/><path d="m50 18s-12 2-12 6 12 6 12 6-7.636-4-7.636-6 7.636-6 7.636-6z" fill="#472301"/><path d="m14 18s12 2 12 6-12 6-12 6 7.636-4 7.636-6-7.636-6-7.636-6z" fill="#472301"/><path d="m51 12.983a1.007 1.007 0 0 0 -.983-1c-7.364-.254-10.574-3.334-11.665-4.745a1 1 0 0 0 -1.248-.3.983.983 0 0 0 -.394 1.39.973.973 0 0 0 .049 1.106c1.368 1.765 5.092 5.272 13.223 5.544a1 1 0 0 0 1.018-1 .959.959 0 0 0 -.154-.5.982.982 0 0 0 .154-.495z" fill="#f99c06"/><path d="m26.9 6.943a1 1 0 0 0 -1.248.3c-1.091 1.411-4.3 4.491-11.665 4.745a1.007 1.007 0 0 0 -.983 1 .982.982 0 0 0 .154.5.959.959 0 0 0 -.154.5 1 1 0 0 0 1.018 1c8.131-.272 11.855-3.779 13.223-5.544a.973.973 0 0 0 .049-1.106.983.983 0 0 0 -.394-1.395z" fill="#f99c06"/><path d="m51 12.983a1 1 0 0 1 -1.019 1c-8.13-.272-11.854-3.779-13.222-5.544a1 1 0 0 1 .345-1.5 1 1 0 0 1 1.248.3c1.091 1.411 4.3 4.491 11.665 4.745a1.007 1.007 0 0 1 .983 1z" fill="url(#radial-gradient)"/><path d="m13 12.983a1.007 1.007 0 0 1 .983-1c7.364-.254 10.574-3.334 11.665-4.745a1 1 0 0 1 1.248-.3 1 1 0 0 1 .345 1.5c-1.368 1.765-5.092 5.272-13.222 5.544a1 1 0 0 1 -1.019-.999z" fill="url(#radial-gradient-2)"/><path d="m49 46a13.141 13.141 0 0 0 -3.33-8.06c-2.4-2.65-6.54-4.94-13.67-4.94s-11.27 2.29-13.67 4.94a11.947 11.947 0 0 0 -1.21 1.56 13.114 13.114 0 0 0 -2.12 6.5 2.931 2.931 0 0 0 .039.388c-.039.386-.039.612-.039.612a3 3 0 0 0 3 3h.48a2.83 2.83 0 0 0 .95-.16 28.86 28.86 0 0 1 3.63-.96v-.01a46.368 46.368 0 0 1 17.88 0v.01a28.86 28.86 0 0 1 3.63.96 2.83 2.83 0 0 0 .95.16h.48a3 3 0 0 0 3-3s0-.229-.039-.612a3.09 3.09 0 0 0 .039-.388z" fill="#f99406"/><path d="m49 47a13.141 13.141 0 0 0 -3.33-8.06c-2.4-2.65-6.54-4.94-13.67-4.94s-11.27 2.29-13.67 4.94a11.947 11.947 0 0 0 -1.21 1.56 13.114 13.114 0 0 0 -2.12 6.5 2.931 2.931 0 0 0 .039.388c-.039.386-.039.612-.039.612a3 3 0 0 0 3 3h.48a2.83 2.83 0 0 0 .95-.16 28.86 28.86 0 0 1 3.63-.96v-.01a46.368 46.368 0 0 1 17.88 0v.01a28.86 28.86 0 0 1 3.63.96 2.83 2.83 0 0 0 .95.16h.48a3 3 0 0 0 3-3s0-.229-.039-.612a3.09 3.09 0 0 0 .039-.388z" fill="#f9bf06"/><path d="m45.67 38.94a83.518 83.518 0 0 0 -13.67-.94 83.518 83.518 0 0 0 -13.67.94c2.4-2.65 6.54-4.94 13.67-4.94s11.27 2.29 13.67 4.94z" fill="url(#linear-gradient-2)"/><path d="m40.94 48.87a46.368 46.368 0 0 0 -17.88 0c.38-.79 2.62-4.87 8.94-4.87s8.56 4.08 8.94 4.87z" fill="#8f030e"/><path d="m49 47a3 3 0 0 1 -3 3h-.48a2.83 2.83 0 0 1 -.95-.16 28.86 28.86 0 0 0 -3.63-.96v-.01c-.38-.79-2.62-4.87-8.94-4.87s-8.56 4.08-8.94 4.87v.01a28.86 28.86 0 0 0 -3.63.96 2.83 2.83 0 0 1 -.95.16h-.48a3 3 0 0 1 -3-3 13.114 13.114 0 0 1 2.12-6.5 11.947 11.947 0 0 1 1.21-1.56 83.518 83.518 0 0 1 13.67-.94 83.518 83.518 0 0 1 13.67.94 13.141 13.141 0 0 1 3.33 8.06z" fill="url(#linear-gradient-3)"/><path d="m45.67 38.94a83.518 83.518 0 0 0 -13.67-.94 83.518 83.518 0 0 0 -13.67.94c2.4-2.65 6.54-4.94 13.67-4.94s11.27 2.29 13.67 4.94z" fill="url(#linear-gradient-4)"/></svg>