<svg width="128" height="128" viewBox="0 0 128 128" fill="none" xmlns="http://www.w3.org/2000/svg">
<path d="M71.472 93.1659L74.5182 74.127L53.9561 65.7498L50.9099 94.689L71.472 93.1659Z" fill="#A0616A"/>
<path d="M92.1376 121.303C90.3722 122.164 88.5732 122.94 86.7473 123.63C83.0954 125.012 79.3259 126.054 75.4589 126.75C71.6792 127.433 67.7987 127.779 63.9182 127.779C58.6758 127.779 53.4636 127.15 48.423 125.906C46.4492 125.422 44.4584 124.83 42.5014 124.141C42.2963 124.067 42.0878 123.993 41.8827 123.919C39.4548 123.038 37.0673 122.006 34.7707 120.839C34.4613 120.684 34.1519 120.526 33.8426 120.358C33.4996 120.183 33.16 119.998 32.817 119.806C32.3798 119.568 31.946 119.319 31.5122 119.067C30.0596 118.226 28.6305 117.318 27.2652 116.373L27.1744 116.313C27.0937 116.256 27.013 116.202 26.9357 116.145C26.9861 115.879 27.0332 115.637 27.0769 115.421C27.245 114.577 27.356 114.113 27.356 114.113L36.5629 95.0941L39.1287 89.7946L40.3796 89.28L49.8287 85.3962H72.9234L80.2103 88.4092C80.2103 88.4092 80.2473 88.5471 80.3213 88.8128C81.0476 91.4188 85.2845 106.215 91.8586 120.691C91.9493 120.892 92.0435 121.098 92.1376 121.303L92.1376 121.303Z" fill="#E0677D"/>
<path d="M66.2758 80.2473C77.8563 80.2473 87.2441 70.8594 87.2441 59.2789C87.2441 47.6984 77.8563 38.3105 66.2758 38.3105C54.6952 38.3105 45.3074 47.6984 45.3074 59.2789C45.3074 70.8594 54.6952 80.2473 66.2758 80.2473Z" fill="#A0616A"/>
<path d="M40.4162 89.0995L40.3801 89.28L33.9874 119.675L33.932 119.94L33.843 120.358C33.4989 120.183 33.1597 119.998 32.818 119.808C32.3801 119.567 31.9471 119.319 31.5116 119.066C30.0607 118.227 28.6316 117.317 27.265 116.374L27.1735 116.312C27.0941 116.256 27.0123 116.201 26.9353 116.146C25.8911 115.417 24.8734 114.656 23.8797 113.872C23.8725 113.867 23.8677 113.862 23.8604 113.855C22.0872 112.426 20.3789 110.888 18.7453 109.255C17.6914 108.201 16.6785 107.116 15.7089 106.002L15.8556 105.386L15.8701 105.323L16.0529 104.539C17.6794 97.6698 23.1819 92.3982 30.1137 91.0701L39.3239 89.3064L40.4162 89.0995H40.4162Z" fill="#E0677D"/>
<path d="M105.719 112.415C103.006 114.725 100.097 116.817 97.0268 118.653C96.7276 118.835 96.4216 119.013 96.1156 119.191C94.8109 119.944 93.4826 120.647 92.1375 121.303C90.3721 122.164 88.5732 122.94 86.7473 123.63L86.606 122.964L79.3864 88.6345L80.3212 88.8128L89.6896 90.6084C96.62 91.9367 102.125 97.2092 103.749 104.079L105.541 111.669L105.719 112.415H105.719Z" fill="#E0677D"/>
<path d="M90.4226 64.884C89.8779 66.9151 87.1373 75.991 80.1194 77.9009C78.7408 78.2775 75.4521 78.7113 76.323 77.9009C76.5214 77.716 76.7131 77.5344 76.9048 77.3561C84.5212 70.1937 87.6283 65.8157 86.2092 56.0975C85.308 49.91 75.0452 44.291 69.2715 43.7328C66.8369 43.4977 63.7298 44.3212 61.6786 46.4433C58.2924 49.9402 58.8506 60.6741 56.9743 66.9791C56.4699 68.667 55.794 70.039 54.8221 70.8695C54.2168 71.3874 53.8302 70.7283 53.5443 69.6489C52.9357 67.3555 52.7777 63.1558 51.9135 64.3425C49.415 67.7827 51.7957 72.3423 52.5154 74.1011C52.6633 74.4611 52.8146 74.8072 52.9659 75.1369V75.1401C53.0534 75.3283 53.1442 75.5168 53.2316 75.6951V75.6984C55.6325 80.5943 58.5177 82.3462 61.0599 85.3963C62.0586 86.5899 63.0035 87.9787 63.8475 89.835C64.4259 91.1062 64.8429 92.3839 65.1287 93.638C66.5847 99.9263 64.8563 105.64 64.3889 107.193C63.4104 110.428 61.7291 115.986 56.7961 119.124C50.602 123.065 44.9494 119.591 42.2458 123.334C42.2122 123.378 42.1819 123.421 42.1517 123.465C42.0508 123.616 41.96 123.768 41.8826 123.919C39.4548 123.038 37.0673 122.006 34.7706 120.839C34.4612 120.684 34.1519 120.526 33.8425 120.358C33.4995 120.183 33.1599 119.998 32.8169 119.806C32.8035 119.544 32.79 119.282 32.7799 119.016C32.5815 114.466 32.8808 109.466 34.014 104.479C34.7404 101.295 35.46 98.1372 36.5629 95.0941C37.2825 93.1103 38.1635 91.1732 39.3236 89.307C40.2518 87.8072 41.3547 86.3512 42.693 84.9523C45.632 81.8822 48.2448 80.6012 48.6584 77.3593C49.2502 72.7324 44.4315 71.3404 42.693 64.3425C41.5061 59.5576 40.2652 52.6609 41.469 48.0136C42.6056 43.6221 43.5943 39.8122 46.893 36.0794C47.6866 35.1849 54.2001 28.964 61.7459 27.9417C65.2228 27.4744 68.3233 31.9267 72.5266 32.8849C77.3587 33.9847 80.1261 34.6135 82.8297 36.6814C87.3996 40.1718 88.6875 45.3908 89.8812 50.2397C90.8161 54.0329 92.0266 58.9389 90.4226 64.884L90.4227 64.884H90.4226Z" fill="#2F2E41"/>
</svg>
