<?xml version="1.0" encoding="iso-8859-1"?>
<!-- Generator: Adobe Illustrator 19.0.0, SVG Export Plug-In . SVG Version: 6.00 Build 0)  -->
<svg version="1.1" id="Capa_1" xmlns="http://www.w3.org/2000/svg" xmlns:xlink="http://www.w3.org/1999/xlink" x="0px" y="0px"
	 viewBox="0 0 512 512" style="enable-background:new 0 0 512 512;" xml:space="preserve">
<g>
	<g>
		<path d="M53.333,234.667v-64C59.221,170.667,64,165.888,64,160s-4.779-10.667-10.667-10.667C23.915,149.333,0,173.269,0,202.667
			V224c0,17.643,14.357,32,32,32h21.333C59.221,256,64,251.221,64,245.333S59.221,234.667,53.333,234.667z"/>
	</g>
</g>
<g>
	<g>
		<path d="M458.667,149.333c-5.888,0-10.667,4.779-10.667,10.667s4.779,10.667,10.667,10.667v64
			c-5.888,0-10.667,4.779-10.667,10.667S452.779,256,458.667,256H480c17.643,0,32-14.357,32-32v-21.333
			C512,173.269,488.085,149.333,458.667,149.333z"/>
	</g>
</g>
<g>
	<g>
		<path d="M181.333,448c-5.888,0-10.667,4.779-10.667,10.667h-64c0-5.888-4.779-10.667-10.667-10.667s-10.667,4.779-10.667,10.667
			V480c0,17.643,14.357,32,32,32H160c17.643,0,32-14.357,32-32v-21.333C192,452.779,187.221,448,181.333,448z"/>
	</g>
</g>
<g>
	<g>
		<path d="M416,448c-5.888,0-10.667,4.779-10.667,10.667h-64c0-5.888-4.779-10.667-10.667-10.667S320,452.779,320,458.667V480
			c0,17.643,14.357,32,32,32h42.667c17.643,0,32-14.357,32-32v-21.333C426.667,452.779,421.888,448,416,448z"/>
	</g>
</g>
<g>
	<g>
		<path d="M416,0H96C66.581,0,42.667,23.936,42.667,53.333V416c0,29.397,23.915,53.333,53.333,53.333h320
			c29.419,0,53.333-23.936,53.333-53.333V53.333C469.333,23.936,445.419,0,416,0z M138.667,42.667h234.667c17.643,0,32,14.357,32,32
			c0,17.643-14.357,32-32,32H138.667c-17.643,0-32-14.357-32-32C106.667,57.024,121.024,42.667,138.667,42.667z M138.667,405.333
			c-17.643,0-32-14.357-32-32c0-17.643,14.357-32,32-32c17.643,0,32,14.357,32,32C170.667,390.976,156.309,405.333,138.667,405.333z
			 M373.333,405.333c-17.643,0-32-14.357-32-32c0-17.643,14.357-32,32-32c17.643,0,32,14.357,32,32
			C405.333,390.976,390.976,405.333,373.333,405.333z M426.667,266.667c0,17.643-14.357,32-32,32H117.333c-17.643,0-32-14.357-32-32
			V160c0-17.643,14.357-32,32-32h277.333c17.643,0,32,14.357,32,32V266.667z"/>
	</g>
</g>
<g>
</g>
<g>
</g>
<g>
</g>
<g>
</g>
<g>
</g>
<g>
</g>
<g>
</g>
<g>
</g>
<g>
</g>
<g>
</g>
<g>
</g>
<g>
</g>
<g>
</g>
<g>
</g>
<g>
</g>
</svg>
