<svg id="Halloween_icon" height="512" viewBox="0 0 512 512" width="512" xmlns="http://www.w3.org/2000/svg" data-name="Halloween icon"><path id="witch_hat" d="m507.757 426.845c-6.025-10.2-35.772-30.027-38.956-31.549-8.014-3.6-73.882-47.672-83.844-49.217l.509-.127c-4.374-13.535-18.354-55.8-26.217-68.74-2.931-.569-8.979-.365-12.377-.727-7.192-10.605-10.819-28.241-12.771-40.97-1.879-12.246 17.751-45.9 21.791-49.644 5.775-4.2 77-35.26 84.949-43.455 6.58-7.877 21.472-55.694 24.647-64.987 4.146-12.138 12.092-35.507.9-68.308-10.8 20.309-26.28 50.77-42 69.9-16.189 16.994-106.174 27.256-127.776 36.97-19.557 9.03-46.4 24.4-65.485 38.747-13.446 17.1-52.945 79.128-65.438 99.042-10.31 14.628-22.751 28.1-26.4 46.137-2.593.754-9.107-.017-10.658 2.182-7.7 13.256-7.75 30.158-13.214 44.4-22.025 7.146-35.617 10.572-43.774 14.231-26.634 11.94-84.036 49.649-69.243 60.754 0 0-.011 0-.011.011 12.918 25.134 72.5 22.442 95.716 28.288 7.456 3.429 13.849 7.876 21.112 12.166 11.233 6.826 31.086 19.544 40.389 25.012 6 3.265 64.678 16.04 76.043 15.918 57.06-.617 158.9-20.246 210.269-37.866-4.824-6.673-19.639-17.992-25.651-22.06 11.463 2.1 28.105 9.3 36.6 18.811 14.383-4.455 24.07-7.23 38.548-8.423 17.745.245 20.191-12.019 12.342-26.496zm-186.219-168.064c-13.786 41.356-15.624 68.927-67.09 45.951 0 0 50.552-24.814 67.09-45.951zm-141.438-1.964c11.352 26.109 45.407 44.272 45.407 47.677-43.138 21.569-46.543-15.894-45.407-47.677zm156 81.954c-3.186 1.064-69.729 52.656-69.729 52.656l-11.481-15.854-18.59 14.761-7.927-16.675-8.473 15.034-10.058-13.814-13.442 12.174-37.312-46.195 44.412 19.408 4.374-18.588 16.4 18.041 12.026-13.668 10.113 13.668 18.041-16.4 7.991 16.67 63.717-21.239z" data-name="witch hat"/></svg>