<svg height="448pt" viewBox="0 -32 448.02373 448" width="448pt" xmlns="http://www.w3.org/2000/svg"><path d="m31.160156 85.769531c-32.429687 69.761719-39.679687 118.1875-21.121094 143.789063 8.175782 11.3125 21.464844 17.792968 35.414063 17.277344 1.710937-.035157 3.421875-.175782 5.117187-.425782 1.066407-5.972656 2.136719-12.375 3.628907-18.773437l3.625-16.640625c11.519531-53.757813 28.160156-129.707032 66.347656-180.050782-27.945313 1.917969-72.960937 11.734376-93.011719 54.824219zm0 0"/><path d="m369.425781 215.636719c-18.644531-85.851563-46.832031-215.6250002-145.414062-215.6250002s-126.769531 129.7734372-145.414063 215.6250002l-3.667968 16.726562c-10.625 47.855469-6.011719 83.3125 14.132812 108.417969 22.050781 27.480469 62.949219 41.460938 124.28125 42.933594v-65.21875c-18.785156-4.835938-31.9375-21.75-32-41.152344.011719-11.777344 9.558594-21.320312 21.335938-21.332031h42.664062c11.777344.011719 21.324219 9.554687 21.335938 21.332031-.0625 19.402344-13.210938 36.316406-32 41.152344v65.21875c61.332031-1.472656 102.230468-15.453125 124.28125-42.933594 20.144531-25.101562 24.757812-60.558594 14.132812-108.414062zm-177.414062-44.960938c-2.828125.003907-5.542969-1.121093-7.542969-3.121093-2.003906-2-3.125-4.714844-3.125-7.542969 0-5.890625-4.773438-10.667969-10.664062-10.667969-5.890626 0-10.667969 4.777344-10.667969 10.667969s-4.777344 10.664062-10.667969 10.664062-10.664062-4.773437-10.664062-10.664062c0-17.675781 14.324218-32 32-32 17.671874 0 32 14.324219 32 32 0 2.828125-1.121094 5.542969-3.125 7.542969-2 2-4.714844 3.125-7.542969 3.121093zm106.667969 0c-2.832032.003907-5.542969-1.121093-7.546876-3.121093-2-2-3.121093-4.714844-3.121093-7.542969 0-5.890625-4.777344-10.667969-10.667969-10.667969s-10.664062 4.777344-10.664062 10.667969-4.777344 10.664062-10.667969 10.664062-10.667969-4.773437-10.667969-10.664062c0-17.675781 14.328125-32 32-32 17.675781 0 32 14.324219 32 32 .003906 2.828125-1.121094 5.542969-3.121094 7.542969s-4.714844 3.125-7.542968 3.121093zm0 0"/><path d="m245.34375 277.34375h-42.664062c0 11.78125 9.550781 21.332031 21.332031 21.332031s21.332031-9.550781 21.332031-21.332031zm0 0"/><path d="m416.863281 85.769531c-20.050781-43.09375-65.066406-52.90625-93.011719-54.824219 38.1875 50.34375 54.828126 126.503907 66.347657 180.265626l3.839843 16.640624c1.492188 6.398438 2.558594 12.585938 3.414063 18.558594v.214844c1.707031 0 3.410156.210938 5.117187.210938 13.949219.515624 27.238282-5.964844 35.414063-17.277344 18.5625-25.601563 11.308594-74.027344-21.121094-143.789063zm0 0"/></svg>