<?xml version="1.0" encoding="iso-8859-1"?>
<!-- Generator: Adobe Illustrator 19.0.0, SVG Export Plug-In . SVG Version: 6.00 Build 0)  -->
<svg version="1.1" id="Capa_1" xmlns="http://www.w3.org/2000/svg" xmlns:xlink="http://www.w3.org/1999/xlink" x="0px" y="0px"
	 viewBox="0 0 511.992 511.992" style="enable-background:new 0 0 511.992 511.992;" xml:space="preserve">
<g>
	<g>
		<g>
			<path d="M481.274,389.111H30.732c-16.936,0-30.719,13.783-30.719,30.719c0,28.22,22.957,51.198,51.198,51.198h409.584
				c28.241,0,51.198-22.978,51.198-51.198C511.992,402.893,498.21,389.111,481.274,389.111z"/>
			<path d="M10.764,225.277h490.149c2.56,0,5.345-1.27,7.25-2.99c1.864-1.7,3.031-4.014,3.256-6.512
				c3.318-32.971-8.335-65.226-33.729-93.324c-45.464-50.256-130.411-81.487-221.687-81.487
				c-91.419,0-176.449,31.292-221.851,81.671C8.757,150.795-2.834,183.09,0.586,216.103C1.119,221.304,5.522,225.277,10.764,225.277
				z M392.107,125.871c3.993-3.993,10.485-3.993,14.479,0l20.479,20.479c3.993,4.014,3.993,10.485,0,14.479
				c-1.987,2.007-4.608,3.01-7.229,3.01s-5.243-1.003-7.25-3.01l-20.479-20.479C388.114,136.357,388.114,129.885,392.107,125.871z
				 M310.19,166.83l20.479-20.479c3.993-3.993,10.485-3.993,14.479,0c3.993,4.014,3.993,10.485,0,14.479l-20.479,20.479
				c-1.987,2.007-4.608,3.01-7.229,3.01s-5.243-1.003-7.25-3.01C306.197,177.315,306.197,170.844,310.19,166.83z M248.753,84.913
				c3.993-3.993,10.485-3.993,14.479,0l20.479,20.479c3.993,4.014,3.993,10.485,0,14.479c-1.986,2.007-4.608,3.01-7.229,3.01
				s-5.243-1.003-7.25-3.01l-20.479-20.479C244.759,95.398,244.759,88.927,248.753,84.913z M166.836,125.871l20.479-20.479
				c3.993-3.993,10.485-3.993,14.479,0c3.993,4.014,3.993,10.485,0,14.479l-20.479,20.479c-1.987,2.007-4.608,3.01-7.229,3.01
				s-5.243-1.003-7.25-3.01C162.843,136.357,162.843,129.885,166.836,125.871z M84.919,146.351c3.993-3.993,10.485-3.993,14.479,0
				l20.479,20.479c3.993,4.014,3.993,10.485,0,14.479c-1.987,2.007-4.608,3.01-7.229,3.01c-2.621,0-5.243-1.003-7.25-3.01
				l-20.479-20.479C80.926,156.836,80.926,150.365,84.919,146.351z"/>
			<path d="M30.732,245.757c-5.673,0-10.24,4.587-10.24,10.24c0,5.652,4.567,10.24,10.24,10.24h161.396l120.725,60.352
				c1.454,0.737,3.01,1.085,4.587,1.085c2.642,0,5.263-1.024,7.229-3.01l58.448-58.427h98.157c5.652,0,10.24-4.587,10.24-10.24
				c0-5.652-4.587-10.24-10.24-10.24H30.732z"/>
			<path d="M40.971,368.632h430.063c24.862,0,44.583-22.24,40.385-47.88c-3.318-20.131-22.281-34.036-42.679-34.036h-62.666
				l-70.121,70.121c-6.226,6.226-15.749,7.782-23.633,3.83l-147.921-73.95H43.244c-20.397,0-39.361,13.905-42.679,34.036
				C-3.633,346.391,16.109,368.632,40.971,368.632z"/>
		</g>
	</g>
</g>
<g>
</g>
<g>
</g>
<g>
</g>
<g>
</g>
<g>
</g>
<g>
</g>
<g>
</g>
<g>
</g>
<g>
</g>
<g>
</g>
<g>
</g>
<g>
</g>
<g>
</g>
<g>
</g>
<g>
</g>
</svg>
