<?xml version="1.0" encoding="iso-8859-1"?>
<!-- Generator: Adobe Illustrator 19.0.0, SVG Export Plug-In . SVG Version: 6.00 Build 0)  -->
<svg version="1.1" id="Capa_1" xmlns="http://www.w3.org/2000/svg" xmlns:xlink="http://www.w3.org/1999/xlink" x="0px" y="0px"
	 viewBox="0 0 512.021 512.021" style="enable-background:new 0 0 512.021 512.021;" xml:space="preserve">
<g>
	<g>
		<g>
			<path d="M304.947,385.93v8.714h-97.382v-8.714H0v3.584c0,5.642,2.048,11.274,6.154,15.38c4.096,4.096,9.738,6.154,15.38,6.154
				h468.951c5.642,0,11.274-2.048,15.38-6.154c4.096-4.096,6.154-9.738,6.154-15.38v-3.584H304.947z M68.68,400.276H47.155v-2.56
				H68.68V400.276z"/>
			<path d="M60.989,377.728h390.021c3.584,0,7.178-1.536,9.738-4.096s4.096-6.154,4.096-9.738V114.806
				c0-3.584-1.536-7.178-4.096-9.738s-6.154-4.096-9.738-4.096H60.989c-3.584,0-7.178,1.536-9.738,4.096s-4.096,6.154-4.096,9.738
				v249.078c0,3.584,1.536,7.178,4.096,9.738C54.323,376.704,57.405,377.728,60.989,377.728z M256.256,107.126
				c2.56,0,4.608,2.048,4.608,4.608s-2.048,4.608-4.608,4.608s-4.608-2.048-4.608-4.608S253.696,107.126,256.256,107.126z
				 M69.192,122.496h374.139v233.707H69.192V122.496z"/>
		</g>
	</g>
</g>
<g>
</g>
<g>
</g>
<g>
</g>
<g>
</g>
<g>
</g>
<g>
</g>
<g>
</g>
<g>
</g>
<g>
</g>
<g>
</g>
<g>
</g>
<g>
</g>
<g>
</g>
<g>
</g>
<g>
</g>
</svg>
