<?xml version="1.0" encoding="iso-8859-1"?>
<!-- Generator: Adobe Illustrator 19.0.0, SVG Export Plug-In . SVG Version: 6.00 Build 0)  -->
<svg version="1.1" id="Capa_1" xmlns="http://www.w3.org/2000/svg" xmlns:xlink="http://www.w3.org/1999/xlink" x="0px" y="0px"
	 viewBox="0 0 452.608 452.608" style="enable-background:new 0 0 452.608 452.608;" xml:space="preserve">
<g>
	<g>
		<path d="M285.184,92.672V63.488h6.656c17.408,0,31.744-14.336,31.744-31.744S309.248,0,291.84,0H160.768
			c-17.408,0-31.744,14.336-31.744,31.744c0,17.408,14.336,31.744,31.744,31.744h6.656v29.184
			c-38.912,2.56-69.12,34.816-69.12,73.728v80.384h256V166.4C354.304,127.488,324.096,95.232,285.184,92.672z M259.584,92.16h-20.48
			V80.896h-25.6V92.16h-20.48V62.976h66.56V92.16z"/>
	</g>
</g>
<g>
	<g>
		<path d="M98.304,272.384v81.92c0,28.16,15.872,53.76,40.96,66.56v31.744h174.08v-31.744c25.088-12.8,40.96-38.4,40.96-66.56
			v-81.92H98.304z"/>
	</g>
</g>
<g>
</g>
<g>
</g>
<g>
</g>
<g>
</g>
<g>
</g>
<g>
</g>
<g>
</g>
<g>
</g>
<g>
</g>
<g>
</g>
<g>
</g>
<g>
</g>
<g>
</g>
<g>
</g>
<g>
</g>
</svg>
