<svg height="512" viewBox="0 0 302.417 331.689" width="512" xmlns="http://www.w3.org/2000/svg"><path d="m298.74 296.194-67.556-104.728c-.47-.724-1.002-1.477-1.545-2.169-9.875-12.598-28.092-14.805-40.69-4.93l-2.54 1.991-61.777 48.424c-.014.023-.03.053-.043.076-2.508 1.841-13.341 11.016-18.578 15.43.258-2.746 8.555-13.852 15.179-20.903-6.803-14.809-13.481-31.952-17.859-44.722-9.64-1.035-24.121-4.406-26.157-6.423 6.752.026 20.64.112 24.005-.075-.001-.003-.002-.007-.003-.01l53.608-3.239 2.274-.137c5.588-.348 11.067-2.702 15.266-7.042 8.931-9.233 8.686-23.957-.546-32.888l-69.405-67.137c-4.239-4.084-9.828-6.034-15.363-5.827-.028-.015-.06-.033-.088-.047 7.907-3.852 15.747.126 20.68 3.834 1.85-12.774-.7-26.458-8.201-38.533-16.32-26.273-49.833-34.972-74.854-19.43-25.021 15.542-32.076 49.44-15.756 75.712 15.513 24.974 46.558 34.051 71.081 21.538l10.297 11.124c8.331.633 28.375 6.783 30.608 9.416-6.607-.6-20.077-1.855-23.742-1.998l.065.07-46.324-3.347c-1.273-.083-2.74-.103-4.047-.024-16.473.995-26.315 14.289-28.707 31.226-2.146 21.512-3.364 56.391 11.527 94.816 23.184 59.823 36.739 74.487 59.706 82.929 18.869 4.803 44.129 2.231 59.672-23.663l54.809-51.201 58.03 69.159c7.344 8.773 20.246 10.909 30.109 4.547 10.682-6.891 13.755-21.137 6.865-31.819z" fill="rgb(0,0,0)"/></svg>