<svg height="480pt" viewBox="0 0 480 480" width="480pt" xmlns="http://www.w3.org/2000/svg"><path d="m240 0c-132.546875 0-240 107.453125-240 240s107.453125 240 240 240 240-107.453125 240-240c-.148438-132.484375-107.515625-239.851562-240-240zm8.566406 69.191406 83.433594-33.351562c9.46875 4.285156 18.628906 9.222656 27.414062 14.777344l.21875.136718c8.632813 5.46875 16.882813 11.519532 24.695313 18.109375l.671875.585938c3.503906 2.984375 6.910156 6.074219 10.222656 9.261719.417969.410156.855469.800781 1.273438 1.21875 3.472656 3.390624 6.835937 6.886718 10.089844 10.484374.269531.304688.527343.625.796874.929688 2.855469 3.199219 5.601563 6.511719 8.265626 9.878906.640624.800782 1.28125 1.601563 1.902343 2.402344 2.890625 3.742188 5.6875 7.550781 8.328125 11.480469l-16.632812 70.703125-81.832032 27.28125-78.828124-63.074219zm-186.125 34.480469c.621094-.800781 1.253906-1.601563 1.894532-2.398437 2.632812-3.339844 5.355468-6.597657 8.167968-9.777344.304688-.335938.585938-.679688.886719-1.015625 3.234375-3.605469 6.582031-7.097657 10.050781-10.480469.398438-.390625.796875-.800781 1.214844-1.160156 3.285156-3.167969 6.664062-6.238282 10.136719-9.207032l.800781-.671874c7.742188-6.542969 15.914062-12.554688 24.460938-18l.3125-.199219c8.734374-5.542969 17.835937-10.472657 27.25-14.761719l83.816406 33.191406v80.800782l-78.832032 63.0625-81.832031-27.230469-16.632812-70.703125c2.664062-3.921875 5.429687-7.722656 8.304687-11.449219zm-9.640625 259.089844c-2.351562-3.585938-4.601562-7.238281-6.746093-10.960938l-.519532-.898437c-2.132812-3.703125-4.152344-7.46875-6.054687-11.292969l-.066407-.121094c-4.007812-8.046875-7.527343-16.328125-10.535156-24.800781v-.078125c-1.421875-4-2.71875-8.097656-3.917968-12.21875l-.433594-1.519531c-1.097656-3.871094-2.09375-7.785156-2.984375-11.742188-.078125-.386718-.175781-.753906-.253907-1.136718-1.964843-8.9375-3.375-17.984376-4.226562-27.097657l48.839844-58.605469 81.265625 27.085938 23.585937 94.335938-38.753906 51.5625zm240.472657 94.78125c-4 .992187-8.105469 1.847656-12.210938 2.617187-.574219.113282-1.160156.207032-1.734375.3125-3.496094.625-7.03125 1.160156-10.574219 1.597656-.945312.121094-1.882812.25-2.824218.363282-3.289063.382812-6.609376.671875-9.9375.910156-1.046876.070312-2.082032.175781-3.128907.242188-4.253906.261718-8.542969.414062-12.863281.414062-3.957031 0-7.890625-.105469-11.800781-.3125-.472657 0-.925781-.078125-1.398438-.113281-3.480469-.199219-6.945312-.460938-10.402343-.796875l-.398438-.074219c-7.574219-.820313-15.105469-2.023437-22.558594-3.597656l-47.320312-74.089844 38.144531-50.863281h111.46875l38.769531 51.199218zm165.496093-169.542969c-.082031.382812-.175781.753906-.257812 1.136719-.894531 3.953125-1.890625 7.867187-2.984375 11.742187l-.429688 1.519532c-1.203125 4.121093-2.496094 8.203124-3.921875 12.21875v.078124c-3.007812 8.472657-6.523437 16.753907-10.535156 24.800782l-.066406.121094c-1.914063 3.828124-3.929688 7.59375-6.054688 11.292968l-.519531.898438c-2.132812 3.734375-4.378906 7.378906-6.734375 10.945312l-78.929687 12.445313-39.023438-51.519531 23.574219-94.3125 81.265625-27.085938 48.839844 58.605469c-.847657 9.117187-2.257813 18.171875-4.222657 27.113281zm0 0"/></svg>