<?xml version="1.0" encoding="iso-8859-1"?>
<!-- Generator: Adobe Illustrator 19.0.0, SVG Export Plug-In . SVG Version: 6.00 Build 0)  -->
<svg version="1.1" id="Capa_1" xmlns="http://www.w3.org/2000/svg" xmlns:xlink="http://www.w3.org/1999/xlink" x="0px" y="0px"
	 viewBox="0 0 512 512" style="enable-background:new 0 0 512 512;" xml:space="preserve">
<g>
	<g>
		<path d="M511.971,377.112l-7.775-4.273C503.703,372.568,455,345.345,455,306v-22.482c0-17.773-4.879-34.503-13.451-48.834
			C459.041,225.466,471,207.108,471,186h-30c0,12.111-8.658,22.235-20.108,24.517c-12.515-10.427-27.847-17.736-44.929-20.648
			l-166.942-28.456c-14.323-2.441-26.646-11.711-32.964-24.796L115.415,21H91v54.188l-40,10V95.77l-51,20v16.443L29.787,162H91
			v51.719c0,39.204,18.546,75.307,50,98.131V461h-30v30h60v-24.593l36.127-132.301c3.78-0.473,143.558-26.692,143.558-26.692
			c7.584,21.664,19.992,41.514,36.69,58.211c25.7,25.7,58.862,41.254,94.625,44.66V461h-30v30h60V386L511.971,377.112z"/>
	</g>
</g>
<g>
</g>
<g>
</g>
<g>
</g>
<g>
</g>
<g>
</g>
<g>
</g>
<g>
</g>
<g>
</g>
<g>
</g>
<g>
</g>
<g>
</g>
<g>
</g>
<g>
</g>
<g>
</g>
<g>
</g>
</svg>
