<svg enable-background="new 0 0 24 24" height="512" viewBox="0 0 24 24" width="512" xmlns="http://www.w3.org/2000/svg"><path d="m23.695 4.974c-.079-.25-.283-.44-.538-.502-.254-.062-.523.013-.708.198l-3.168 3.167-2.425-.694-.694-2.425 3.168-3.168c.186-.185.26-.454.198-.708-.062-.255-.252-.458-.502-.538-.64-.201-1.321-.304-2.026-.304-3.86 0-7 3.14-7 7 0 .817.137 1.606.408 2.352l-9.528 9.528c-.568.567-.88 1.32-.88 2.12s.312 1.553.88 2.12c.567.568 1.32.88 2.12.88s1.553-.312 2.12-.88l9.528-9.528c.746.271 1.535.408 2.352.408 3.86 0 7-3.14 7-7 0-.705-.103-1.386-.305-2.026z"/></svg>