<?xml version="1.0" encoding="iso-8859-1"?>
<!-- Generator: Adobe Illustrator 19.0.0, SVG Export Plug-In . SVG Version: 6.00 Build 0)  -->
<svg version="1.1" id="Layer_1" xmlns="http://www.w3.org/2000/svg" xmlns:xlink="http://www.w3.org/1999/xlink" x="0px" y="0px"
	 viewBox="0 0 511.997 511.997" style="enable-background:new 0 0 511.997 511.997;" xml:space="preserve">
<g>
	<g>
		<circle cx="133.401" cy="53.326" r="40.799"/>
	</g>
</g>
<g>
	<g>
		<path d="M494.763,407.445h-27.994c-13.529-36.721-48.827-62.912-90.245-62.912h-58.628c-6.998,0-13.546,1.922-19.154,5.258
			l-45.601-127.068c-1.442-4.017-5.25-6.697-9.52-6.697h-19.018c-2.249-3.398-5.543-6.148-9.661-7.663l-63.767-23.461
			l-29.898-48.459l32.246,30.502l4.414-20.626c3.45-16.126-6.824-31.995-22.95-35.445L82.921,99.729
			c-16.126-3.45-31.995,6.824-35.445,22.95L18.338,273.105c0.043,0.456,13.003,85.069,13.003,85.069L0.853,469.381
			c-3.475,12.672,3.983,25.762,16.656,29.237c12.673,3.474,25.763-3.985,29.237-16.656l31.829-116.094
			c0.884-3.222,1.078-6.595,0.571-9.897l-11.077-72.222l10.461,2.239l27.877,76.004l7.505,115.228
			c0.853,13.091,12.147,23.047,25.289,22.197c13.113-0.855,23.051-12.177,22.197-25.289l-7.729-118.654
			c-0.148-2.272-0.621-4.51-1.405-6.647l-23.786-64.85l9.335-43.626l-12.63-4.647c-6.376-2.347-15.284-4.379-18.623-15.223
			l-19.032-63.213l33.495,54.288c2.331,3.777,5.862,6.664,10.029,8.197l17.437,6.416c0.016,5.572,4.536,10.086,10.113,10.086h17.301
			l25.345,9.325c9.428,3.468,19.775-0.69,24.344-9.325h10.912l46.965,130.867c-1.989,4.578-3.098,9.626-3.098,14.935v25.388h-27.594
			c-9.52,0-17.237,7.718-17.237,17.237v23.917c0,7.45,4.735,13.778,11.353,16.185c0.716-26.08,22.138-47.079,48.388-47.079
			c26.603,0,48.257,21.565,48.415,48.131h60c0.158-26.567,21.811-48.131,48.415-48.131c26.268,0,47.701,21.027,48.389,47.131
			c6.693-2.368,11.497-8.734,11.497-16.238v-23.917C512,415.162,504.283,407.445,494.763,407.445z"/>
	</g>
</g>
<g>
	<g>
		<path d="M295.284,432.783c-18.385,0-33.344,14.958-33.344,33.343c0,18.385,14.958,33.344,33.344,33.344
			s33.344-14.958,33.344-33.344C328.628,447.741,313.669,432.783,295.284,432.783z M295.284,479.531
			c-7.403,0-13.405-6.001-13.405-13.404s6.001-13.404,13.405-13.404c7.403,0,13.404,6.001,13.404,13.404
			S302.687,479.531,295.284,479.531z"/>
	</g>
</g>
<g>
	<g>
		<path d="M452.114,432.783c-18.385,0-33.343,14.958-33.343,33.343c0,18.385,14.958,33.344,33.343,33.344
			c18.385,0,33.344-14.958,33.344-33.344C485.457,447.741,470.5,432.783,452.114,432.783z M452.114,479.531
			c-7.403,0-13.404-6.001-13.404-13.404s6.001-13.404,13.404-13.404c7.403,0,13.405,6.001,13.405,13.404
			C465.517,473.53,459.517,479.531,452.114,479.531z"/>
	</g>
</g>
<g>
</g>
<g>
</g>
<g>
</g>
<g>
</g>
<g>
</g>
<g>
</g>
<g>
</g>
<g>
</g>
<g>
</g>
<g>
</g>
<g>
</g>
<g>
</g>
<g>
</g>
<g>
</g>
<g>
</g>
</svg>
