<svg height="426pt" viewBox="0 0 426 426.66968" width="426pt" xmlns="http://www.w3.org/2000/svg"><path d="m363 373.332031c0 1.65625.386719 3.289063 1.125 4.773438l21.335938 42.664062c1.804687 3.617188 5.5 5.898438 9.539062 5.898438 4.042969 0 7.738281-2.28125 9.542969-5.898438l21.332031-42.664062c.742188-1.484375 1.125-3.117188 1.125-4.773438v-266.664062h-64zm0 0"/><path d="m395 21.332031c-17.664062.019531-31.980469 14.335938-32 32v32h64v-32c-.019531-17.664062-14.332031-31.980469-32-32zm0 0"/><path d="m309.667969 21.332031h-42.667969v32c0 5.890625-4.773438 10.667969-10.664062 10.667969-5.890626 0-10.667969-4.777344-10.667969-10.667969v-42.664062c0-5.890625-4.777344-10.667969-10.667969-10.667969s-10.664062 4.777344-10.664062 10.667969v10.664062h-42.667969v32c0 5.890625-4.777344 10.667969-10.667969 10.667969s-10.664062-4.777344-10.664062-10.667969v-42.664062c0-5.890625-4.777344-10.667969-10.667969-10.667969s-10.667969 4.777344-10.667969 10.667969v10.664062h-42.664062v32c0 5.890625-4.777344 10.667969-10.667969 10.667969s-10.667969-4.777344-10.667969-10.667969v-42.664062c0-5.890625-4.773438-10.667969-10.664062-10.667969-5.890626 0-10.667969 4.777344-10.667969 10.667969v10.664062h-42.667969c-2.828125 0-5.542969 1.121094-7.542969 3.125-2 2-3.125 4.714844-3.121093 7.542969v384c-.003907 2.828125 1.121093 5.542969 3.121093 7.542969 2 2.003906 4.714844 3.125 7.542969 3.125h298.667969c2.828125 0 5.542969-1.121094 7.542969-3.125 2.003906-2 3.125-4.714844 3.125-7.542969v-384c0-2.828125-1.121094-5.542969-3.125-7.542969-2-2.003906-4.714844-3.125-7.542969-3.125zm-64 320h-170.667969c-5.890625 0-10.664062-4.773437-10.664062-10.664062s4.773437-10.667969 10.664062-10.667969h170.667969c5.890625 0 10.667969 4.777344 10.667969 10.667969s-4.777344 10.664062-10.667969 10.664062zm0-64h-170.667969c-5.890625 0-10.664062-4.773437-10.664062-10.664062s4.773437-10.667969 10.664062-10.667969h170.667969c5.890625 0 10.667969 4.777344 10.667969 10.667969s-4.777344 10.664062-10.667969 10.664062zm0-64h-170.667969c-5.890625 0-10.664062-4.773437-10.664062-10.664062s4.773437-10.667969 10.664062-10.667969h170.667969c5.890625 0 10.667969 4.777344 10.667969 10.667969s-4.777344 10.664062-10.667969 10.664062zm0-64h-170.667969c-5.890625 0-10.664062-4.773437-10.664062-10.664062s4.773437-10.667969 10.664062-10.667969h170.667969c5.890625 0 10.667969 4.777344 10.667969 10.667969s-4.777344 10.664062-10.667969 10.664062zm0 0"/></svg>