<svg id="Layer_1" height="512" viewBox="0 0 512 512" width="512" xmlns="http://www.w3.org/2000/svg" data-name="Layer 1"><path d="m168 72a32 32 0 1 0 -32 32 32.036 32.036 0 0 0 32-32zm-48 0a16 16 0 1 1 16 16 16.018 16.018 0 0 1 -16-16z"/><path d="m38.788 200.333 22.953 12.553 12.554 22.953a8 8 0 0 0 14.037 0l12.554-22.953 22.953-12.553a8 8 0 0 0 0-14.038l-22.953-12.553-12.554-22.953a8 8 0 0 0 -14.037 0l-12.554 22.953-22.953 12.552a8 8 0 0 0 0 14.038zm32.687-13.677a8 8 0 0 0 3.18-3.18l6.658-12.176 6.659 12.175a8 8 0 0 0 3.18 3.18l12.175 6.658-12.175 6.659a8 8 0 0 0 -3.18 3.18l-6.659 12.175-6.659-12.175a8 8 0 0 0 -3.18-3.18l-12.174-6.659z"/><path d="m348.368 146.612a8 8 0 0 0 -7.906-2.021l-25.106 7.354-25.106-7.354a8 8 0 0 0 -9.927 9.926l7.354 25.107-7.354 25.106a8 8 0 0 0 9.927 9.926l25.106-7.354 25.106 7.354a8 8 0 0 0 9.927-9.926l-7.354-25.106 7.354-25.106a8 8 0 0 0 -2.021-7.906zm-21.348 35.261 3.9 13.317-13.317-3.9a7.991 7.991 0 0 0 -4.5 0l-13.317 3.9 3.9-13.317a8.005 8.005 0 0 0 0-4.5l-3.9-13.318 13.317 3.9a7.991 7.991 0 0 0 4.5 0l13.317-3.9-3.9 13.317a8.009 8.009 0 0 0 .001 4.501z"/><path d="m429.741 445.907 12.554 22.953a8 8 0 0 0 14.037 0l12.554-22.953 22.953-12.553a8 8 0 0 0 0-14.038l-22.953-12.553-12.554-22.953a8 8 0 0 0 -14.037 0l-12.554 22.953-22.953 12.553a8 8 0 0 0 0 14.038zm9.733-26.231a8 8 0 0 0 3.18-3.18l6.659-12.175 6.659 12.175a8 8 0 0 0 3.18 3.18l12.176 6.659-12.176 6.659a8 8 0 0 0 -3.18 3.18l-6.659 12.175-6.659-12.175a8 8 0 0 0 -3.18-3.18l-12.174-6.66z"/><path d="m392 224h16v16h-16z"/><path d="m72 448h16v16h-16z"/><path d="m24 104h16v16h-16z"/><path d="m336 39.622c-97.047 0-176 78.953-176 176a176 176 0 0 0 6.632 48h-158.632a8 8 0 0 0 -8 8.092l.185 16a8 8 0 0 0 8 7.908c2.722 0 7.833 2.832 16.852 16h-17.037a8 8 0 0 0 -8 8.092l.185 16a8 8 0 0 0 8 7.908c2.722 0 7.833 2.832 16.852 16h-17.037a8 8 0 0 0 -8 8.092l.185 16a8 8 0 0 0 8 7.908c2.829 0 8.236 3.053 17.932 17.6l.285.428a31.321 31.321 0 0 0 26.113 13.976h287.158a31.284 31.284 0 0 0 26.28-14.229c10.094-15.462 15.64-17.771 18.047-17.771a8 8 0 0 0 8-8v-1.109a177.55 177.55 0 0 0 84.4-60.746 174.454 174.454 0 0 0 35.6-106.149c0-97.047-78.953-176-176-176zm-296.286 265.149-.285-.428c-6.413-9.62-14.025-19.409-23.317-23.144l-.019-1.578h359.907v1.61c-9.628 3.9-17.426 14.195-23.445 23.415a15.333 15.333 0 0 1 -12.882 6.975h-287.158a15.355 15.355 0 0 1 -12.801-6.85zm184.286-89.149a112 112 0 1 1 165.61 98.3 7.972 7.972 0 0 0 -5.61-2.3h-16.87c9.349-13.864 14.558-16 16.87-16a8 8 0 0 0 8-8v-16a8 8 0 0 0 -8-8h-149.172a112.136 112.136 0 0 1 -10.828-48zm-184.286 137.149-.285-.428c-6.413-9.62-14.025-19.409-23.317-23.144l-.019-1.578h359.907v1.61c-9.628 3.9-17.426 14.195-23.445 23.415a15.333 15.333 0 0 1 -12.882 6.975h-287.158a15.355 15.355 0 0 1 -12.801-6.85zm336.286 24.461c-9.628 3.9-17.426 14.195-23.445 23.415a15.333 15.333 0 0 1 -12.882 6.975h-287.158a15.355 15.355 0 0 1 -12.8-6.851l-.285-.428c-6.413-9.62-14.025-19.409-23.317-23.144l-.019-1.578h359.906zm87.646-65.124a161.555 161.555 0 0 1 -71.905 53.523 8 8 0 0 0 -7.74-6.01h-16.871c9.349-13.864 14.558-16 16.87-16a8 8 0 0 0 8-8v-4.921a128.017 128.017 0 1 0 -174.642-67.082h-34.026a159.831 159.831 0 0 1 -7.332-48c0-88.224 71.775-160 160-160s160 71.776 160 160a158.583 158.583 0 0 1 -32.354 96.49z"/></svg>