<svg id="Capa_1" enable-background="new 0 0 512.03 512.03" height="512" viewBox="0 0 512.03 512.03" width="512" xmlns="http://www.w3.org/2000/svg"><g><g id="Page-1_37_"><g id="_x30_38---Gaming-Mouse" transform="translate(0 -1)"><path id="Shape_448_" d="m256.015 455.068c-90.392 0-133.729-51.847-154.566-125.343v28.74c0 85.364 69.202 154.566 154.566 154.566s154.566-69.202 154.566-154.566v-28.74c-20.837 73.496-64.174 125.343-154.566 125.343z"/><path id="Shape_447_" d="m246.355 145.936h19.321c10.671 0 19.321-8.65 19.321-19.321v-67.622c0-10.671-8.65-19.321-19.321-19.321h-19.321c-10.671 0-19.321 8.65-19.321 19.321v67.623c0 10.67 8.65 19.32 19.321 19.32z"/><path id="Shape_446_" d="m256.015 223.219c14.719 1.118 27.616-9.772 28.981-24.47v-38.864c-5.848 3.477-12.517 5.331-19.321 5.371h-19.321c-6.803-.04-13.473-1.894-19.321-5.371v38.864c1.366 14.698 14.263 25.588 28.982 24.47z"/><path id="Shape_445_" d="m315.301 2.547c-1.939-1.671-4.689-2.021-6.984-.889-2.481 1.07-4.063 3.54-3.999 6.241v190.85c-1.333 25.389-22.904 44.946-48.302 43.79-25.398 1.155-46.969-18.401-48.302-43.79v-190.85c.064-2.701-1.519-5.17-3.999-6.241-2.395-1.139-5.242-.711-7.197 1.082l-92.517 86.412c-1.594 1.311-2.527 3.259-2.55 5.323 0 199.825 11.138 341.272 154.566 341.272s154.564-141.447 154.564-341.272c-.002-1.965-.85-3.834-2.328-5.13zm-39.965 384.898h-38.642c-5.335 0-9.66-4.325-9.66-9.66s4.325-9.66 9.66-9.66h38.642c5.335 0 9.66 4.325 9.66 9.66s-4.325 9.66-9.66 9.66zm19.321-48.301h-77.283c-5.335 0-9.66-4.325-9.66-9.66s4.325-9.66 9.66-9.66h77.283c5.335 0 9.66 4.325 9.66 9.66 0 5.334-4.325 9.66-9.66 9.66z"/></g></g></g></svg>