<svg width="261" height="254" viewBox="0 0 261 254" fill="none" xmlns="http://www.w3.org/2000/svg">
<g opacity="0.7" clip-path="url(#clip0_9_921)">
<path d="M165.693 57.1238H95.3653C93.7626 57.1257 92.2262 57.7613 91.0929 58.8911C89.9597 60.021 89.3222 61.5528 89.3202 63.1506V218.984L88.5142 219.229L71.2616 224.497C70.444 224.745 69.5608 224.66 68.806 224.26C68.0512 223.86 67.4865 223.178 67.2357 222.363L15.917 55.2394C15.6673 54.4242 15.7524 53.5435 16.1537 52.7908C16.555 52.0382 17.2396 51.4752 18.057 51.2255L44.6433 43.1094L121.718 19.5887L148.304 11.4726C148.708 11.3484 149.134 11.3051 149.555 11.3449C149.977 11.3848 150.386 11.5071 150.76 11.7049C151.134 11.9027 151.465 12.1721 151.734 12.4976C152.004 12.8231 152.206 13.1985 152.33 13.6021L165.448 56.3202L165.693 57.1238Z" fill="#3C3C3C" fill-opacity="0.5"/>
<path d="M181.04 56.3202L165.23 4.83502C164.967 3.97718 164.537 3.17942 163.965 2.48733C163.392 1.79524 162.689 1.22238 161.894 0.801493C161.1 0.380603 160.23 0.119925 159.334 0.0343646C158.438 -0.0511957 157.535 0.0400386 156.674 0.302845L119.296 11.7096L42.2253 35.2343L4.84668 46.6451C3.11027 47.1767 1.65635 48.3734 0.804049 49.9727C-0.0482482 51.5719 -0.229288 53.4429 0.300675 55.1751L54.3355 231.13C54.766 232.528 55.6347 233.752 56.814 234.622C57.9934 235.492 59.4214 235.962 60.8884 235.964C61.5674 235.964 62.2426 235.862 62.8912 235.662L88.5143 227.844L89.3203 227.594V226.755L88.5143 227L62.6535 234.895C61.1208 235.361 59.4654 235.201 58.0503 234.452C56.6353 233.703 55.5762 232.424 55.1053 230.897L1.07461 54.938C0.841305 54.1814 0.759993 53.3864 0.835325 52.5984C0.910656 51.8104 1.14115 51.045 1.51361 50.3459C1.88607 49.6469 2.3932 49.028 3.00592 48.5246C3.61865 48.0213 4.32495 47.6433 5.08438 47.4125L42.463 36.0017L119.534 12.4811L156.912 1.07027C157.488 0.895007 158.087 0.805646 158.689 0.805086C159.982 0.807979 161.239 1.22341 162.278 1.99053C163.316 2.75765 164.081 3.83615 164.46 5.06806L180.198 56.3202L180.448 57.1237H181.286L181.04 56.3202Z" fill="#3F3D56"/>
<path d="M49.441 51.3569C48.6642 51.3564 47.9081 51.1077 47.2835 50.6473C46.6589 50.1869 46.1988 49.5391 45.9706 48.7989L40.7797 31.8949C40.6402 31.4408 40.5918 30.9638 40.6373 30.4911C40.6827 30.0184 40.8211 29.5592 41.0446 29.1398C41.2681 28.7205 41.5722 28.3491 41.9397 28.0469C42.3071 27.7447 42.7307 27.5177 43.1861 27.3787L114.09 5.73689C115.01 5.45705 116.004 5.55249 116.853 6.00225C117.702 6.45201 118.338 7.21935 118.62 8.13585L123.811 25.04C124.092 25.957 123.996 26.9475 123.545 27.7942C123.094 28.6409 122.324 29.2746 121.405 29.5564L50.5006 51.1982C50.1573 51.3033 49.8001 51.3568 49.441 51.3569Z" fill="#E0677D"/>
<path d="M76.6326 18.0623C81.0841 18.0623 84.6927 14.4645 84.6927 10.0265C84.6927 5.58846 81.0841 1.99072 76.6326 1.99072C72.1811 1.99072 68.5725 5.58846 68.5725 10.0265C68.5725 14.4645 72.1811 18.0623 76.6326 18.0623Z" fill="#E0677D"/>
<path d="M76.6327 15.115C79.4515 15.115 81.7366 12.8368 81.7366 10.0265C81.7366 7.21619 79.4515 4.93799 76.6327 4.93799C73.8139 4.93799 71.5288 7.21619 71.5288 10.0265C71.5288 12.8368 73.8139 15.115 76.6327 15.115Z" fill="#242424"/>
<path d="M242.865 233.911H106.65C105.741 233.91 104.871 233.549 104.229 232.909C103.586 232.269 103.225 231.401 103.224 230.495V67.7712C103.225 66.8657 103.586 65.9976 104.229 65.3574C104.871 64.7171 105.741 64.357 106.65 64.356H242.865C243.773 64.357 244.644 64.7172 245.286 65.3574C245.928 65.9976 246.29 66.8657 246.291 67.7712V230.495C246.289 231.401 245.928 232.269 245.286 232.909C244.644 233.549 243.773 233.91 242.865 233.911Z" fill="#3C3C3C" fill-opacity="0.5"/>
<path d="M180.198 56.3202H95.3652C93.549 56.3228 91.8079 57.0432 90.5236 58.3236C89.2394 59.604 88.5167 61.3398 88.5142 63.1506V227L89.3202 226.755V63.1506C89.3221 61.5528 89.9596 60.021 91.0929 58.8911C92.2261 57.7613 93.7626 57.1257 95.3652 57.1238H180.447L180.198 56.3202ZM254.149 56.3202H95.3652C93.549 56.3228 91.8079 57.0432 90.5236 58.3236C89.2394 59.604 88.5167 61.3398 88.5142 63.1506V247.17C88.5167 248.98 89.2394 250.716 90.5236 251.997C91.8079 253.277 93.549 253.997 95.3652 254H254.149C255.965 253.997 257.706 253.277 258.99 251.997C260.275 250.716 260.997 248.98 261 247.17V63.1506C260.997 61.3398 260.275 59.604 258.99 58.3236C257.706 57.0432 255.965 56.3228 254.149 56.3202ZM260.194 247.17C260.192 248.767 259.554 250.299 258.421 251.429C257.288 252.559 255.751 253.194 254.149 253.196H95.3652C93.7626 253.194 92.2261 252.559 91.0929 251.429C89.9596 250.299 89.3221 248.767 89.3202 247.17V63.1506C89.3221 61.5528 89.9596 60.021 91.0929 58.8911C92.2261 57.7613 93.7626 57.1257 95.3652 57.1238H254.149C255.751 57.1257 257.288 57.7613 258.421 58.8911C259.554 60.021 260.192 61.5528 260.194 63.1506V247.17Z" fill="#3F3D56"/>
<path d="M211.834 73.9989H137.681C136.719 73.9978 135.797 73.6165 135.117 72.9386C134.438 72.2606 134.055 71.3415 134.054 70.3828V52.7041C134.055 51.7454 134.438 50.8262 135.117 50.1483C135.797 49.4704 136.719 49.0891 137.681 49.088H211.834C212.795 49.0891 213.717 49.4704 214.397 50.1483C215.077 50.8262 215.46 51.7454 215.461 52.7041V70.3828C215.46 71.3415 215.077 72.2606 214.397 72.9386C213.717 73.6165 212.795 73.9978 211.834 73.9989Z" fill="#E0677D"/>
<path d="M174.757 50.2934C179.209 50.2934 182.817 46.6957 182.817 42.2576C182.817 37.8196 179.209 34.2219 174.757 34.2219C170.306 34.2219 166.697 37.8196 166.697 42.2576C166.697 46.6957 170.306 50.2934 174.757 50.2934Z" fill="#E0677D"/>
<path d="M174.757 47.1522C177.469 47.1522 179.667 44.9608 179.667 42.2576C179.667 39.5545 177.469 37.3631 174.757 37.3631C172.046 37.3631 169.848 39.5545 169.848 42.2576C169.848 44.9608 172.046 47.1522 174.757 47.1522Z" fill="#242424"/>
</g>
<defs>
<clipPath id="clip0_9_921">
<rect width="261" height="254" fill="white"/>
</clipPath>
</defs>
</svg>
