<?xml version="1.0" encoding="iso-8859-1"?>
<!-- Generator: Adobe Illustrator 19.0.0, SVG Export Plug-In . SVG Version: 6.00 Build 0)  -->
<svg version="1.1" id="Capa_1" xmlns="http://www.w3.org/2000/svg" xmlns:xlink="http://www.w3.org/1999/xlink" x="0px" y="0px"
	 viewBox="0 0 512 512" style="enable-background:new 0 0 512 512;" xml:space="preserve">
<g>
	<g>
		<path d="M139.325,118.114L96.903,75.692c-5.859-5.859-15.352-5.859-21.211,0s-5.859,15.352,0,21.211l42.422,42.422
			c5.859,5.859,15.352,5.859,21.211,0C145.184,133.466,145.184,123.973,139.325,118.114z"/>
	</g>
</g>
<g>
	<g>
		<path d="M76,241H15c-8.291,0-15,6.709-15,15s6.709,15,15,15h61c8.291,0,15-6.709,15-15C91,247.709,84.291,241,76,241z"/>
	</g>
</g>
<g>
	<g>
		<path d="M497,241h-61c-8.291,0-15,6.709-15,15s6.709,15,15,15h61c8.291,0,15-6.709,15-15C512,247.709,505.291,241,497,241z"/>
	</g>
</g>
<g>
	<g>
		<path d="M436.308,75.692c-5.859-5.859-15.352-5.859-21.211,0l-42.422,42.422c-5.859,5.859-5.859,15.352,0,21.211
			c5.859,5.859,15.352,5.859,21.211,0l42.422-42.422C442.167,91.044,442.167,81.552,436.308,75.692z"/>
	</g>
</g>
<g>
	<g>
		<path d="M256,0c-8.291,0-15,6.709-15,15v61c0,8.291,6.709,15,15,15s15-6.709,15-15V15C271,6.709,264.291,0,256,0z"/>
	</g>
</g>
<g>
	<g>
		<path d="M340,150.099c-32.699-25.8-75-35.099-116.4-25.199c-48,11.1-86.699,49.199-98.4,96.9
			c-11.7,47.999,1.8,96.599,36.299,130.499C173.8,364.6,181,383.899,181,403.7v3.3c0,8.399,6.599,15,15,15h120
			c8.401,0,15-6.601,15-15v-3.3c0-19.501,7.5-39.401,20.7-52.301C376.901,325.899,391,292,391,256
			C391,214.6,372.4,175.899,340,150.099z M256,211c-22.63,0-39.104,15.011-43.418,32.388c-1.963,7.903-9.915,12.947-18.179,10.957
			c-8.027-1.992-12.935-10.137-10.942-18.164c7.432-30,35.61-55.181,72.539-55.181c8.291,0,15,6.709,15,15S264.291,211,256,211z"/>
	</g>
</g>
<g>
	<g>
		<path d="M196,452v15c0,24.814,20.186,45,45,45h30c24.814,0,45-20.186,45-45v-15H196z"/>
	</g>
</g>
<g>
</g>
<g>
</g>
<g>
</g>
<g>
</g>
<g>
</g>
<g>
</g>
<g>
</g>
<g>
</g>
<g>
</g>
<g>
</g>
<g>
</g>
<g>
</g>
<g>
</g>
<g>
</g>
<g>
</g>
</svg>
