<svg height="512" viewBox="0 0 60 40" width="512" xmlns="http://www.w3.org/2000/svg"><g id="Page-1" fill="none" fill-rule="evenodd"><g id="012---Lawn-Mower" fill="rgb(0,0,0)" fill-rule="nonzero"><path id="Shape" d="m13 29.62c.0040439 1.0655449-.6352481 2.0282335-1.6189148 2.4378701s-2.11729766.1852612-2.87075709-.5681982c-.75345944-.7534594-.97783477-1.8870904-.56819817-2.8707571s1.37232518-1.6229587 2.43787006-1.6189148c1.4447089.0054828 2.6145172 1.1752911 2.62 2.62z"/><path id="Shape" d="m10.38 20.25c-5.05852316.1652327-9.07377296 4.313779-9.07377296 9.375s4.0152498 9.2097673 9.07377296 9.375c1.4592365.0022516 2.8983486-.3403941 4.2-1 3.8875113-1.9446593 5.9271617-6.3075824 4.9262672-10.5375534-1.0008946-4.2299709-4.7794948-7.2161812-9.1262672-7.2124466zm0 14c-1.87356489.0040466-3.56489756-1.1214475-4.28468546-2.8512356-.7197879-1.7297882-.32613691-3.7228717.99724362-5.0491167s3.31560824-1.7242045 5.04694864-1.0081583c1.7313405.7160461 2.8604888 2.4049413 2.8604932 4.2785106.000006 2.5531782-2.0668277 4.6244856-4.62 4.63z"/><path id="Shape" d="m52 28c-2.209139 0-4 1.790861-4 4s1.790861 4 4 4 4-1.790861 4-4-1.790861-4-4-4zm0 6c-1.1045695 0-2-.8954305-2-2s.8954305-2 2-2 2 .8954305 2 2-.8954305 2-2 2z"/><path id="Shape" d="m21.36 23c-.5522847 0-1-.4477153-1-1s.4477153-1 1-1 1 .4477153 1 1c.0000133.2669582-.1067151.5228394-.2964199.7106659-.1897047.1878265-.4466352.2920037-.7135801.2893341z"/><path id="Shape" d="m30 9.88c-.4098038.00039671-.7783727-.24927896-.93-.63l-2.17-5.32c-.0983792-.246631-.0946309-.52226283.0104184-.76612744.1050494-.24386461.3027739-.43593745.5495816-.53387256.246631-.0983792.5222628-.09463093.7661274.01041844.2438647.10504937.4359375.30277388.5338726.54958156l2.12 5.32c.0983792.246631.0946309.52226283-.0104184.76612744-.1050494.24386461-.3027739.43593745-.5495816.53387256-.102094.04076371-.2102108.06441427-.32.07z"/><path id="Shape" d="m24 6c-.4871536.00435317-.9065524-.34298097-.9930481-.82241401-.0864956-.47943303.185086-.95142861.6430481-1.11758599l8-3c.5191477-.19329964 1.0967003.07085236 1.29.59000001.1932996.51914765-.0708524 1.09670032-.59 1.28999999l-8 3c-.1121529.04072022-.2306881.06104054-.35.06z"/><path id="Shape" d="m59 40h-58c-.55228475 0-1-.4477153-1-1s.44771525-1 1-1h58c.5522847 0 1 .4477153 1 1s-.4477153 1-1 1z"/><path id="Shape" d="m60 31.38c-.0112711-.2249036-.0380009-.4487654-.08-.67-.3208362-1.8353449-1.2722186-3.5011482-2.69-4.71l.41-2.06c.5397087-2.8394784.7311216-5.734179.57-8.62l-3.52-.06c-.5522847 0-1-.4477153-1-1s.4477153-1 1-1l3.13.05c-.0920191-.4531579-.2398108-.893174-.44-1.31-1.6-3-11.27-5.15-18.53-6.41-.23.59-1.37 4 .89 9.56l6.53 1.85c.3342247.0945578.5954422.3557753.69.69l.15.53 2.37 8.29c.7932802-.3500934 1.6530165-.5240877 2.52-.51 1.2760233-.0065216 2.5191847.4043538 3.54 1.17 1.2443519.9061271 2.0928484 2.2558451 2.37 3.77 0 .18.05.35.07.53s0 .35 0 .53c0 3.3137085-2.6862915 6-6 6h-.1c-3.2667522-.065348-5.8806535-2.7325943-5.88-6-.0063539-1.2279612.3712498-2.4272028 1.08-3.43.1957811-.2885805.4202576-.5566121.67-.8l-2.56-9-6.46-1.77c-.2918456-.0816885-.5309-.2913208-.65-.57-2.37-5.51-1.81-9.39-1.22-11.12l-1-.16c-.6698922-.0991602-1.3536281.03124304-1.94.37l-3.44 2-1.54.88-.21.14c-1.0989503.7591201-1.5636882 2.1533337-1.14 3.42l3 9.12h-1.59c-.3628678-.0026428-.6958284-.2016538-.87-.52-1.5431292-3.0445457-3.7467713-5.7059988-6.45-7.79 1.1263289-.4810107 1.7356238-1.7096768 1.4368234-2.89740841-.2988004-1.18773158-1.4169637-1.98181705-2.6368234-1.87259159h-6.48v-5.5c.0023856-1.32419313-1.0281903-2.42055043-2.35-2.5-.7070405-.00817956-1.3873693.26976983-1.88641345.77069713-.49904412.50092731-.7744291 1.18229817-.76358655 1.88930287v8.34c.00428692.7102221.38491093 1.3648954 1 1.72v2.55c-2.99849381.0675593-5.89934955 1.0788347-8.29 2.89-.34434433.2582582-.48479734.7078856-.3486833 1.1162278.13611405.4083421.51825289.6837722.9486833.6837722.21637021 0 .42690383-.0701779.6-.2 2.28517218-1.7550492 5.12280117-2.6347142 8-2.48.4048513.011313.8087844.0446959 1.21.1 2.6610262.398906 5.1189673 1.6559673 7 3.58.0178015.0310418.0415959.0582355.07.08.4513193.4709009.8658676.9757138 1.24 1.51l.06.09c.4850889.699372.8972412 1.4466074 1.23 2.23.11.26.21.53.3.79.1297509.3807733.2398954.7679481.33 1.16.1204993.3878354.220636.7817065.3 1.18v.06.06c.2112994 1.7404769.0511092 3.5059772-.47 5.18-.1855335.5709648-.1047664 1.195074.22 1.7.318139.4940339.8374379.823167 1.42.9 1.6574094.2217122 3.3278282.3319599 5 .33 3.9917351-.0019875 7.9601207-.6088774 11.77-1.8.8450101-.2608446 1.4183915-1.0456859 1.41-1.93v-3.5h2.6c-1.2300882 2.9948263-.5338277 6.435811 1.7637927 8.7168288 2.2976205 2.2810177 5.7435641 2.9523055 8.7293909 1.7005307s4.9228019-4.1797916 4.9068164-7.4173595c0-.21 0-.42 0-.62zm-23-4.38h-12.49c0-.21-.08-.41-.14-.62-.0954066-.439771-.2155983-.8737968-.36-1.3-.1-.31-.22-.61-.35-.91-.393695-.9605884-.8899009-1.8758871-1.48-2.73-.411681-.5983591-.8697584-1.1634327-1.37-1.69l-.08-.09c-2.2055087-2.2939125-5.111375-3.7890617-8.26-4.25l-.47-.07v-1.34h8.1c2.6157959 1.9380417 4.7451854 4.4577051 6.22 7.36.4740511.9734525 1.4478325 1.6046783 2.53 1.64h7.22c.4989283.0338578.8961422.4310717.93.93z"/></g></g></svg>