<?xml version="1.0" encoding="iso-8859-1"?>
<!-- Generator: Adobe Illustrator 19.0.0, SVG Export Plug-In . SVG Version: 6.00 Build 0)  -->
<svg version="1.1" id="Layer_1" xmlns="http://www.w3.org/2000/svg" xmlns:xlink="http://www.w3.org/1999/xlink" x="0px" y="0px"
	 viewBox="0 0 511.998 511.998" style="enable-background:new 0 0 511.998 511.998;" xml:space="preserve">
<g>
	<g>
		<circle cx="318.019" cy="87.574" r="38.141"/>
	</g>
</g>
<g>
	<g>
		<path d="M496.787,432.138h-42.236h-0.286c-87.467-171.806-74.468-146.308-84.715-166.296c2.643-2.299,4.386-5.166,5.275-8.306
			c2.602-9.179-2.73-18.735-11.916-21.338l-57.513-16.296l-20.076-62.584l30.144,47.488l12.048-29.371
			c5.401-13.166-0.895-28.217-14.061-33.618l-42.512-17.438c-8.731-3.581-19.463,0.738-25.315,3.284
			c-16.547,7.203-65.656,29.998-65.656,29.998c-4.904,2.241-8.482,6.642-9.673,11.901c-1.191,5.258,0.14,10.771,3.6,14.906
			l20.648,24.679l-10.58,4.6c-11.43,4.969-19.105,15.777-20.032,28.204c-0.519,6.962-8.784,117.767-9.286,124.509
			c-0.549,7.37-6.769,13.143-14.159,13.143H33.469c-7.83,0-14.199-6.369-14.199-14.199c0-7.793,6.341-14.199,14.199-14.199h11.495
			v12.678h98.378V309.01c0-6.221-5.043-11.264-11.264-11.264H56.226c-6.221,0-11.264,5.043-11.264,11.264v22.927H33.469
			C15.013,331.937,0,346.952,0,365.406c0,0.126,0.008,0.25,0.01,0.375c0.203,18.282,15.13,33.093,33.459,33.093h107.019
			c17.42,0,32.081-13.608,33.375-30.98c0.404-5.421,8.738-117.162,9.286-124.509c0.393-5.273,3.649-9.857,8.498-11.965l9.17-3.987
			l-9.529,23.229c-2.27,5.285-4.846,13.323-1.328,20.521l41.488,81.4l-28.327,83.369c-3.577,10.526,2.058,21.959,12.584,25.535
			c10.532,3.577,21.96-2.061,25.535-12.584l31.06-91.415c1.747-5.145,1.342-10.776-1.125-15.617l-30.065-58.988l6.183,0.878
			l34.796,67.091l-9.721,89.401c-1.202,11.052,6.784,20.986,17.836,22.187c11.021,1.203,20.984-6.758,22.187-17.836l10.425-95.883
			c0.458-4.213-0.425-8.463-2.524-12.145l-34.242-60.067v-0.004l3.278-7.991l-6.794-1.925c-14.796-4.193-23.08-17.485-23.759-25.988
			l-5.631-70.432l22.168,69.109c1.757,5.475,6.14,9.76,11.744,11.349l60.718,17.204c12.877,25.12-0.526-1.17,83.694,164.303h-21.075
			c-8.401,0-15.213,6.811-15.213,15.213s6.811,15.213,15.213,15.213h86.39c8.401,0,15.213-6.811,15.213-15.213
			C512,438.949,505.189,432.138,496.787,432.138z M218.612,184.053l-3.66-4.375l6.712-3.066L218.612,184.053z"/>
	</g>
</g>
<g>
	<g>
		<path d="M98.701,231.701h-9.098c-24.654,0-44.639,19.986-44.639,44.639c-0.001,6.221,5.042,11.264,11.263,11.264h75.85
			c6.221,0,11.264-5.043,11.264-11.264C143.34,251.686,123.354,231.701,98.701,231.701z"/>
	</g>
</g>
<g>
	<g>
		<path d="M44.966,416.981v8.805h-0.003c0,5.78,4.354,10.535,9.96,11.183c-1.171,2.369-1.846,5.025-1.846,7.847
			c0,9.802,7.946,17.749,17.749,17.749s17.749-7.946,17.749-17.749c0-2.789-0.661-5.418-1.807-7.765h14.772
			c-1.147,2.348-1.807,4.976-1.807,7.765c0,9.802,7.946,17.749,17.749,17.749c9.803,0,17.749-7.946,17.749-17.749
			c0-2.821-0.675-5.479-1.846-7.847c5.606-0.647,9.96-5.403,9.96-11.183v-8.805H44.966z M70.825,451.406
			c-3.635,0-6.592-2.957-6.592-6.592c-0.001-3.635,2.956-6.592,6.592-6.592c3.635,0,6.592,2.957,6.592,6.592
			S74.46,451.406,70.825,451.406z M117.478,451.406c-3.635,0-6.592-2.957-6.592-6.592s2.957-6.592,6.592-6.592
			s6.592,2.957,6.592,6.592S121.113,451.406,117.478,451.406z"/>
	</g>
</g>
<g>
</g>
<g>
</g>
<g>
</g>
<g>
</g>
<g>
</g>
<g>
</g>
<g>
</g>
<g>
</g>
<g>
</g>
<g>
</g>
<g>
</g>
<g>
</g>
<g>
</g>
<g>
</g>
<g>
</g>
</svg>
