<svg fill="none" height="512" viewBox="0 0 128 128" width="512" xmlns="http://www.w3.org/2000/svg"><path clip-rule="evenodd" d="m56.9988 64.2446c-.1312 13.1422-10.8256 23.7554-23.9988 23.7554-13.2548 0-24-10.7452-24-24 0-.335.00686-.6684.02046-1h-4.02046c-1.65685 0-3-1.3431-3-3s1.34315-3 3-3h5.0369c2.9958-9.8402 12.1433-17 22.9631-17 11.0261 0 20.3156 7.4355 23.1278 17.5659 4.8921-2.653 10.8523-2.653 15.7444.0001 2.8122-10.1305 12.1016-17.566 23.1278-17.566 10.82 0 19.967 7.1598 22.963 17h5.037c1.657 0 3 1.3431 3 3s-1.343 3-3 3h-4.02c.013.3316.02.665.02 1 0 13.2548-10.745 24-24 24-13.1732 0-23.8675-10.6132-23.9988-23.7554-3.9745-3.5579-10.0279-3.5579-14.0024 0zm-5.9988-.2446c0 9.9411-8.0589 18-18 18s-18-8.0589-18-18 8.0589-18 18-18 18 8.0589 18 18zm44 18c9.941 0 18-8.0589 18-18s-8.059-18-18-18c-9.9411 0-18 8.0589-18 18s8.0589 18 18 18z" fill="rgb(0,0,0)" fill-rule="evenodd"/></svg>