<svg id="Layer_1" enable-background="new 0 0 512 512" height="512" viewBox="0 0 512 512" width="512" xmlns="http://www.w3.org/2000/svg"><path d="m352.4 0h-192.8c-88.004 0-159.6 71.596-159.6 159.6v192.8c0 88.004 71.596 159.6 159.6 159.6h192.8c88.004 0 159.6-71.596 159.6-159.6v-192.8c0-88.004-71.596-159.6-159.6-159.6zm-235.582 218.327c-5.855-5.86-5.851-15.358.009-21.213l32.142-32.114c5.86-5.855 15.357-5.852 21.213.009l32.115 32.105c5.86 5.855 5.864 15.353.009 21.213-5.856 5.861-15.354 5.864-21.213.009l-21.531-21.512-21.531 21.512c-5.86 5.855-15.357 5.852-21.213-.009zm246.184 112.554c-29.501 29.501-68.252 44.251-107.002 44.251s-77.501-14.75-107.002-44.251c-5.821-5.894-5.762-15.392.133-21.213s15.392-5.762 21.213.133c23.636 23.565 54.646 35.346 85.656 35.346s62.02-11.78 85.656-35.346c5.821-5.894 15.318-5.954 21.213-.133s5.954 15.318.133 21.213zm32.143-112.498c-5.856 5.861-15.354 5.864-21.213.009l-21.532-21.512-21.531 21.512c-5.86 5.855-15.357 5.852-21.213-.009-5.855-5.86-5.851-15.358.009-21.213l32.142-32.114c5.86-5.855 15.357-5.852 21.213.009l32.115 32.105c5.861 5.855 5.865 15.352.01 21.213z"/></svg>