<svg fill="none" height="512" viewBox="0 0 24 24" width="512" xmlns="http://www.w3.org/2000/svg"><path d="m7.61702 8.712 3.20498-2.328c.3598-.2633.7974-.39849 1.243-.384.5435.01355 1.0693.19611 1.5043.52228.4349.32618.7575.77977.9227 1.29772.186.583.356.977.51 1.182.4653.6208 1.0689 1.1246 1.7629 1.4714.694.3469 1.4593.5271 2.2351.5266v2c-1.0327.0011-2.0528-.2267-2.9869-.6671s-1.7589-1.0825-2.4151-1.8799l-.697 3.955 2.061 1.73 2.223 6.108-1.88.684-2.04-5.604-3.38998-2.845c-.2782-.2246-.49108-.5198-.61648-.8546-.1254-.3349-.15873-.6973-.09652-1.0494l.509-2.885-.677.492-2.127 2.928-1.618-1.176 2.351-3.236zm5.88298-3.212c-.5304 0-1.0391-.21071-1.4142-.58579-.3751-.37507-.5858-.88378-.5858-1.41421s.2107-1.03914.5858-1.41421c.3751-.37508.8838-.58579 1.4142-.58579.5305 0 1.0392.21071 1.4142.58579.3751.37507.5858.88378.5858 1.41421s-.2107 1.03914-.5858 1.41421c-.375.37508-.8837.58579-1.4142.58579zm-2.972 13.181-3.21398 3.83-1.532-1.285 2.976-3.546.746-2.18 1.79098 1.5z" fill="rgb(0,0,0)"/></svg>