<svg id="Layer_1" enable-background="new 0 0 100 100" height="512" viewBox="0 0 100 100" width="512" xmlns="http://www.w3.org/2000/svg"><path d="m86.1914062 22.1650391-31.8222656-11.7973633c-3.0283203-1.121582-6.4072266.4169922-7.5351562 3.4321289l-2.1523438 5.7524414c-.5458984 1.4584961-.4902344 3.0419922.1572266 4.4589844.6503906 1.4228516 1.8193359 2.5063477 3.2900391 3.0517578l31.8222656 11.796875c.671875.2490234 1.3603516.3671875 2.0380859.3671875 2.3779297-.0004883 4.6201172-1.453125 5.4970703-3.7993164l2.1523438-5.7524414c.5458984-1.4584961.4902344-3.0419922-.1572266-4.4589844-.6513672-1.4228516-1.8193359-2.5063477-3.2900391-3.0512695z"/><path d="m24.2548828 82.144043 17.9023438 6.6362305c2.2255859.8251953 4.5068359 1.2158203 6.7529297 1.2158203 6.3070068-.0003662 12.319397-3.0905151 15.9605103-8.3082275l-54.1015626-19.8234864c-1.1866455 3.5129395-1.0087891 7.2815552.5414429 10.6697998 1.6240234 3.5512695 4.5400391 6.2568359 8.1728516 7.6025391z"/><path d="m40.3544922 46.7324219c-1.3203125 3.5297852-5.2832031 5.331543-8.8154297 4.0209961l-1.2060547-.4667969c-7.5097656-2.7861328-15.6103516.9458008-18.4355469 8.4951172l-.0991821.2651367 54.612793 20.0107422c.2576294-.5328979.4996338-1.0771484.7109985-1.6420898l10.0804443-26.9428101-33.6360474-12.324646zm-11.7836914 14.765625-1.9160156-4.1318359-4.3457031 2.015625-1.2617188-2.7226562 7.0673828-3.2753906 3.1777344 6.8525391zm17.5053711 6.4140625-1.9160156-4.1318359-4.3457031 2.015625-1.2617188-2.7226562 7.0664062-3.2753906 3.1787109 6.8525391zm19.3574219-17.8554688 1.9160156 4.1318359 4.3457031-2.0146484 1.2617188 2.7226562-7.0673828 3.2763672-3.1777344-6.8544922zm-2.3095704 16.1552735 3.1787109 6.8525391-2.7216797 1.2617188-1.9160156-4.1318359-4.3457031 2.015625-1.2617188-2.7226562zm-15.1958007-22.569336 1.9165039 4.1318359 4.3452148-2.0146484 1.2617188 2.7226562-7.0668945 3.2763672-3.1782227-6.8544922z"/><path d="m44.6176147 35.338623 33.6360474 12.324646 2.0927734-5.5935059c-.4870605-.0923461-33.5040893-12.298706-33.6263427-12.3502196z"/></svg>