<?xml version="1.0" encoding="UTF-8"?>
<svg xmlns="http://www.w3.org/2000/svg" viewBox="0 0 128 128" width="512" height="512"><g id="Dessert"><path d="M71.47546,93.27618a1.04449,1.04449,0,0,0,.14832-.08258l-.11792-.105Z"/><path d="M55.34375,58.21387A22.54081,22.54081,0,0,1,73.01434,73.10736a8.242,8.242,0,0,1,7.886-5.88763h.36914A8.23485,8.23485,0,0,1,89.5,75.44043v1.24219a3.44743,3.44743,0,0,0,1.05469,2.46191,2.90563,2.90563,0,0,0,2.125.85352,3.0515,3.0515,0,0,0,2.96-3.06836V75.44043a8.23485,8.23485,0,0,1,8.23047-8.2207h4.20068l-1.75146-21.90918C105.94727,40.65039,101.56641,37,96.34473,37H41.26465c-5.2207,0-9.60156,3.65039-9.97266,8.30664l-.54,6.60059c-.002.02246-.0039.04394-.00488.0664l-.01685.34735a21.78526,21.78526,0,0,1,8.07447-1.57489A22.4778,22.4778,0,0,1,55.34375,58.21387Z"/><path d="M99.63965,75.44043v1.48926a7.0534,7.0534,0,0,1-6.82031,7.0664,6.88366,6.88366,0,0,1-5.043-1.97461A7.46558,7.46558,0,0,1,85.5,76.68262V75.44043a4.23027,4.23027,0,0,0-4.23047-4.2207h-.36914a4.23485,4.23485,0,0,0-4.23047,4.23047V90.92969a7.03088,7.03088,0,0,1-2.04687,4.97461c-.0127.01367-.02637.02734-.03907.04a4.99234,4.99234,0,0,1-3.55859,1.416h-.21222L69.08777,108h42.24316l-2.94037-36.78027h-4.52044A4.23027,4.23027,0,0,0,99.63965,75.44043Z"/><path d="M67.33984,89.39355a2.00217,2.00217,0,0,0-1.52343-.7041H11.793a2.0005,2.0005,0,0,0-1.97461,2.32032l4.7373,29.21191A7.25188,7.25188,0,0,0,21.98438,126h4.06347L22.01758,96.19238a2.0004,2.0004,0,1,1,3.96484-.53515L30.08508,126h6.71961V95.71973a2,2,0,0,1,4,0V126h6.72052L51.627,95.65723a2.0004,2.0004,0,0,1,3.96485.53515L51.56238,126H55.626a7.251,7.251,0,0,0,7.42773-5.77832L67.791,91.00977A2.00026,2.00026,0,0,0,67.33984,89.39355Z"/><path d="M65.81641,84.68945a5.98488,5.98488,0,0,1,3.98248,1.521,20.15415,20.15415,0,0,0,.61517-4.91553c0-10.22558-7.44238-18.51269-17.12011-19.30176a18.10792,18.10792,0,0,0-28.97852,0c-9.67773.78907-17.12012,9.07618-17.12012,19.30176a20.15416,20.15416,0,0,0,.61518,4.91553,5.98484,5.98484,0,0,1,3.98248-1.521Z"/><path d="M81.30573,33a13.94386,13.94386,0,0,0-9.02485-19.51221C74.80042,10.51788,79.74268,6,86.50488,6a2,2,0,0,0,0-4C76.11627,2,69.51459,10.23712,67.55933,13.05652A13.95463,13.95463,0,0,0,56.04584,33Z"/><path d="M118.80469,112H68.43909l-1.43714,8.8623A10.42762,10.42762,0,0,1,64.60126,126h44.44366a11.89492,11.89492,0,0,0,11.75977-12A2.0001,2.0001,0,0,0,118.80469,112Z"/></g></svg>
