<svg fill="none" height="32" viewBox="0 0 32 32" width="32" xmlns="http://www.w3.org/2000/svg"><g fill="rgb(0,0,0)"><path d="m25.9 6.09998c-2.5 2.8-3.9 6.20002-3.9 9.90002s1.4 7.1 3.9 9.9c2.6-2.5 4.1-6 4.1-9.9s-1.6-7.40002-4.1-9.90002z"/><path d="m20 16c0-4.2 1.5-8.1 4.3-11.2-2.3-1.8-5.2-2.8-8.3-2.8s-6 1-8.29999 2.8c2.79999 3.1 4.29999 7 4.29999 11.2s-1.5 8.1-4.29999 11.2c2.29999 1.8 5.19999 2.8 8.29999 2.8s6-1 8.3-2.8c-2.8-3.1-4.3-7-4.3-11.2z"/><path d="m6.1 25.9c2.5-2.8 3.9-6.2 3.9-9.9s-1.4-7.10002-3.9-9.90002c-2.5 2.5-4.1 6.00002-4.1 9.90002s1.6 7.4 4.1 9.9z"/></g></svg>