<svg height="512" viewBox="0 0 64 64" width="512" xmlns="http://www.w3.org/2000/svg" xmlns:xlink="http://www.w3.org/1999/xlink"><linearGradient id="linear-gradient" gradientUnits="userSpaceOnUse" x1="32" x2="32" y1="1.304" y2="63.304"><stop offset="0" stop-color="#ffe100"/><stop offset="1" stop-color="#f98900"/></linearGradient><linearGradient id="linear-gradient-2" gradientUnits="userSpaceOnUse" x1="31" x2="31" y1="51" y2="45.077"><stop offset="0" stop-color="#69101b"/><stop offset="1" stop-color="#400a10"/></linearGradient><linearGradient id="linear-gradient-3" gradientUnits="userSpaceOnUse" x1="47.555" x2="47.217" y1="15.786" y2="18.655"><stop offset=".005" stop-color="#414d4d"/><stop offset=".206" stop-color="#3a4545"/><stop offset=".522" stop-color="#272e2e"/><stop offset=".914" stop-color="#080909"/><stop offset="1"/></linearGradient><linearGradient id="linear-gradient-4" x1="47.935" x2="45.798" xlink:href="#linear-gradient-3" y1="27.606" y2="31.206"/><linearGradient id="linear-gradient-5" gradientTransform="matrix(-1 0 0 1 36 0)" x1="19.555" x2="19.217" xlink:href="#linear-gradient-3" y1="15.786" y2="18.655"/><linearGradient id="linear-gradient-6" x1="20.935" x2="18.798" xlink:href="#linear-gradient-3" y1="27.606" y2="31.206"/><g id="_23-_Unamused_Face" data-name="23- Unamused Face"><path d="m32 63c-27.7 0-31.038-24-31-30v-2c-.038-6 3.3-30 31-30 27.7 0 31.038 24 31 30v2c.038 6-3.3 30-31 30z" fill="url(#linear-gradient)"/><g fill="#ed8d06"><path d="m48 16a8.4 8.4 0 0 0 -8 3 24.058 24.058 0 0 1 14 3s-1-5-6-6z"/><path d="m16 16a8.4 8.4 0 0 1 8 3 24.058 24.058 0 0 0 -14 3s1-5 6-6z"/><path d="m40 48.6a1.3 1.3 0 0 0 -.265-.789c-.896-1.183-4.028-4.811-8.735-4.811s-7.839 3.628-8.735 4.811a1.261 1.261 0 0 0 -.154 1.291 1.3 1.3 0 0 0 -.111.5 1.519 1.519 0 0 0 2.324 1.18c1.1-.642 2.4-1.367 3.566-2a6.579 6.579 0 0 1 6.22 0c1.164.635 2.469 1.36 3.566 2a1.519 1.519 0 0 0 2.324-1.182 1.3 1.3 0 0 0 -.111-.5 1.3 1.3 0 0 0 .111-.5z"/></g><path d="m40 49.6a1.3 1.3 0 0 0 -.265-.789c-.896-1.183-4.028-4.811-8.735-4.811s-7.839 3.628-8.735 4.811a1.261 1.261 0 0 0 -.154 1.291 1.3 1.3 0 0 0 -.111.5 1.519 1.519 0 0 0 2.324 1.18c1.1-.642 2.4-1.367 3.566-2a6.579 6.579 0 0 1 6.22 0c1.164.635 2.469 1.36 3.566 2a1.519 1.519 0 0 0 2.324-1.182 1.3 1.3 0 0 0 -.111-.5 1.3 1.3 0 0 0 .111-.5z" fill="#f9bf06"/><path d="m39.735 48.811c-.896-1.183-4.028-4.811-8.735-4.811s-7.839 3.628-8.735 4.811a1.3 1.3 0 0 0 -.265.789 1.519 1.519 0 0 0 2.324 1.18c1.1-.642 2.4-1.367 3.566-2a6.579 6.579 0 0 1 6.22 0c1.164.635 2.469 1.36 3.566 2a1.519 1.519 0 0 0 2.324-1.18 1.3 1.3 0 0 0 -.265-.789z" fill="url(#linear-gradient-2)"/><path d="m54 22c-7-6-14-3-14-3a8.4 8.4 0 0 1 8-3c5 1 6 6 6 6z" fill="url(#linear-gradient-3)"/><path d="m52 32a4 4 0 0 0 -4-4c-5 0-10 4-10 4s.923-.261 2.239-.5a21.46 21.46 0 0 0 -2.239 1.5 25.852 25.852 0 0 1 6.012-.883c0 .115.021.225.034.336a3.659 3.659 0 0 0 -.046.547 4 4 0 0 0 8 0 4.13 4.13 0 0 0 -.05-.5 4.13 4.13 0 0 0 .05-.5z" fill="#ed8d06"/><path d="m21 28c-5 0-10 4-10 4s.923-.261 2.239-.5a21.46 21.46 0 0 0 -2.239 1.5 25.852 25.852 0 0 1 6.012-.883c0 .115.021.225.034.336a3.659 3.659 0 0 0 -.046.547 4 4 0 0 0 8 0 4.13 4.13 0 0 0 -.05-.5 4.13 4.13 0 0 0 .05-.5 4 4 0 0 0 -4-4z" fill="#ed8d06"/><path d="m48 28c-5 0-10 4-10 4a25.665 25.665 0 0 1 6.1-.884 4 4 0 1 0 3.9-3.116z" fill="url(#linear-gradient-4)"/><path d="m10 22c7-6 14-3 14-3a8.4 8.4 0 0 0 -8-3c-5 1-6 6-6 6z" fill="url(#linear-gradient-5)"/><path d="m21 28c-5 0-10 4-10 4a25.665 25.665 0 0 1 6.105-.884 4 4 0 1 0 3.895-3.116z" fill="url(#linear-gradient-6)"/></g></svg>