<?xml version="1.0"?>
<svg xmlns="http://www.w3.org/2000/svg" viewBox="0 0 64 64" width="512" height="512"><g id="Hanger"><path d="M59.8906,46.6465a3.8579,3.8579,0,0,0-1.7636-2.4131L40.4512,33.58A3.017,3.017,0,0,1,39,31.0107V28a3.0033,3.0033,0,0,0-3-3H28a3.0033,3.0033,0,0,0-3,3v3.0107A3.0161,3.0161,0,0,1,23.5488,33.58L5.8721,44.2344a3.8846,3.8846,0,0,0-1.2945,5.3584l.57.93A.9994.9994,0,0,0,6.001,51a.9884.9884,0,0,0,.5146-.1436L32,35.5166l25.4844,15.34a1,1,0,0,0,1.3681-.3339l.5684-.9268A3.8516,3.8516,0,0,0,59.8906,46.6465Z"/><path d="M54.68,49H9.32a1,1,0,0,1,0-2H54.68a1,1,0,0,1,0,2Z"/><path d="M32,27a1,1,0,0,1-1-1V22a1,1,0,0,1,1-1,3,3,0,1,0-3-3,1,1,0,0,1-2,0,5,5,0,1,1,6,4.8994V26A1,1,0,0,1,32,27Z"/></g></svg>
