<svg height="512" viewBox="0 0 64 64" width="512" xmlns="http://www.w3.org/2000/svg"><g id="solid"><path d="m56.852 30.497c1.873-2.659 2.833-5.89 2.655-9.184-.227-4.19-2.167-7.958-5.463-10.61-5.791-4.658-14.255-4.074-19.688 1.359l-2.356 2.357-2.357-2.357c-5.433-5.433-13.897-6.017-19.687-1.358-3.296 2.651-5.236 6.419-5.463 10.609-.178 3.294.782 6.524 2.656 9.184-.333.59-.612 1.252-.822 2.003-.396 1.428-.268 2.94.361 4.258 1.193 2.499 3.177 5.358 5.471 7.911-.477 3.338.524 6.191 2.949 8.264 2.684 2.295 7.012 3.487 11.811 3.487 1.668 0 3.393-.146 5.126-.437 1.769.291 3.5.437 5.153.437 5.24 0 9.72-1.429 12.308-4.057 1.979-2.009 2.771-4.663 2.337-7.691 2.638-2.93 4.477-5.83 5.474-7.914.631-1.319.759-2.831.359-4.256-.21-.753-.49-1.415-.824-2.005zm-48.599 2.538c.49-1.758 1.348-2.856 2.624-3.358 1.606-.638 3.594.094 4.616 1.692.976 1.55 2.352 3.671 3.02 4.552.247.325.668.471 1.059.36.394-.107.683-.443.73-.848l.37-3.142c.061-.521.498-.915 1.017-.915l.059-.001c.498.021.908.381.994.864l.301 1.828c.246 1.421.206 2.867-.12 4.299l-.39 1.73c-.072.322.019.659.243.901 1.52 1.636 3.534 3.034 5.907 4.13-5.18.999-10.786.562-14.866-1.601-2.245-2.464-4.182-5.235-5.326-7.631-.42-.882-.505-1.898-.238-2.86zm39.827 17.924c-2.076 2.107-5.8 3.312-10.175 3.437 4.87-1.828 8.899-4.718 12.05-7.777-.081 1.691-.702 3.148-1.875 4.34zm7.432-15.065c-.971 2.031-2.793 4.882-5.416 7.738-.007.006-.016.01-.022.017l.003.003c-3.25 3.534-7.73 7.072-13.382 9.072-7.563 2.676-16.284 2.111-20.288-1.312-1.682-1.438-2.477-3.303-2.374-5.556 8.443 3.696 21.233 1.527 27.191-4.853.227-.243.318-.582.244-.905l-.396-1.734c-.324-1.42-.365-2.867-.121-4.3l.309-1.824c.081-.483.496-.849.986-.869.513-.021 1.017.382 1.08.921l.37 3.144c.048.405.337.741.73.848.391.107.812-.035 1.06-.36.661-.872 2.008-2.956 3.021-4.549 1.021-1.605 3.009-2.334 4.611-1.7 1.277.503 2.138 1.604 2.631 3.365.27.959.185 1.972-.237 2.854z"/></g></svg>