<svg height="512pt" viewBox="0 -1 512.12542 512" width="512pt" xmlns="http://www.w3.org/2000/svg"><path d="m10.320312 49.855469 136.550782 40.226562c4.238281 1.242188 8.175781 3.347657 11.5625 6.179688l41.519531 34.589843 34.945313-37.488281-57.382813-46.625c-1.445313-1.175781-3.113281-2.054687-4.898437-2.578125l-147.804688-43.523437c-3.578125-1.054688-7.429688-.6445315-10.707031 1.140625-3.277344 1.785156-5.710938 4.796875-6.765625 8.378906l-6.527344 22.246094c-2.1875 7.441406 2.066406 15.253906 9.507812 17.453125zm0 0"/><path d="m216.886719 144.949219c1.621093 1.351562 2.726562 3.222656 3.125 5.292969l63.535156 330.230468c2.140625 11.144532 9.242187 20.703125 19.296875 25.96875 10.050781 5.265625 21.953125 5.660156 32.332031 1.078125l95.003907-41.976562c2.257812-.996094 4.828124-1.039063 7.117187-.113281 2.289063.925781 4.109375 2.734374 5.042969 5.023437 1.222656 2.996094 3.589844 5.386719 6.574218 6.636719 2.988282 1.253906 6.347657 1.265625 9.34375.039062l46.289063-18.992187c6.234375-2.550781 9.21875-9.675781 6.664063-15.90625l-86.40625-210.84375c-1.308594-3.191407-.707032-6.847657 1.554687-9.453125l9.925781-11.464844c5.070313-5.871094 4.433594-14.738281-1.425781-19.824219l-96.417969-83.539062c-2.828125-2.4375-6.507812-3.652344-10.230468-3.375-3.722657.277343-7.183594 2.019531-9.621094 4.847656l-21.464844 24.832031c-3.265625 3.789063-8.96875 4.253906-12.800781 1.042969l-35.308594-29.421875-35.027344 37.558594zm117.027343 333.230469c-5.910156 2.601562-12.695312 2.304687-18.355468-.804688s-9.550782-8.675781-10.527344-15.058594l-21.394531-141.347656c-1.636719-10.71875.769531-21.664062 6.757812-30.703125l23.835938 18.835937c9.34375 7.289063 16.316406 17.191407 20.03125 28.449219l41.144531 122.304688zm-14.628906-207.039063 13.714844-2.460937c21.414062-3.71875 42.351562 8.6875 49.371094 29.257812l43.886718 130.386719c1.515626 4.484375-.644531 9.378906-4.972656 11.289062l-29.03125 12.828125-40.628906-120.640625c-4.835938-14.671875-13.925781-27.570312-26.113281-37.0625l-22.035157-17.457031c4.839844-3.054688 10.226563-5.140625 15.863282-6.140625zm-49.835937-64.09375 12.953125 54.859375c1.144531 4.90625-1.902344 9.816406-6.808594 10.96875-.691406.167969-1.394531.25-2.105469.246094-4.238281 0-7.921875-2.914063-8.894531-7.039063l-12.957031-54.855469c-.75-3.183593.253906-6.523437 2.632812-8.765624 2.378907-2.238282 5.773438-3.042969 8.90625-2.101563 3.128907.941406 5.519531 3.480469 6.273438 6.660156zm-25.601563-54.757813c4.890625-1.246093 9.867188 1.703126 11.117188 6.59375l4.574218 17.910157c1.246094 4.894531-1.710937 9.871093-6.601562 11.117187-.742188.195313-1.503906.289063-2.269531.285156-4.171875-.003906-7.816407-2.832031-8.847657-6.875l-4.554687-17.882812c-.609375-2.355469-.253906-4.851562.984375-6.945312 1.242188-2.089844 3.261719-3.601563 5.617188-4.203126zm0 0"/><path d="m45.742188 277.722656c12.246093.421875 24.121093-4.257812 32.789062-12.925781 8.667969-8.664063 13.347656-20.539063 12.921875-32.789063 0-21.15625-29.59375-68.25-45.710937-86.859374-16.109376 18.597656-45.7148442 65.691406-45.7148442 86.859374-.4257818 12.25 4.2578122 24.125 12.9218752 32.789063 8.667969 8.667969 20.542969 13.347656 32.792969 12.925781zm0 0"/></svg>