<svg height="511.999pt" viewBox="1 1 511.999 511.999" width="511.999pt" xmlns="http://www.w3.org/2000/svg"><path d="m323.351562 455.273438c0 14.519531-11.804687 26.328124-26.320312 26.328124-14.511719 0-26.316406-11.808593-26.316406-26.328124v-185.777344c10.273437-2.40625 17.117187-7.015625 22.949218-10.960938 6.601563-4.460937 10.964844-7.410156 21.132813-7.410156 10.164063 0 14.527344 2.949219 21.128906 7.410156.214844.148438.441407.300782.660157.445313 1.566406-38.101563-.34375-73.832031-8.3125-106.203125-15.046876-61.097656-40.347657-103.902344-57.457032-126.871094h.183594v-25.90625h-30v25.839844c-18.90625 24.1875-44.613281 67.320312-58.074219 130.339844-6.929687 32.421874-9.039062 64.304687-7.535156 102.167968 6.445313-4.355468 10.832031-7.222656 20.851563-7.222656 10.167968 0 14.53125 2.949219 21.132812 7.410156 5.832031 3.945313 12.679688 8.554688 22.953125 10.960938v185.777344c0 31.277343 25.4375 56.726562 56.707031 56.726562 31.269532 0 56.707032-25.449219 56.707032-56.726562v-39.601563h-30.390626zm0 0"/><path d="m436.472656 90.433594c-38.28125-34.679688-86.507812-56.980469-138.785156-64.738282 7.488281 8.796876 15.546875 19.582032 23.425781 32.566407 15.511719 25.554687 27.28125 54.519531 34.984375 86.09375 9.394532 38.488281 12.722656 80.996093 9.925782 126.355469 2.503906.28125 5.164062.449218 8.046874.449218 19.472657 0 29.824219-7 38.144532-12.625 6.605468-4.460937 10.964844-7.410156 21.132812-7.410156 10.363282 0 14.765625 2.828125 21.429688 7.109375 8 5.136719 17.890625 11.488281 35.960937 11.902344l21.261719 1.089843v-15.265624c0-62.617188-26.820312-121.402344-75.527344-165.527344zm0 0"/><path d="m190.886719 58.261719c7.882812-12.984375 15.9375-23.769531 23.429687-32.566407-52.28125 7.757813-100.507812 30.058594-138.789062 64.738282-48.707032 44.125-75.527344 102.910156-75.527344 165.527344v15.199218h19.382812c19.605469 0 30.152344-7.375 37.851563-12.757812 6.492187-4.539063 10.410156-7.277344 20.449219-7.277344 10.167968 0 14.53125 2.949219 21.132812 7.414062 8.320313 5.621094 18.675782 12.621094 38.148438 12.621094 3.25 0 6.230468-.210937 9.007812-.5625-2.785156-45.320312.542969-87.785156 9.929688-126.242187 7.707031-31.574219 19.476562-60.539063 34.984375-86.09375zm0 0"/></svg>