<svg height="512" viewBox="0 0 60 50" width="512" xmlns="http://www.w3.org/2000/svg"><g id="Page-1" fill="none" fill-rule="evenodd"><g id="012---Downward-Dog-Pose" fill="rgb(0,0,0)" fill-rule="nonzero"><path id="Shape" d="m51 10c1.3664459-.00326101 2.5614856.9196571 2.9037583 2.2425458.3422726 1.3228886-.2551975 2.7095852-1.4517583 3.3694542-.1570403-.1937692-.3239266-.3793469-.5-.556-1.062105-1.0726479-2.4470398-1.7668719-3.942-1.976 0-.026-.01-.055-.01-.08 0-1.6568542 1.3431458-3 3-3zm-4 5c2.0169764.0024152 3.8349931 1.2164704 4.6100864 3.078574.7750932 1.8621037.355464 4.0075701-1.0640864 5.440426-.686-.64-1.546-1.95-1.546-4.519-.004264-.5470152-.4440457-.9907909-.991-1-1.7000942-.1583173-3.1409989-1.3173401-3.66-2.944.217-.02.431-.056.651-.056zm-6.429 1.6c.5468677-.4529197 1.1621991-.8161103 1.823-1.076.6747248 2.1663662 2.4337247 3.8218062 4.637 4.364.0472071 1.744024.6882022 3.419713 1.817 4.75-.5871254.237926-1.2144989.3608206-1.848.362h-8c-.5522847 0-1-.4477153-1-1v-2c-.0012515-.4641558.0426215-.9273341.131-1.383.015018-.0400557.0270509-.081168.036-.123.3298708-1.5300824 1.173659-2.9011058 2.391-3.885zm-25.571-16.6c6.956 0 10.2 5.128 12.8 9.248.7099712 1.2350799 1.5446663 2.3941367 2.491 3.459 2.0046094 2.0002747 4.3830882 3.58672 7 4.669-.4790409.7903743-.8316277 1.6507537-1.045 2.55-.0171483.0456637-.0311805.0924376-.042.14-.1370776.6354986-.2054702 1.2838873-.204 1.934v2c.0011514 1.1957758.7123216 2.2766759 1.81 2.751l7.542 21.215c-.161.024-.322.026-.484.034h-.526c-2.1167577-.1086305-3.9317017-1.5477365-4.52-3.584l-7.759-21.91c-.184187-.5208045-.7556955-.7936869-1.2765-.6095-.5208045.184187-.7936869.7556955-.6095 1.2765l2.016 5.691c-5.06-.7-6.691-4.316-8.135-7.544-.5428523-1.4691534-1.3385097-2.8320256-2.351-4.027-1.6376998-1.6880921-3.6144228-3.0101108-5.8-3.879.057-1.185.093-2.321.093-3.414 0-.55228475-.4477153-1-1-1s-1 .44771525-1 1c0 1.308-.042 2.656-.128 4.12-.225 3.725-.713 7.262-1.229 11.007-.213 1.544-.431 3.119-.635 4.749-.087.692-.173 1.4-.257 2.124h-5.751v-23c0-6.477 2.523-9 9-9zm-9 34h5.52c-.415 3.669-.781 7.305-.995 9.489-.2311566 2.3908195-2.13250507 4.2778816-4.525 4.491z"/><path id="Shape" d="m59 50h-58c-.55228475 0-1-.4477153-1-1s.44771525-1 1-1h58c.5522847 0 1 .4477153 1 1s-.4477153 1-1 1z"/></g></g></svg>