<svg id="Layer_1" height="512" viewBox="0 0 512 512" width="512" xmlns="http://www.w3.org/2000/svg" data-name="Layer 1"><path d="m95.28 450.7-83.473-83.473c15.989-3.05 61.133-14.551 99.115-51.738l96.178 96.177c-34.272 32.986-71.871 46.117-111.82 39.034zm20.921 7.888a122.778 122.778 0 0 1 -12.586-.66 65.033 65.033 0 0 0 49.026 11.662c24.955-4.186 49.666-17.265 73.492-38.89l-14.788-14.789c-29.445 28.377-61.354 42.678-95.145 42.678zm380.574-413.644a11.672 11.672 0 0 0 -16.51 0l-256.491 256.489a89.154 89.154 0 0 1 8.812 7.7 87.871 87.871 0 0 1 7.7 8.809l256.488-256.489a11.675 11.675 0 0 0 0-16.509zm-326.233 244.483h-.21a80.213 80.213 0 0 0 -55.121 21.866l115.275 115.276a76.556 76.556 0 0 0 22.148-53.142 83.33 83.33 0 0 0 -24.29-60.052 81.2 81.2 0 0 0 -57.802-23.948zm4.2-86.825a3 3 0 0 0 2.37 2.934l19.805 4.252 4.253 19.8a3 3 0 0 0 5.867 0l4.253-19.8 19.8-4.252a3 3 0 0 0 0-5.867l-19.8-4.253-4.253-19.8a3 3 0 0 0 -5.867 0l-4.253 19.8-19.805 4.253a3 3 0 0 0 -2.368 2.931zm-90.77 35.79 19.8 4.252 4.252 19.806a3 3 0 0 0 5.867 0l4.253-19.806 19.805-4.252a3 3 0 0 0 0-5.866l-19.805-4.253-4.244-19.805a3 3 0 0 0 -5.867 0l-4.252 19.805-19.8 4.253a3 3 0 0 0 0 5.866zm18.915-92.878 33.328 7.156 7.159 33.33a3 3 0 0 0 5.867 0l7.159-33.33 33.329-7.156a3 3 0 0 0 0-5.867l-33.329-7.156-7.156-33.329a3 3 0 0 0 -5.867 0l-7.157 33.329-33.328 7.156a3 3 0 0 0 0 5.867z"/></svg>