<svg height="511pt" viewBox="-56 0 511 511.998" width="511pt" xmlns="http://www.w3.org/2000/svg"><path d="m396.476562 414.171875-49.0625-78.53125c-13.191406 11.03125-43.675781 34.675781-88.730468 58.632813-33.183594 17.648437-67.90625 32.050781-103.308594 42.855468v59.871094c0 8.28125 6.71875 14.996094 15 14.996094h58.5c8.285156 0 15-6.714844 15-14.996094v-59.882812h139.878906c5.449219 0 10.476563-2.957032 13.117188-7.726563 2.644531-4.769531 2.492187-10.597656-.394532-15.21875zm0 0"/><path d="m243.695312 368.265625c23.847657-12.625 43.503907-25.265625 58.34375-35.738281-18.816406-2.105469-37.960937-6.503906-57.277343-13.179688-27.230469-9.414062-54.859375-23.351562-82.121094-41.429687-35.535156-23.566407-60.90625-47.78125-71.265625-58.296875l-33.539062 48.679687c-3.164063 4.589844-3.519532 10.554688-.929688 15.488281 2.59375 4.933594 7.707031 8.023438 13.28125 8.023438h9.035156l-76.445312 122.359375c-2.890625 4.621094-3.039063 10.449219-.398438 15.21875.328125.589844.691406 1.148437 1.085938 1.683594 103.363281-1.515625 187.691406-34.992188 240.230468-62.808594zm-96.882812-47.621094c11.046875 0 20 9.003907 20 20.109375 0 11.109375-8.953125 20.113282-20 20.113282-11.042969 0-20-9.003907-20-20.113282 0-11.105468 8.957031-20.109375 20-20.109375zm0 0"/><path d="m238.796875 83.621094-26-35.855469c7.484375-4.492187 12.496094-12.691406 12.496094-22.0625 0-14.195313-11.492188-25.703125-25.667969-25.703125-14.171875 0-25.664062 11.507812-25.664062 25.703125 0 9.371094 5.011718 17.570313 12.496093 22.058594l-86.511719 119.308593c-3.3125 4.566407-3.78125 10.601563-1.21875 15.621094 1.152344 2.261719 2.835938 4.136719 4.847657 5.523438 79.984375-12.035156 119.238281-71.339844 135.222656-104.59375zm0 0"/><path d="m213.738281 167.417969c-24.75 22.664062-53.253906 38.167969-85.027343 46.296875 12.378906 11.128906 29.902343 25.589844 51.125 39.609375 35.859374 23.6875 89.433593 50.570312 147.769531 50.613281l-7.578125-12.125h9.039062c5.574219 0 10.6875-3.089844 13.28125-8.023438 2.589844-4.933593 2.234375-10.898437-.929687-15.488281l-53.363281-77.449219c5.285156-.3125 10.046874-3.402343 12.472656-8.160156 2.5625-5.019531 2.089844-11.054687-1.21875-15.621094l-40.839844-56.316406c-10.074219 17.867188-24.492188 38.132813-44.730469 56.664063zm14.261719 86.765625c-11.042969 0-20-9.003906-20-20.109375 0-11.109375 8.957031-20.113281 20-20.113281 11.046875 0 20 9.003906 20 20.113281 0 11.105469-8.953125 20.109375-20 20.109375zm0 0"/></svg>