<svg height="512" viewBox="0 0 429.115 318.604" width="512" xmlns="http://www.w3.org/2000/svg"><g fill="rgb(0,0,0)"><path d="m99.281 88.574c11.112-14.369 13.53-33.787 7.296-50.721-6.541-17.771-22.031-31.563-40.381-36.175-17.625-4.43-37.009-.036-50.282 12.584-13.258 12.606-18.59 31.558-14.64 49.322 4.097 18.423 17.602 33.925 35.066 40.951 16.888 6.795 36.774 5.166 51.803-5.34 4.223-2.951 7.986-6.546 11.138-10.621 18.02-23.3-18.02 23.3 0 0z"/><path d="m417.968 261.108c-3.919-2.359-7.838-4.718-11.757-7.078-9.378-5.646-18.757-11.291-28.135-16.937-11.27-6.784-22.539-13.568-33.809-20.352-9.593-5.774-19.185-11.549-28.778-17.323-4.347-2.617-8.695-5.234-13.042-7.851-3.579-2.155-7.685-3.455-11.844-3.812-4.965-.426-9.581.671-14.138 2.546-1.683.693-3.366 1.386-5.05 2.079-9.409 3.873-18.818 7.747-28.228 11.62-11.823 4.867-23.645 9.734-35.468 14.6-6.191 2.549-12.383 5.097-18.574 7.646-7.462 3.072-14.766 6.582-22.105 9.944.444-1.166 1.63-2.155 2.507-2.986 1.635-1.549 3.386-2.978 5.159-4.366 2.128-1.665 4.31-3.263 6.532-4.802 1.072-.743 2.154-1.471 3.247-2.182.266-.173.532-.344.799-.515-.119-.218-.239-.436-.359-.653-.284-.517-.57-1.033-.857-1.549-4.995-8.987-10.25-17.828-15.452-26.695-2.971-5.065-5.883-10.166-9.086-15.089-1.546-2.376-3.144-4.719-4.792-7.026-2.092.039-4.185-.007-6.274-.098-4.362-.19-8.727-.559-13.049-1.183-1.686-.243-3.374-.522-5.031-.924-.958-.232-2.137-.461-2.935-1.084 7.603-.872 15.237-1.617 22.808-2.738-.319-.412.288-.302.67-.361.811-.125 1.621-.25 2.432-.375 2.69-.415 5.38-.831 8.07-1.246 6.023-.93 12.046-1.86 18.069-2.789 3.738-.577 7.799-.824 11.238-2.435 2.251-1.055 4.502-2.11 6.752-3.164 10.769-5.047 21.539-10.094 32.308-15.14 9.154-4.29 18.308-8.579 27.461-12.869.643-.301 1.286-.603 1.929-.904 4.87-2.282 8.707-6.48 10.633-11.491.502 3.847-.983 7.566-3.594 10.37-2.497 2.681-5.827 4.538-8.985 6.324-7.829 4.426-15.984 8.292-24.13 12.09-2.396 1.117-4.798 2.221-7.205 3.314 13.515 15.605 32.918 25.513 53.506 27.177 18.375 1.486 36.957-3.521 52.044-14.127 14.419-10.137 25.255-25.041 30.366-41.916 5.303-17.509 4.345-36.722-2.711-53.603-6.782-16.224-19.014-29.952-34.33-38.585-15.901-8.962-34.738-12.131-52.71-8.976-17.477 3.068-33.631 12.131-45.432 25.371-11.923 13.378-19.042 30.652-19.979 48.55-.142 2.714-.147 5.436-.01 8.15.015.299.304 2.68.145 2.741-.145.056-.29.112-.435.168-1.767.681-3.535 1.362-5.302 2.043-5.842 2.251-11.684 4.502-17.526 6.753-1.958.754-3.916 1.509-5.873 2.263-.444.171-.75.318-1.211.321-2.579.016-5.158.031-7.737.047-11.401.069-22.802.137-34.204.206-12.172.073-24.343.147-36.515.22-3.542.021-7.084.043-10.627.064-5.262.032-10.372.752-15.172 3.09-2.399 1.168-4.595 2.722-6.854 4.13-1.986 1.238-3.896 2.602-5.688 4.108-3.114 2.616-5.867 5.67-8.015 9.13-3.742 6.028-5.399 13.057-5.273 20.117.209 11.722 4.709 23.462 10.981 33.259 2.14 3.343 4.812 6.281 7.091 9.528 5.199 7.407 9.921 15.161 14.516 22.952 10.344 17.542 19.682 35.655 27.668 54.393 1.638 3.844 3.264 7.692 4.935 11.521.496 1.137 1.131 2.266 1.335 3.49.255 1.528.607 3.041 1.055 4.524.817 2.707 1.952 5.316 3.369 7.763 4.494 7.755 11.829 13.643 20.361 16.38 8.552 2.743 17.959 2.206 26.138-1.508 1.417-.643 2.799-1.372 4.19-2.069 7.124-3.568 14.248-7.136 21.372-10.704 11.088-5.553 22.175-11.106 33.263-16.658 11.512-5.765 23.024-11.531 34.537-17.296l25.194-12.618c1.925-.964 3.851-1.928 5.776-2.893.826-.414 1.008-.133 1.892.268 6.85 3.11 13.7 6.22 20.55 9.33 11.454 5.2 22.908 10.4 34.362 15.601 11.147 5.061 22.294 10.122 33.442 15.183 5.929 2.692 11.859 5.384 17.788 8.076 5.85 2.656 12.444 2.996 18.452.604 8.666-3.45 14.515-12.098 14.483-21.427-.025-7.984-4.303-15.539-11.144-19.657z"/></g></svg>