<svg id="Capa_1" enable-background="new 0 0 512 512" height="512" viewBox="0 0 512 512" width="512" xmlns="http://www.w3.org/2000/svg"><g><path d="m256 86.775v-71.716c0-8.317 6.742-15.059 15.059-15.059h218.353c8.317 0 15.059 6.742 15.059 15.059v481.882c0 8.317-6.742 15.059-15.059 15.059h-15.059c-6.588 0-12.412-4.283-14.375-10.572l-20.783-66.585-89.8 13.705c-37.993 5.799-73.572-20.085-79.435-57.888-.541-3.489-.813-7.015-.813-10.545 0-4.015 1.603-7.864 4.453-10.691l37.127-36.831-46.954-27.949c-4.562-2.715-7.357-7.631-7.357-12.94v-35.461h-20.13c-22.353 0-40.522-18.024-40.522-40.319 0-6.277 1.473-12.466 4.297-18.07zm-154.085 353.963c5.881-5.881 15.416-5.881 21.296 0 5.881 5.881 5.881 15.415 0 21.296-26.464 26.464-69.37 26.464-95.834 0s-26.464-69.37 0-95.834c12.872-12.872 30.074-19.848 47.917-19.848h128c8.317 0 15.059 6.742 15.059 15.059s-6.742 15.059-15.059 15.059h-128c-9.934 0-19.455 3.861-26.62 11.027-14.702 14.702-14.702 38.539 0 53.241s38.539 14.702 53.241 0zm71.261-147.091c8.317 0 15.059 6.742 15.059 15.059s-6.742 15.059-15.059 15.059h-90.352c-13.875 0-27.259-5.428-37.269-15.437-20.583-20.583-20.583-53.954 0-74.538 20.583-20.583 53.954-20.583 74.537 0 5.881 5.881 5.881 15.416 0 21.296-5.881 5.881-15.415 5.881-21.296 0-8.821-8.821-23.123-8.821-31.944 0s-8.821 23.124 0 31.945c4.303 4.303 10.006 6.616 15.972 6.616z"/></g></svg>