<svg height="512" viewBox="0 0 56 56" width="512" xmlns="http://www.w3.org/2000/svg"><g id="Page-1" fill="none" fill-rule="evenodd"><g id="017---Toilet-Roll-Holder" fill="rgb(0,0,0)" fill-rule="nonzero"><path id="Shape" d="m34.99 10h-23.99c-1.40944353.0347843-2.78920639.4123314-4.02 1.1-4.696 2.592-6.98 9.04-6.98 14.4v11.5h1c.55228475 0 1 .4477153 1 1s-.44771525 1-1 1h-1v16.33l1.81-.96c.5883089-.3100808 1.2916911-.3100808 1.88 0l2.81 1.5 2.8-1.5c.59061944-.3150222 1.2993806-.3150222 1.89 0l2.8 1.5 2.81-1.5c.5858235-.319969 1.2941765-.319969 1.88 0l2.81 1.5 2.81-1.5c.5893432-.3200862 1.3006568-.3200862 1.89 0l1.81.96v-16.33h-2c-.5522847 0-1-.4477153-1-1s.4477153-1 1-1h2v-11.5c0-6.73 2.84-12.57 6.99-15.5zm-26.99 29h-3c-.55228475 0-1-.4477153-1-1s.44771525-1 1-1h3c.55228475 0 1 .4477153 1 1s-.44771525 1-1 1zm7 0h-3c-.5522847 0-1-.4477153-1-1s.4477153-1 1-1h3c.5522847 0 1 .4477153 1 1s-.4477153 1-1 1zm7 0h-3c-.5522847 0-1-.4477153-1-1s.4477153-1 1-1h3c.5522847 0 1 .4477153 1 1s-.4477153 1-1 1z"/><path id="Shape" d="m41.5 33c-3.319 0-5.5-3.723-5.5-7.5 0-4.766 2.868-7.5 5.5-7.5 2.08 0 3.92 1.55 4.86 4h4.64v-2.93c-1.79-5.51-5.71-9.07-10-9.07-6.07 0-11 6.95-11 15.5s4.93 15.5 11 15.5c5.11 0 9.56-5.08 10.71-12h-5.35c-.94 2.45-2.78 4-4.86 4z"/><path id="Shape" d="m30 34.78v6.22h4.99c-2.1762264-1.6038105-3.8962324-3.747786-4.99-6.22z"/><path id="Shape" d="m38.82 22h5.36c-.4544294-1.1112157-1.4854078-1.8806026-2.68-2-1.1945922.1193974-2.2255706.8887843-2.68 2z"/><path id="Shape" d="m52 0h-42c-2.209139 0-4 1.790861-4 4v5.33c.93953189-.51648216 1.95056137-.89056307 3-1.11v-3.22c.0032948-1.10320187.89679813-1.9967052 2-2h40c1.1032019.0032948 1.9967052.89679813 2 2v17c-.0032948 1.1032019-.8967981 1.9967052-2 2h-12.85c-.2.99-.2 2.01 0 3h13.85c2.209139 0 4-1.790861 4-4v-19c0-2.209139-1.790861-4-4-4z"/><path id="Shape" d="m44.18 29h-5.36c.4544294 1.1112157 1.4854078 1.8806026 2.68 2 1.1945922-.1193974 2.2255706-.8887843 2.68-2z"/></g></g></svg>