<svg fill="none" height="512" viewBox="0 0 24 24" width="512" xmlns="http://www.w3.org/2000/svg"><path clip-rule="evenodd" d="m14.346 6.005c-.1153-.00318-.2307-.00485-.346-.005-3.633 0-7.03102 2.294-9.46002 4.574-.61803-.67517-1.19126-1.39003-1.716-2.14-.07378-.10966-.16856-.20362-.27887-.27642-.11031-.07281-.23396-.12302-.3638-.14774s-.26329-.02346-.39264.00371c-.12934.02717-.25202.07972-.36094.1546-.10891.07487-.2019.1706-.27359.28164s-.12065.23519-.14407.36527c-.023406.13008-.020798.26351.00768.39258.02847.12907.08225.25121.15823.35936.59678.8542 1.2506 1.667 1.957 2.433-.813.89-1.48 1.74-1.957 2.434-.07598.1082-.12976.2303-.15823.3594-.028478.129-.031086.2625-.00768.3925.02342.1301.07238.2543.14407.3653s.16468.2068.27359.2817c.10892.0748.2316.1274.36094.1546.12935.0271.2628.0284.39264.0037.12984-.0248.25349-.075.3638-.1478s.20509-.1667.27887-.2764c.41-.596.994-1.345 1.716-2.141 2.43 2.28 5.82702 4.574 9.46002 4.574.123 0 .245-.002.365-.005-.2462-.5595-.4443-1.1389-.592-1.732-.2796-1.0924-.4619-2.2074-.545-3.332-.167-2.218.022-4.825 1.118-6.926zm2.122 11.742c.09-.02.18-.04.269-.062 2.017-.492 3.559-1.843 4.562-2.985.5511-.6299 1.0432-1.3091 1.47-2.029.036-.06.063-.109.082-.143l.023-.042.007-.013.002-.004v-.001l.001-.001-.787-.416.787.415.247-.466-.247-.466-.787.415.787-.416-.001-.002-.002-.005-.007-.012-.023-.042c-.1221-.2165-.2511-.4289-.387-.637-.3514-.5384-.7404-1.05136-1.164-1.535-1.003-1.142-2.546-2.493-4.562-2.985-.0897-.02187-.1797-.04254-.27-.062-.0257.09823-.0661.19198-.12.278-1.033 1.648-1.294 4.005-1.125 6.25.0742 1.005.2368 2.0015.486 2.978.226.867.47 1.447.632 1.698.059.092.101.19.128.29zm-5.26-7.04c.1875-.1876.2928-.4421.2927-.70735-.0001-.26527-.1056-.51964-.2932-.70715-.1877-.18751-.4421-.2928-.7074-.2927-.2652.00009-.51961.10556-.70712.2932-.272.271-.47.662-.606 1.015-.16125.4248-.2681.8683-.318 1.32-.104.928.016 2.172.924 3.08.18764.1875.44212.2928.70732.2927.2653-.0001.5197-.1056.7072-.2932s.2928-.4421.2927-.7074c-.0001-.2652-.1056-.5196-.2932-.7071-.292-.293-.422-.8-.35-1.445.033-.306.11-.594.197-.822.073-.19.134-.286.152-.313.006-.01.007-.011.001-.006zm5.792.293c0-.2652.1053-.5196.2929-.7071.1875-.1875.4419-.2929.7071-.2929h.001c.2652 0 .5195.1054.7071.2929.1875.1875.2929.4419.2929.7071s-.1054.5196-.2929.7071c-.1876.1875-.4419.2929-.7071.2929h-.001c-.2652 0-.5196-.1054-.7071-.2929-.1876-.1875-.2929-.4419-.2929-.7071z" fill="rgb(0,0,0)" fill-rule="evenodd"/></svg>