<?xml version="1.0" encoding="iso-8859-1"?>
<!-- Generator: Adobe Illustrator 19.0.0, SVG Export Plug-In . SVG Version: 6.00 Build 0)  -->
<svg version="1.1" id="Capa_1" xmlns="http://www.w3.org/2000/svg" xmlns:xlink="http://www.w3.org/1999/xlink" x="0px" y="0px"
	 viewBox="0 0 512 512" style="enable-background:new 0 0 512 512;" xml:space="preserve">
<g>
	<g>
		<path d="M422,211v-30H30v75c0,69.501,36.669,131.461,91.558,166h207.884c13.48-8.483,26.829-18.594,37.837-30H407
			c57.891,0,105-47.109,105-105v-76H422z M482,287c0,41.353-33.647,75-75,75h-16.326C410.287,331.652,422,294.763,422,256v-15h60
			V287z"/>
	</g>
</g>
<g>
	<g>
		<path d="M160.068,0l-16.641,24.961c5.962,3.97,9.375,10.356,9.375,17.52s-3.413,13.55-9.375,17.52
			c-14.238,9.492-22.734,25.371-22.734,42.48s8.496,32.988,22.734,42.48L160.067,120c-5.962-3.97-9.375-10.356-9.375-17.52
			s3.413-13.55,9.375-17.52c14.239-9.491,22.735-25.37,22.735-42.48C182.802,25.371,174.306,9.492,160.068,0z"/>
	</g>
</g>
<g>
	<g>
		<path d="M235.068,0l-16.641,24.961c5.962,3.97,9.375,10.356,9.375,17.52s-3.413,13.55-9.375,17.52
			c-14.238,9.492-22.734,25.371-22.734,42.48s8.496,32.988,22.734,42.48L235.067,120c-5.962-3.97-9.375-10.356-9.375-17.52
			s3.413-13.55,9.375-17.52c14.239-9.491,22.735-25.37,22.735-42.48C257.802,25.371,249.306,9.492,235.068,0z"/>
	</g>
</g>
<g>
	<g>
		<path d="M310.068,0l-16.641,24.961c5.962,3.97,9.375,10.356,9.375,17.52s-3.413,13.55-9.375,17.52
			c-14.238,9.492-22.734,25.371-22.734,42.48s8.496,32.988,22.734,42.48L310.067,120c-5.962-3.97-9.375-10.356-9.375-17.52
			s3.413-13.55,9.375-17.52c14.239-9.491,22.735-25.37,22.735-42.48C332.802,25.371,324.306,9.492,310.068,0z"/>
	</g>
</g>
<g>
	<g>
		<path d="M0,452c0,33.137,26.863,60,60,60h332c33.137,0,60-26.863,60-60H0z"/>
	</g>
</g>
<g>
</g>
<g>
</g>
<g>
</g>
<g>
</g>
<g>
</g>
<g>
</g>
<g>
</g>
<g>
</g>
<g>
</g>
<g>
</g>
<g>
</g>
<g>
</g>
<g>
</g>
<g>
</g>
<g>
</g>
</svg>
