<svg id="Layer_1" enable-background="new 0 0 68 68" height="512" viewBox="0 0 68 68" width="512" xmlns="http://www.w3.org/2000/svg"><g><g><path d="m59.9724 36.9224c-.6801.65-1.37 1.27-2.06 1.88v14.78c0 2.84-2.3 5.13-5.13 5.13h-12.293l-8.8489-14.1793c-.694-1.0989-2.2845-1.0989-2.9785 0l-2.6804 4.2856c-.3586.5732-1.1949.569-1.5477-.0079l-5.1318-8.3938c-.694-1.1085-2.3135-1.1085-2.9882 0l-8.4818 13.8312c-.0297-.2187-.0497-.4471-.0497-.6658v-24.79c0-2.83 2.29-5.13 5.13-5.13h39.87c.82 0 1.59.19 2.27.53 2.67-2.36 5.81-4.44 8.6-4.44h.04v-1.78h-61.69v37.16c0 5.17 4.19 9.36 9.37 9.36h42.95c5.17 0 9.37-4.19 9.37-9.36v-22.19c-.29.36-.61.73-.95 1.11z"/><path d="m46.6014 15.9703h17.0904v-3.0943c0-5.1741-4.1944-9.3685-9.3685-9.3685h-42.9556c-5.174 0-9.3685 4.1943-9.3685 9.3685v3.0942h36.9322 7.67zm-35.2382-3.648c-1.4266 0-2.5834-1.1567-2.5834-2.5834 0-1.4266 1.1567-2.5834 2.5834-2.5834s2.5834 1.1568 2.5834 2.5834c-.0001 1.4267-1.1567 2.5834-2.5834 2.5834zm9.1377 0c-1.4266 0-2.5833-1.1567-2.5833-2.5834 0-1.4266 1.1567-2.5834 2.5833-2.5834 1.4267 0 2.5834 1.1568 2.5834 2.5834 0 1.4267-1.1567 2.5834-2.5834 2.5834zm9.1378 0c-1.4266 0-2.5834-1.1567-2.5834-2.5834 0-1.4266 1.1567-2.5834 2.5834-2.5834s2.5834 1.1568 2.5834 2.5834c0 1.4267-1.1567 2.5834-2.5834 2.5834z"/><path d="m49.1624 33.8024c-1.51 2.1-2.72 4.14-3.41 5.78l.01.01c-2-.59-4.32.34-5.28 4.12-.46 1.82-1.43 2.73-2.35 3.18-.68.33-.72 1.29-.04 1.62 2.39 1.18 6.4 2.4 9.5-.46 1.52-1.39 1.75-4.04 1.33-5.4301 1.62-.75 3.6-2.05 5.63-3.64z"/><path d="m53.9524 28.0424c-1.26 1.31-2.48 2.73-3.59 4.15l5.76 5.52c.81-.7 1.62-1.43 2.41-2.18l2.72-2.81c4.54-5.09 5.65-8.86 4.07-10.37-1.7-1.63-5.89-.03-11.37 5.69z"/><path d="m24.7117 34.4826c0 1.6904 1.366 3.0563 3.0563 3.0563 1.6902 0 3.0563-1.3659 3.0563-3.0563 0-1.6902-1.366-3.0563-3.0563-3.0563s-3.0563 1.3661-3.0563 3.0563z"/></g></g></svg>