<svg id="Capa_1" enable-background="new 0 0 511.985 511.985" height="512" viewBox="0 0 511.985 511.985" width="512" xmlns="http://www.w3.org/2000/svg"><g><path d="m151 327.054h30c0-33.091 26.909-60 60-60v-30c-33.091 0-60-26.909-60-60h-30c0 33.091-26.909 60-60 60v30c33.091 0 60 26.909 60 60z"/><path d="m61 507.054h30c0-33.091 26.909-60 60-60v-30c-33.091 0-60-26.909-60-60h-30c0 33.091-27.909 60-61 60v30c33.091 0 61 26.909 61 60z"/><path d="m486.933 343.9c8.551-23.465-3.613-49.2-26.895-57.686l-16.494-6.006c.148-13.326-5.889-26.299-16.434-35.012l84.875-229.953-28.183-10.312-84.894 229.999c-13.524-.099-26.526 5.821-35.125 16.26l-16.509-6.006c-11.265-4.116-23.496-3.589-34.409 1.494-10.884 5.083-19.146 14.106-23.262 25.4l-5.132 14.097 197.329 71.82z"/><path d="m183.49 371.41-24.741-2.256 9.521 22.954c5.171 12.437 11.675 24.302 19.336 35.259 18.97 27.173 49.424 44.78 83.394 48.809v17.813l10.254 3.413c14.092 4.717 28.125 8.071 42.466 7.002 44.458 0 86.528-21.914 112.573-58.623 13.237-18.646 24.254-38.917 33.906-60.09l-196.04-71.353c-13.902 37.243-51.096 60.567-90.669 57.072z"/></g></svg>