<svg id="Capa_1" enable-background="new 0 0 512 512" height="512" viewBox="0 0 512 512" width="512" xmlns="http://www.w3.org/2000/svg"><g><path d="m467 196c-12.477 0-34.968 4.578-57.49 30.798-27.282-28.143-66.313-45.798-108.51-45.798h-121c-5.64 0-11.323.381-17.402 1.172-24.976-39.507-70.342-37.661-92.285-30.425-4.951 1.626-8.701 5.713-9.902 10.781-1.216 5.068.293 10.4 3.984 14.077 8.643 8.643 15.469 22.104 19.98 39.258-17.9 14.985-31.962 33.779-41.293 55.137h-28.082c-8.291 0-15 6.709-15 15v90c0 8.291 6.709 15 15 15h28.096c15.674 35.64 44.971 64.97 81.108 79.56l-3.999 23.979c-.732 4.351.498 8.789 3.354 12.158 2.842 3.369 7.031 5.303 11.44 5.303h60c7.339 0 13.594-5.303 14.795-12.539l2.916-17.461h55.58l2.915 17.461c1.201 7.236 7.456 12.539 14.795 12.539h60c4.409 0 8.599-1.934 11.44-5.303 2.856-3.369 4.087-7.808 3.354-12.158l-3.984-23.95c56.851-22.676 95.19-77.831 95.19-139.589 0-29.359-8.798-56.572-23.438-79.728 12.241-16.076 25.633-25.272 38.438-25.272 8.584 0 15 3.955 15 7.5 0 5.786-5.801 9.39-5.83 9.404-7.236 4.058-9.814 13.198-5.771 20.42 4.045 7.207 13.162 9.814 20.42 5.771 7.866-4.408 21.181-16.86 21.181-35.595 0-21.035-19.761-37.5-45-37.5zm-332 105c-8.284 0-15-6.716-15-15 0-8.286 6.716-15 15-15s15 6.714 15 15c0 8.284-6.716 15-15 15zm181-30h-121c-8.291 0-15-6.709-15-15s6.709-15 15-15h121c8.291 0 15 6.709 15 15s-6.709 15-15 15z"/><path d="m180 76c0 41.353 34.647 75 76 75s75-33.647 75-75-33.647-76-75-76-76 34.647-76 76z"/></g></svg>